M48
;GenerationSoftware,Autodesk,EAGLE,9.6.2*%
;CreationDate,2023-03-29T17:24:39Z*%
FMAT,2
ICI,OFF
METRIC,TZ,000.000
T8C0.350
T7C0.700
T6C0.850
T5C0.900
T4C1.000
T3C1.016
T2C2.540
T1C3.500
%
G90
M71
T1
X114Y-37389
X-37503Y0
X0Y37275
X36817Y-305
T2
X17266Y-31471
X7726Y-31471
T3
X-23152Y-12509
X-20612Y-12509
X-18072Y-12509
X-15532Y-12509
X26708Y-18313
X29248Y-18313
X31788Y-18313
X-12992Y-12509
X-10452Y-12509
X-7493Y12865
X5791Y11595
X8331Y11595
X10871Y11595
X13411Y11595
X3251Y11595
X15951Y11595
X5791Y29375
X8331Y29375
X10871Y29375
X13411Y29375
X-22733Y12865
X-20193Y12865
X-17653Y12865
X-15113Y12865
X-12573Y12865
X-10033Y12865
T4
X-10160Y-7620
X-27940Y-7620
X17780Y0
X-25400Y7620
X-27940Y7620
X-22860Y7620
X17780Y-2540
X17780Y-5080
X17780Y2540
X17780Y5080
X5080Y7620
X5080Y-7620
X-25400Y-7620
X-22860Y-7620
X-20320Y-7620
X-17780Y-7620
X-15240Y-7620
X-12700Y-7620
X7620Y7620
X-7620Y-7620
X-5080Y-7620
X-2540Y-7620
X0Y-7620
X2540Y-7620
X-25400Y5080
X2540Y7620
X0Y7620
X-2540Y7620
X-5080Y7620
X-7620Y7620
X-10160Y7620
X-12700Y7620
X-15240Y7620
X-17780Y7620
X-20320Y7620
X7620Y-7620
X12700Y-7620
X15240Y-7620
X17780Y-7620
X20320Y-7620
X22860Y-7620
X25400Y-7620
X27940Y-7620
X30480Y-7620
X10160Y7620
X12700Y7620
X15240Y7620
X17780Y7620
X20320Y7620
X22860Y7620
X25400Y7620
X27940Y7620
X30480Y7620
X-21590Y-4620
X-19050Y-4620
X-16510Y-4620
X-13970Y-4620
X-11430Y-4620
X10160Y-7620
T5
X3250Y-17780
X-3250Y-17780
T6
X-12895Y-29270
X-10355Y-29270
X-7815Y-29270
T7
X26594Y-12294
X24054Y-12294
T8
X13970Y-5080
X10160Y-10160
M30