G04 EAGLE Gerber RS-274X export*
G75*
%MOMM*%
%FSLAX34Y34*%
%LPD*%
%INTop Copper*%
%IPPOS*%
%AMOC8*
5,1,8,0,0,1.08239X$1,22.5*%
G01*
%ADD10C,1.651000*%
%ADD11R,0.700000X1.930000*%
%ADD12C,1.778000*%
%ADD13C,1.879600*%
%ADD14C,1.358000*%
%ADD15C,2.032000*%
%ADD16R,1.778000X1.778000*%
%ADD17R,1.508000X1.508000*%
%ADD18C,1.676400*%
%ADD19P,1.632244X8X112.500000*%
%ADD20C,1.508000*%
%ADD21P,1.924489X8X202.500000*%
%ADD22P,3.848979X8X22.500000*%
%ADD23C,0.250000*%
%ADD24C,0.756400*%

G36*
X316926Y-246121D02*
X316926Y-246121D01*
X316954Y-246123D01*
X317047Y-246101D01*
X317141Y-246086D01*
X317166Y-246073D01*
X317193Y-246066D01*
X317274Y-246015D01*
X317359Y-245970D01*
X317378Y-245950D01*
X317401Y-245935D01*
X317514Y-245811D01*
X318355Y-244654D01*
X318393Y-244579D01*
X318438Y-244509D01*
X318448Y-244470D01*
X318466Y-244434D01*
X318478Y-244352D01*
X318498Y-244271D01*
X318495Y-244231D01*
X318501Y-244191D01*
X318485Y-244109D01*
X318479Y-244026D01*
X318463Y-243989D01*
X318456Y-243949D01*
X318415Y-243876D01*
X318383Y-243799D01*
X318350Y-243758D01*
X318336Y-243734D01*
X318314Y-243714D01*
X318278Y-243668D01*
X317753Y-243144D01*
X317753Y-200914D01*
X317750Y-200894D01*
X317752Y-200875D01*
X317730Y-200773D01*
X317714Y-200671D01*
X317704Y-200654D01*
X317700Y-200634D01*
X317647Y-200545D01*
X317598Y-200454D01*
X317584Y-200440D01*
X317574Y-200423D01*
X317495Y-200356D01*
X317420Y-200284D01*
X317402Y-200276D01*
X317387Y-200263D01*
X317291Y-200224D01*
X317197Y-200181D01*
X317177Y-200179D01*
X317159Y-200171D01*
X316992Y-200153D01*
X314496Y-200153D01*
X308241Y-197562D01*
X305719Y-195040D01*
X305703Y-195029D01*
X305691Y-195013D01*
X305603Y-194957D01*
X305520Y-194897D01*
X305501Y-194891D01*
X305484Y-194880D01*
X305383Y-194855D01*
X305284Y-194824D01*
X305265Y-194825D01*
X305245Y-194820D01*
X305142Y-194828D01*
X305039Y-194831D01*
X305020Y-194838D01*
X305000Y-194839D01*
X304905Y-194880D01*
X304808Y-194915D01*
X304792Y-194928D01*
X304774Y-194936D01*
X304643Y-195040D01*
X302121Y-197562D01*
X295866Y-200153D01*
X289096Y-200153D01*
X282841Y-197562D01*
X280319Y-195040D01*
X280303Y-195029D01*
X280291Y-195013D01*
X280203Y-194957D01*
X280120Y-194897D01*
X280101Y-194891D01*
X280084Y-194880D01*
X279983Y-194855D01*
X279884Y-194824D01*
X279865Y-194825D01*
X279845Y-194820D01*
X279742Y-194828D01*
X279639Y-194831D01*
X279620Y-194838D01*
X279600Y-194839D01*
X279505Y-194880D01*
X279408Y-194915D01*
X279392Y-194928D01*
X279374Y-194936D01*
X279243Y-195040D01*
X276721Y-197562D01*
X270466Y-200153D01*
X263696Y-200153D01*
X257441Y-197562D01*
X252653Y-192774D01*
X250062Y-186519D01*
X250062Y-179749D01*
X252653Y-173494D01*
X257441Y-168706D01*
X263696Y-166115D01*
X270466Y-166115D01*
X276721Y-168706D01*
X279243Y-171228D01*
X279259Y-171239D01*
X279271Y-171255D01*
X279359Y-171311D01*
X279442Y-171371D01*
X279461Y-171377D01*
X279478Y-171388D01*
X279579Y-171413D01*
X279678Y-171444D01*
X279697Y-171443D01*
X279717Y-171448D01*
X279820Y-171440D01*
X279923Y-171437D01*
X279942Y-171430D01*
X279962Y-171429D01*
X280057Y-171388D01*
X280154Y-171353D01*
X280170Y-171340D01*
X280188Y-171332D01*
X280319Y-171228D01*
X282841Y-168706D01*
X289096Y-166115D01*
X295866Y-166115D01*
X302121Y-168706D01*
X304643Y-171228D01*
X304659Y-171239D01*
X304671Y-171255D01*
X304759Y-171311D01*
X304842Y-171371D01*
X304861Y-171377D01*
X304878Y-171388D01*
X304979Y-171413D01*
X305078Y-171444D01*
X305097Y-171443D01*
X305117Y-171448D01*
X305220Y-171440D01*
X305323Y-171437D01*
X305342Y-171430D01*
X305362Y-171429D01*
X305457Y-171388D01*
X305554Y-171353D01*
X305570Y-171340D01*
X305588Y-171332D01*
X305719Y-171228D01*
X308241Y-168706D01*
X314496Y-166115D01*
X316992Y-166115D01*
X317012Y-166112D01*
X317031Y-166114D01*
X317133Y-166092D01*
X317235Y-166076D01*
X317252Y-166066D01*
X317272Y-166062D01*
X317361Y-166009D01*
X317452Y-165960D01*
X317466Y-165946D01*
X317483Y-165936D01*
X317550Y-165857D01*
X317622Y-165782D01*
X317630Y-165764D01*
X317643Y-165749D01*
X317682Y-165653D01*
X317725Y-165559D01*
X317727Y-165539D01*
X317735Y-165521D01*
X317753Y-165354D01*
X317753Y-86525D01*
X317742Y-86454D01*
X317740Y-86383D01*
X317722Y-86334D01*
X317714Y-86282D01*
X317680Y-86219D01*
X317655Y-86152D01*
X317623Y-86111D01*
X317598Y-86065D01*
X317547Y-86016D01*
X317502Y-85960D01*
X317458Y-85931D01*
X317420Y-85896D01*
X317355Y-85865D01*
X317295Y-85827D01*
X317244Y-85814D01*
X317197Y-85792D01*
X317126Y-85784D01*
X317056Y-85767D01*
X317004Y-85771D01*
X316953Y-85765D01*
X316882Y-85780D01*
X316811Y-85786D01*
X316763Y-85806D01*
X316712Y-85817D01*
X316651Y-85854D01*
X316585Y-85882D01*
X316529Y-85927D01*
X316501Y-85943D01*
X316486Y-85961D01*
X316454Y-85987D01*
X313388Y-89053D01*
X307816Y-91361D01*
X301784Y-91361D01*
X296212Y-89053D01*
X292638Y-85479D01*
X292622Y-85467D01*
X292610Y-85452D01*
X292522Y-85395D01*
X292439Y-85335D01*
X292420Y-85329D01*
X292403Y-85319D01*
X292302Y-85293D01*
X292203Y-85263D01*
X292184Y-85263D01*
X292164Y-85259D01*
X292061Y-85267D01*
X291958Y-85269D01*
X291939Y-85276D01*
X291919Y-85278D01*
X291824Y-85318D01*
X291727Y-85354D01*
X291711Y-85366D01*
X291693Y-85374D01*
X291562Y-85479D01*
X287988Y-89053D01*
X282416Y-91361D01*
X276384Y-91361D01*
X270812Y-89053D01*
X267238Y-85479D01*
X267222Y-85467D01*
X267210Y-85452D01*
X267122Y-85396D01*
X267039Y-85335D01*
X267020Y-85329D01*
X267003Y-85319D01*
X266902Y-85293D01*
X266803Y-85263D01*
X266784Y-85263D01*
X266764Y-85259D01*
X266661Y-85267D01*
X266558Y-85269D01*
X266539Y-85276D01*
X266519Y-85278D01*
X266424Y-85318D01*
X266327Y-85354D01*
X266311Y-85366D01*
X266293Y-85374D01*
X266162Y-85479D01*
X262588Y-89053D01*
X257016Y-91361D01*
X250984Y-91361D01*
X245412Y-89053D01*
X241838Y-85479D01*
X241822Y-85467D01*
X241810Y-85452D01*
X241722Y-85395D01*
X241639Y-85335D01*
X241620Y-85329D01*
X241603Y-85319D01*
X241502Y-85293D01*
X241403Y-85263D01*
X241384Y-85263D01*
X241364Y-85259D01*
X241261Y-85267D01*
X241158Y-85269D01*
X241139Y-85276D01*
X241119Y-85278D01*
X241024Y-85318D01*
X240927Y-85354D01*
X240911Y-85366D01*
X240893Y-85374D01*
X240762Y-85479D01*
X237188Y-89053D01*
X231616Y-91361D01*
X225584Y-91361D01*
X220012Y-89053D01*
X216438Y-85479D01*
X216422Y-85467D01*
X216410Y-85452D01*
X216322Y-85395D01*
X216239Y-85335D01*
X216220Y-85329D01*
X216203Y-85319D01*
X216102Y-85293D01*
X216003Y-85263D01*
X215984Y-85263D01*
X215964Y-85259D01*
X215861Y-85267D01*
X215758Y-85269D01*
X215739Y-85276D01*
X215719Y-85278D01*
X215624Y-85318D01*
X215527Y-85354D01*
X215511Y-85366D01*
X215493Y-85374D01*
X215362Y-85479D01*
X211788Y-89053D01*
X206216Y-91361D01*
X200184Y-91361D01*
X194612Y-89053D01*
X191038Y-85479D01*
X191022Y-85467D01*
X191010Y-85452D01*
X190922Y-85395D01*
X190839Y-85335D01*
X190820Y-85329D01*
X190803Y-85319D01*
X190702Y-85293D01*
X190603Y-85263D01*
X190584Y-85263D01*
X190564Y-85259D01*
X190461Y-85267D01*
X190358Y-85269D01*
X190339Y-85276D01*
X190319Y-85278D01*
X190224Y-85318D01*
X190127Y-85354D01*
X190111Y-85366D01*
X190093Y-85374D01*
X189962Y-85479D01*
X186388Y-89053D01*
X181047Y-91265D01*
X180965Y-91316D01*
X180879Y-91362D01*
X180861Y-91381D01*
X180838Y-91394D01*
X180776Y-91469D01*
X180709Y-91540D01*
X180698Y-91564D01*
X180682Y-91584D01*
X180647Y-91675D01*
X180606Y-91763D01*
X180603Y-91789D01*
X180593Y-91813D01*
X180589Y-91911D01*
X180579Y-92007D01*
X180584Y-92033D01*
X180583Y-92059D01*
X180610Y-92153D01*
X180631Y-92248D01*
X180644Y-92270D01*
X180651Y-92295D01*
X180707Y-92375D01*
X180757Y-92459D01*
X180777Y-92476D01*
X180792Y-92497D01*
X180870Y-92556D01*
X180944Y-92619D01*
X180968Y-92629D01*
X180989Y-92644D01*
X181082Y-92674D01*
X181172Y-92711D01*
X181204Y-92714D01*
X181223Y-92720D01*
X181256Y-92720D01*
X181339Y-92729D01*
X192264Y-92729D01*
X195525Y-94080D01*
X204370Y-102925D01*
X205721Y-106186D01*
X205721Y-115328D01*
X205735Y-115418D01*
X205743Y-115509D01*
X205755Y-115539D01*
X205760Y-115571D01*
X205803Y-115652D01*
X205839Y-115735D01*
X205865Y-115768D01*
X205876Y-115788D01*
X205899Y-115810D01*
X205944Y-115866D01*
X206811Y-116733D01*
X207971Y-119534D01*
X207971Y-141866D01*
X206811Y-144667D01*
X204667Y-146811D01*
X201866Y-147971D01*
X195992Y-147971D01*
X195921Y-147982D01*
X195849Y-147984D01*
X195800Y-148002D01*
X195749Y-148010D01*
X195686Y-148044D01*
X195618Y-148069D01*
X195578Y-148101D01*
X195532Y-148126D01*
X195482Y-148178D01*
X195426Y-148222D01*
X195398Y-148266D01*
X195362Y-148304D01*
X195332Y-148369D01*
X195293Y-148429D01*
X195280Y-148480D01*
X195259Y-148527D01*
X195251Y-148598D01*
X195233Y-148668D01*
X195237Y-148720D01*
X195231Y-148771D01*
X195247Y-148842D01*
X195252Y-148913D01*
X195273Y-148961D01*
X195284Y-149012D01*
X195321Y-149073D01*
X195349Y-149139D01*
X195393Y-149195D01*
X195410Y-149223D01*
X195428Y-149238D01*
X195453Y-149270D01*
X206126Y-159943D01*
X206200Y-159996D01*
X206270Y-160056D01*
X206300Y-160068D01*
X206326Y-160087D01*
X206413Y-160114D01*
X206498Y-160148D01*
X206539Y-160152D01*
X206561Y-160159D01*
X206593Y-160158D01*
X206665Y-160166D01*
X219784Y-160166D01*
X219874Y-160152D01*
X219965Y-160144D01*
X219995Y-160132D01*
X220027Y-160127D01*
X220108Y-160084D01*
X220192Y-160048D01*
X220224Y-160022D01*
X220244Y-160011D01*
X220267Y-159988D01*
X220323Y-159943D01*
X231444Y-148822D01*
X231497Y-148748D01*
X231557Y-148678D01*
X231569Y-148648D01*
X231588Y-148622D01*
X231615Y-148535D01*
X231649Y-148450D01*
X231653Y-148409D01*
X231660Y-148387D01*
X231659Y-148355D01*
X231667Y-148283D01*
X231667Y-136832D01*
X231653Y-136742D01*
X231645Y-136651D01*
X231633Y-136622D01*
X231628Y-136590D01*
X231585Y-136509D01*
X231549Y-136425D01*
X231523Y-136393D01*
X231512Y-136372D01*
X231489Y-136350D01*
X231444Y-136294D01*
X227079Y-131929D01*
X224662Y-126094D01*
X224662Y-119778D01*
X227079Y-113943D01*
X231545Y-109477D01*
X237380Y-107060D01*
X243696Y-107060D01*
X249531Y-109477D01*
X253997Y-113943D01*
X255341Y-117188D01*
X255363Y-117224D01*
X255377Y-117264D01*
X255428Y-117328D01*
X255471Y-117397D01*
X255503Y-117424D01*
X255529Y-117458D01*
X255597Y-117502D01*
X255660Y-117554D01*
X255700Y-117569D01*
X255735Y-117593D01*
X255814Y-117613D01*
X255890Y-117642D01*
X255932Y-117644D01*
X255973Y-117655D01*
X256054Y-117649D01*
X256135Y-117653D01*
X256176Y-117641D01*
X256218Y-117638D01*
X256293Y-117607D01*
X256372Y-117584D01*
X256406Y-117560D01*
X256445Y-117544D01*
X256507Y-117490D01*
X256574Y-117444D01*
X256599Y-117410D01*
X256631Y-117382D01*
X256663Y-117334D01*
X256669Y-117326D01*
X257704Y-115903D01*
X258905Y-114702D01*
X260280Y-113703D01*
X261794Y-112931D01*
X263410Y-112406D01*
X264415Y-112247D01*
X264415Y-122174D01*
X264418Y-122194D01*
X264416Y-122213D01*
X264438Y-122315D01*
X264455Y-122417D01*
X264464Y-122434D01*
X264468Y-122454D01*
X264521Y-122543D01*
X264570Y-122634D01*
X264584Y-122648D01*
X264594Y-122665D01*
X264673Y-122732D01*
X264748Y-122803D01*
X264766Y-122812D01*
X264781Y-122825D01*
X264877Y-122863D01*
X264971Y-122907D01*
X264991Y-122909D01*
X265009Y-122917D01*
X265176Y-122935D01*
X265939Y-122935D01*
X265939Y-122937D01*
X265176Y-122937D01*
X265156Y-122940D01*
X265137Y-122938D01*
X265035Y-122960D01*
X264933Y-122977D01*
X264916Y-122986D01*
X264896Y-122990D01*
X264807Y-123043D01*
X264716Y-123092D01*
X264702Y-123106D01*
X264685Y-123116D01*
X264618Y-123195D01*
X264547Y-123270D01*
X264538Y-123288D01*
X264525Y-123303D01*
X264486Y-123399D01*
X264443Y-123493D01*
X264441Y-123513D01*
X264433Y-123531D01*
X264415Y-123698D01*
X264415Y-133625D01*
X263410Y-133466D01*
X261794Y-132941D01*
X260280Y-132169D01*
X258905Y-131170D01*
X257704Y-129969D01*
X256685Y-128568D01*
X256681Y-128557D01*
X256626Y-128497D01*
X256577Y-128432D01*
X256543Y-128407D01*
X256514Y-128376D01*
X256443Y-128337D01*
X256376Y-128290D01*
X256336Y-128278D01*
X256299Y-128258D01*
X256219Y-128243D01*
X256141Y-128220D01*
X256098Y-128221D01*
X256057Y-128214D01*
X255976Y-128226D01*
X255895Y-128229D01*
X255855Y-128243D01*
X255813Y-128250D01*
X255741Y-128287D01*
X255665Y-128315D01*
X255632Y-128342D01*
X255594Y-128361D01*
X255537Y-128419D01*
X255474Y-128471D01*
X255452Y-128507D01*
X255422Y-128537D01*
X255348Y-128671D01*
X255343Y-128679D01*
X255343Y-128681D01*
X255341Y-128684D01*
X253997Y-131929D01*
X249632Y-136294D01*
X249579Y-136368D01*
X249519Y-136437D01*
X249507Y-136468D01*
X249488Y-136494D01*
X249461Y-136581D01*
X249427Y-136666D01*
X249423Y-136707D01*
X249416Y-136729D01*
X249417Y-136761D01*
X249409Y-136832D01*
X249409Y-154037D01*
X248058Y-157298D01*
X228799Y-176557D01*
X225538Y-177908D01*
X200911Y-177908D01*
X197650Y-176557D01*
X176630Y-155537D01*
X175279Y-152276D01*
X175279Y-148732D01*
X175276Y-148712D01*
X175278Y-148693D01*
X175256Y-148591D01*
X175240Y-148489D01*
X175230Y-148472D01*
X175226Y-148452D01*
X175173Y-148363D01*
X175124Y-148272D01*
X175110Y-148258D01*
X175100Y-148241D01*
X175021Y-148174D01*
X174946Y-148102D01*
X174928Y-148094D01*
X174913Y-148081D01*
X174817Y-148042D01*
X174723Y-147999D01*
X174703Y-147997D01*
X174685Y-147989D01*
X174518Y-147971D01*
X166434Y-147971D01*
X165391Y-147539D01*
X165303Y-147518D01*
X165216Y-147490D01*
X165183Y-147490D01*
X165152Y-147483D01*
X165061Y-147491D01*
X164970Y-147492D01*
X164930Y-147504D01*
X164907Y-147506D01*
X164878Y-147519D01*
X164809Y-147539D01*
X163766Y-147971D01*
X153734Y-147971D01*
X152691Y-147539D01*
X152603Y-147518D01*
X152516Y-147490D01*
X152483Y-147490D01*
X152452Y-147483D01*
X152361Y-147491D01*
X152270Y-147492D01*
X152230Y-147504D01*
X152207Y-147506D01*
X152178Y-147519D01*
X152109Y-147539D01*
X151066Y-147971D01*
X141034Y-147971D01*
X139991Y-147539D01*
X139903Y-147518D01*
X139816Y-147490D01*
X139783Y-147490D01*
X139752Y-147483D01*
X139661Y-147491D01*
X139570Y-147492D01*
X139530Y-147504D01*
X139507Y-147506D01*
X139478Y-147519D01*
X139409Y-147539D01*
X138366Y-147971D01*
X128334Y-147971D01*
X127291Y-147539D01*
X127203Y-147518D01*
X127116Y-147490D01*
X127083Y-147490D01*
X127052Y-147483D01*
X126961Y-147491D01*
X126870Y-147492D01*
X126830Y-147504D01*
X126807Y-147506D01*
X126778Y-147519D01*
X126709Y-147539D01*
X125666Y-147971D01*
X115634Y-147971D01*
X114591Y-147539D01*
X114503Y-147518D01*
X114416Y-147490D01*
X114383Y-147490D01*
X114352Y-147483D01*
X114261Y-147491D01*
X114170Y-147492D01*
X114130Y-147504D01*
X114107Y-147506D01*
X114078Y-147519D01*
X114009Y-147539D01*
X112966Y-147971D01*
X102934Y-147971D01*
X100133Y-146811D01*
X97989Y-144667D01*
X96829Y-141866D01*
X96829Y-132440D01*
X96815Y-132350D01*
X96807Y-132259D01*
X96795Y-132229D01*
X96790Y-132197D01*
X96747Y-132116D01*
X96711Y-132032D01*
X96685Y-132000D01*
X96674Y-131980D01*
X96651Y-131957D01*
X96606Y-131901D01*
X82598Y-117893D01*
X81380Y-116675D01*
X80029Y-113414D01*
X80029Y-92122D01*
X80026Y-92102D01*
X80028Y-92083D01*
X80006Y-91981D01*
X79990Y-91879D01*
X79980Y-91862D01*
X79976Y-91842D01*
X79923Y-91753D01*
X79874Y-91662D01*
X79860Y-91648D01*
X79850Y-91631D01*
X79771Y-91564D01*
X79696Y-91492D01*
X79678Y-91484D01*
X79663Y-91471D01*
X79567Y-91432D01*
X79473Y-91389D01*
X79453Y-91387D01*
X79435Y-91379D01*
X79268Y-91361D01*
X69920Y-91361D01*
X64038Y-85479D01*
X64022Y-85467D01*
X64010Y-85452D01*
X63922Y-85395D01*
X63839Y-85335D01*
X63820Y-85329D01*
X63803Y-85319D01*
X63702Y-85293D01*
X63603Y-85263D01*
X63584Y-85263D01*
X63564Y-85259D01*
X63461Y-85267D01*
X63358Y-85269D01*
X63339Y-85276D01*
X63319Y-85278D01*
X63224Y-85318D01*
X63127Y-85354D01*
X63111Y-85366D01*
X63093Y-85374D01*
X62962Y-85479D01*
X59894Y-88547D01*
X59841Y-88621D01*
X59781Y-88690D01*
X59769Y-88720D01*
X59750Y-88747D01*
X59723Y-88834D01*
X59689Y-88918D01*
X59685Y-88959D01*
X59678Y-88982D01*
X59679Y-89014D01*
X59671Y-89085D01*
X59671Y-110310D01*
X59685Y-110400D01*
X59693Y-110491D01*
X59705Y-110521D01*
X59710Y-110553D01*
X59753Y-110634D01*
X59789Y-110718D01*
X59815Y-110750D01*
X59826Y-110770D01*
X59849Y-110793D01*
X59894Y-110849D01*
X105051Y-156006D01*
X105125Y-156059D01*
X105195Y-156119D01*
X105225Y-156131D01*
X105251Y-156150D01*
X105338Y-156177D01*
X105423Y-156211D01*
X105464Y-156215D01*
X105486Y-156222D01*
X105518Y-156221D01*
X105590Y-156229D01*
X166864Y-156229D01*
X170125Y-157580D01*
X204370Y-191825D01*
X205721Y-195086D01*
X205721Y-209528D01*
X205735Y-209618D01*
X205743Y-209709D01*
X205755Y-209739D01*
X205760Y-209771D01*
X205803Y-209852D01*
X205839Y-209935D01*
X205865Y-209968D01*
X205876Y-209988D01*
X205899Y-210010D01*
X205944Y-210066D01*
X206811Y-210933D01*
X207971Y-213734D01*
X207971Y-236066D01*
X206811Y-238867D01*
X204667Y-241011D01*
X201866Y-242171D01*
X191834Y-242171D01*
X190791Y-241739D01*
X190702Y-241718D01*
X190616Y-241690D01*
X190583Y-241690D01*
X190552Y-241683D01*
X190461Y-241691D01*
X190370Y-241692D01*
X190330Y-241704D01*
X190307Y-241706D01*
X190278Y-241719D01*
X190209Y-241739D01*
X189166Y-242171D01*
X179134Y-242171D01*
X178091Y-241739D01*
X178002Y-241718D01*
X177916Y-241690D01*
X177883Y-241690D01*
X177852Y-241683D01*
X177761Y-241691D01*
X177670Y-241692D01*
X177630Y-241704D01*
X177607Y-241706D01*
X177578Y-241719D01*
X177509Y-241739D01*
X176466Y-242171D01*
X166434Y-242171D01*
X165391Y-241739D01*
X165302Y-241718D01*
X165216Y-241690D01*
X165183Y-241690D01*
X165152Y-241683D01*
X165061Y-241691D01*
X164970Y-241692D01*
X164930Y-241704D01*
X164907Y-241706D01*
X164878Y-241719D01*
X164809Y-241739D01*
X163766Y-242171D01*
X153734Y-242171D01*
X152691Y-241739D01*
X152602Y-241718D01*
X152516Y-241690D01*
X152483Y-241690D01*
X152452Y-241683D01*
X152361Y-241691D01*
X152270Y-241692D01*
X152230Y-241704D01*
X152207Y-241706D01*
X152178Y-241719D01*
X152109Y-241739D01*
X151066Y-242171D01*
X141034Y-242171D01*
X138233Y-241011D01*
X136089Y-238867D01*
X135548Y-237561D01*
X135487Y-237461D01*
X135427Y-237361D01*
X135422Y-237357D01*
X135419Y-237352D01*
X135329Y-237277D01*
X135240Y-237201D01*
X135234Y-237199D01*
X135229Y-237195D01*
X135121Y-237153D01*
X135012Y-237109D01*
X135004Y-237108D01*
X135000Y-237107D01*
X134981Y-237106D01*
X134873Y-237094D01*
X134873Y-225662D01*
X134870Y-225642D01*
X134872Y-225623D01*
X134850Y-225521D01*
X134833Y-225419D01*
X134824Y-225402D01*
X134820Y-225382D01*
X134767Y-225293D01*
X134718Y-225202D01*
X134704Y-225188D01*
X134694Y-225171D01*
X134615Y-225104D01*
X134540Y-225033D01*
X134522Y-225024D01*
X134507Y-225011D01*
X134411Y-224972D01*
X134317Y-224929D01*
X134297Y-224927D01*
X134279Y-224919D01*
X134112Y-224901D01*
X133349Y-224901D01*
X133349Y-224899D01*
X134112Y-224899D01*
X134132Y-224896D01*
X134151Y-224898D01*
X134253Y-224876D01*
X134355Y-224859D01*
X134372Y-224850D01*
X134392Y-224846D01*
X134481Y-224793D01*
X134572Y-224744D01*
X134586Y-224730D01*
X134603Y-224720D01*
X134670Y-224641D01*
X134741Y-224566D01*
X134750Y-224548D01*
X134763Y-224533D01*
X134802Y-224437D01*
X134845Y-224343D01*
X134847Y-224323D01*
X134855Y-224305D01*
X134873Y-224138D01*
X134873Y-212705D01*
X134960Y-212690D01*
X135076Y-212673D01*
X135082Y-212671D01*
X135088Y-212670D01*
X135191Y-212615D01*
X135295Y-212562D01*
X135300Y-212557D01*
X135305Y-212554D01*
X135385Y-212470D01*
X135468Y-212386D01*
X135471Y-212380D01*
X135475Y-212376D01*
X135482Y-212359D01*
X135548Y-212239D01*
X136089Y-210933D01*
X138233Y-208789D01*
X141034Y-207629D01*
X151066Y-207629D01*
X152109Y-208061D01*
X152197Y-208082D01*
X152284Y-208110D01*
X152317Y-208110D01*
X152348Y-208117D01*
X152439Y-208109D01*
X152530Y-208108D01*
X152570Y-208096D01*
X152593Y-208094D01*
X152622Y-208081D01*
X152691Y-208061D01*
X153734Y-207629D01*
X163766Y-207629D01*
X164809Y-208061D01*
X164897Y-208082D01*
X164984Y-208110D01*
X165017Y-208110D01*
X165048Y-208117D01*
X165139Y-208109D01*
X165230Y-208108D01*
X165270Y-208096D01*
X165293Y-208094D01*
X165322Y-208081D01*
X165391Y-208061D01*
X166434Y-207629D01*
X167846Y-207629D01*
X167917Y-207618D01*
X167989Y-207616D01*
X168038Y-207598D01*
X168089Y-207590D01*
X168152Y-207556D01*
X168220Y-207531D01*
X168260Y-207499D01*
X168306Y-207474D01*
X168356Y-207422D01*
X168412Y-207378D01*
X168440Y-207334D01*
X168476Y-207296D01*
X168506Y-207231D01*
X168545Y-207171D01*
X168558Y-207120D01*
X168579Y-207073D01*
X168587Y-207002D01*
X168605Y-206932D01*
X168601Y-206880D01*
X168607Y-206829D01*
X168591Y-206758D01*
X168586Y-206687D01*
X168565Y-206639D01*
X168554Y-206588D01*
X168517Y-206527D01*
X168489Y-206461D01*
X168445Y-206405D01*
X168428Y-206377D01*
X168410Y-206362D01*
X168385Y-206330D01*
X161649Y-199594D01*
X161575Y-199541D01*
X161505Y-199481D01*
X161475Y-199469D01*
X161449Y-199450D01*
X161362Y-199423D01*
X161277Y-199389D01*
X161236Y-199385D01*
X161214Y-199378D01*
X161182Y-199379D01*
X161110Y-199371D01*
X99836Y-199371D01*
X96575Y-198020D01*
X-4918Y-96527D01*
X-7520Y-93925D01*
X-8871Y-90664D01*
X-8871Y-89085D01*
X-8885Y-88995D01*
X-8893Y-88904D01*
X-8905Y-88874D01*
X-8910Y-88842D01*
X-8953Y-88762D01*
X-8989Y-88678D01*
X-9015Y-88646D01*
X-9026Y-88625D01*
X-9049Y-88603D01*
X-9094Y-88547D01*
X-12162Y-85479D01*
X-12178Y-85467D01*
X-12190Y-85452D01*
X-12278Y-85395D01*
X-12361Y-85335D01*
X-12380Y-85329D01*
X-12397Y-85319D01*
X-12498Y-85293D01*
X-12597Y-85263D01*
X-12616Y-85263D01*
X-12636Y-85259D01*
X-12739Y-85267D01*
X-12842Y-85269D01*
X-12861Y-85276D01*
X-12881Y-85278D01*
X-12976Y-85318D01*
X-13073Y-85354D01*
X-13089Y-85366D01*
X-13107Y-85374D01*
X-13238Y-85479D01*
X-16812Y-89053D01*
X-22384Y-91361D01*
X-28416Y-91361D01*
X-33988Y-89053D01*
X-37562Y-85479D01*
X-37578Y-85467D01*
X-37590Y-85452D01*
X-37678Y-85395D01*
X-37761Y-85335D01*
X-37780Y-85329D01*
X-37797Y-85319D01*
X-37898Y-85293D01*
X-37997Y-85263D01*
X-38016Y-85263D01*
X-38036Y-85259D01*
X-38139Y-85267D01*
X-38242Y-85269D01*
X-38261Y-85276D01*
X-38281Y-85278D01*
X-38376Y-85318D01*
X-38473Y-85354D01*
X-38489Y-85366D01*
X-38507Y-85374D01*
X-38638Y-85479D01*
X-42212Y-89053D01*
X-47784Y-91361D01*
X-53816Y-91361D01*
X-59388Y-89053D01*
X-62962Y-85479D01*
X-62978Y-85467D01*
X-62990Y-85452D01*
X-63078Y-85395D01*
X-63161Y-85335D01*
X-63180Y-85329D01*
X-63197Y-85319D01*
X-63298Y-85293D01*
X-63397Y-85263D01*
X-63416Y-85263D01*
X-63436Y-85259D01*
X-63539Y-85267D01*
X-63642Y-85269D01*
X-63661Y-85276D01*
X-63681Y-85278D01*
X-63776Y-85318D01*
X-63873Y-85354D01*
X-63889Y-85366D01*
X-63907Y-85374D01*
X-64038Y-85479D01*
X-67612Y-89053D01*
X-73184Y-91361D01*
X-79216Y-91361D01*
X-84788Y-89053D01*
X-88362Y-85479D01*
X-88378Y-85467D01*
X-88390Y-85452D01*
X-88478Y-85395D01*
X-88561Y-85335D01*
X-88580Y-85329D01*
X-88597Y-85319D01*
X-88698Y-85293D01*
X-88797Y-85263D01*
X-88816Y-85263D01*
X-88836Y-85259D01*
X-88939Y-85267D01*
X-89042Y-85269D01*
X-89061Y-85276D01*
X-89081Y-85278D01*
X-89176Y-85318D01*
X-89273Y-85354D01*
X-89289Y-85366D01*
X-89307Y-85374D01*
X-89438Y-85479D01*
X-93012Y-89053D01*
X-98584Y-91361D01*
X-104616Y-91361D01*
X-110188Y-89053D01*
X-113762Y-85479D01*
X-113778Y-85467D01*
X-113790Y-85452D01*
X-113878Y-85395D01*
X-113961Y-85335D01*
X-113980Y-85329D01*
X-113997Y-85319D01*
X-114098Y-85293D01*
X-114197Y-85263D01*
X-114216Y-85263D01*
X-114236Y-85259D01*
X-114339Y-85267D01*
X-114442Y-85269D01*
X-114461Y-85276D01*
X-114481Y-85278D01*
X-114576Y-85318D01*
X-114673Y-85354D01*
X-114689Y-85366D01*
X-114707Y-85374D01*
X-114838Y-85479D01*
X-118412Y-89053D01*
X-123984Y-91361D01*
X-130016Y-91361D01*
X-135588Y-89053D01*
X-139162Y-85479D01*
X-139178Y-85467D01*
X-139190Y-85452D01*
X-139278Y-85395D01*
X-139361Y-85335D01*
X-139380Y-85329D01*
X-139397Y-85319D01*
X-139498Y-85293D01*
X-139597Y-85263D01*
X-139616Y-85263D01*
X-139636Y-85259D01*
X-139739Y-85267D01*
X-139842Y-85269D01*
X-139861Y-85276D01*
X-139881Y-85278D01*
X-139976Y-85318D01*
X-140073Y-85354D01*
X-140089Y-85366D01*
X-140107Y-85374D01*
X-140238Y-85479D01*
X-143812Y-89053D01*
X-149384Y-91361D01*
X-155416Y-91361D01*
X-160988Y-89053D01*
X-164562Y-85479D01*
X-164578Y-85467D01*
X-164590Y-85452D01*
X-164678Y-85395D01*
X-164761Y-85335D01*
X-164780Y-85329D01*
X-164797Y-85319D01*
X-164898Y-85293D01*
X-164997Y-85263D01*
X-165016Y-85263D01*
X-165036Y-85259D01*
X-165139Y-85267D01*
X-165242Y-85269D01*
X-165261Y-85276D01*
X-165281Y-85278D01*
X-165376Y-85318D01*
X-165473Y-85354D01*
X-165489Y-85366D01*
X-165507Y-85374D01*
X-165638Y-85479D01*
X-169212Y-89053D01*
X-174784Y-91361D01*
X-180816Y-91361D01*
X-186388Y-89053D01*
X-189962Y-85479D01*
X-189978Y-85467D01*
X-189990Y-85452D01*
X-190078Y-85395D01*
X-190161Y-85335D01*
X-190180Y-85329D01*
X-190197Y-85319D01*
X-190298Y-85293D01*
X-190397Y-85263D01*
X-190416Y-85263D01*
X-190436Y-85259D01*
X-190539Y-85267D01*
X-190642Y-85269D01*
X-190661Y-85276D01*
X-190681Y-85278D01*
X-190776Y-85318D01*
X-190873Y-85354D01*
X-190889Y-85366D01*
X-190907Y-85374D01*
X-191038Y-85479D01*
X-194612Y-89053D01*
X-200184Y-91361D01*
X-206216Y-91361D01*
X-211788Y-89053D01*
X-215362Y-85479D01*
X-215378Y-85467D01*
X-215390Y-85452D01*
X-215478Y-85395D01*
X-215561Y-85335D01*
X-215580Y-85329D01*
X-215597Y-85319D01*
X-215698Y-85293D01*
X-215797Y-85263D01*
X-215816Y-85263D01*
X-215836Y-85259D01*
X-215939Y-85267D01*
X-216042Y-85269D01*
X-216061Y-85276D01*
X-216081Y-85278D01*
X-216176Y-85318D01*
X-216273Y-85354D01*
X-216289Y-85366D01*
X-216307Y-85374D01*
X-216438Y-85479D01*
X-220012Y-89053D01*
X-225584Y-91361D01*
X-231616Y-91361D01*
X-237188Y-89053D01*
X-240762Y-85479D01*
X-240778Y-85467D01*
X-240790Y-85452D01*
X-240878Y-85395D01*
X-240961Y-85335D01*
X-240980Y-85329D01*
X-240997Y-85319D01*
X-241098Y-85293D01*
X-241197Y-85263D01*
X-241216Y-85263D01*
X-241236Y-85259D01*
X-241339Y-85267D01*
X-241442Y-85269D01*
X-241461Y-85276D01*
X-241481Y-85278D01*
X-241576Y-85318D01*
X-241673Y-85354D01*
X-241689Y-85366D01*
X-241707Y-85374D01*
X-241838Y-85479D01*
X-245412Y-89053D01*
X-250984Y-91361D01*
X-257016Y-91361D01*
X-262588Y-89053D01*
X-264062Y-87578D01*
X-264099Y-87552D01*
X-264130Y-87518D01*
X-264199Y-87480D01*
X-264262Y-87435D01*
X-264306Y-87421D01*
X-264346Y-87399D01*
X-264423Y-87385D01*
X-264497Y-87363D01*
X-264543Y-87364D01*
X-264588Y-87356D01*
X-264665Y-87367D01*
X-264743Y-87369D01*
X-264786Y-87385D01*
X-264831Y-87391D01*
X-264901Y-87427D01*
X-264974Y-87453D01*
X-265010Y-87482D01*
X-265051Y-87503D01*
X-265105Y-87558D01*
X-265166Y-87607D01*
X-265191Y-87646D01*
X-265223Y-87678D01*
X-265289Y-87798D01*
X-265299Y-87814D01*
X-265300Y-87819D01*
X-265304Y-87825D01*
X-265399Y-88057D01*
X-267543Y-90201D01*
X-270344Y-91361D01*
X-288456Y-91361D01*
X-291257Y-90201D01*
X-293401Y-88057D01*
X-294561Y-85256D01*
X-294561Y-67144D01*
X-293401Y-64343D01*
X-291257Y-62199D01*
X-288456Y-61039D01*
X-270344Y-61039D01*
X-267543Y-62199D01*
X-265399Y-64343D01*
X-265304Y-64575D01*
X-265279Y-64614D01*
X-265264Y-64657D01*
X-265215Y-64717D01*
X-265174Y-64784D01*
X-265139Y-64813D01*
X-265110Y-64849D01*
X-265045Y-64891D01*
X-264985Y-64940D01*
X-264942Y-64957D01*
X-264903Y-64982D01*
X-264828Y-65001D01*
X-264755Y-65029D01*
X-264709Y-65031D01*
X-264665Y-65042D01*
X-264587Y-65036D01*
X-264509Y-65039D01*
X-264465Y-65026D01*
X-264419Y-65023D01*
X-264348Y-64992D01*
X-264273Y-64971D01*
X-264235Y-64944D01*
X-264193Y-64926D01*
X-264086Y-64841D01*
X-264071Y-64830D01*
X-264068Y-64826D01*
X-264062Y-64822D01*
X-262588Y-63347D01*
X-257016Y-61039D01*
X-250984Y-61039D01*
X-245412Y-63347D01*
X-241838Y-66921D01*
X-241822Y-66933D01*
X-241810Y-66948D01*
X-241722Y-67004D01*
X-241639Y-67065D01*
X-241620Y-67071D01*
X-241603Y-67081D01*
X-241502Y-67107D01*
X-241403Y-67137D01*
X-241384Y-67137D01*
X-241364Y-67141D01*
X-241261Y-67133D01*
X-241158Y-67131D01*
X-241139Y-67124D01*
X-241119Y-67122D01*
X-241024Y-67082D01*
X-240927Y-67046D01*
X-240911Y-67034D01*
X-240893Y-67026D01*
X-240762Y-66921D01*
X-237188Y-63347D01*
X-231616Y-61039D01*
X-225584Y-61039D01*
X-220012Y-63347D01*
X-216438Y-66921D01*
X-216422Y-66933D01*
X-216410Y-66948D01*
X-216322Y-67004D01*
X-216239Y-67065D01*
X-216220Y-67071D01*
X-216203Y-67081D01*
X-216102Y-67107D01*
X-216003Y-67137D01*
X-215984Y-67137D01*
X-215964Y-67141D01*
X-215861Y-67133D01*
X-215758Y-67131D01*
X-215739Y-67124D01*
X-215719Y-67122D01*
X-215624Y-67082D01*
X-215527Y-67046D01*
X-215511Y-67034D01*
X-215493Y-67026D01*
X-215362Y-66921D01*
X-211788Y-63347D01*
X-206216Y-61039D01*
X-200184Y-61039D01*
X-194612Y-63347D01*
X-191038Y-66921D01*
X-191022Y-66933D01*
X-191010Y-66948D01*
X-190922Y-67004D01*
X-190839Y-67065D01*
X-190820Y-67071D01*
X-190803Y-67081D01*
X-190702Y-67107D01*
X-190603Y-67137D01*
X-190584Y-67137D01*
X-190564Y-67141D01*
X-190461Y-67133D01*
X-190358Y-67131D01*
X-190339Y-67124D01*
X-190319Y-67122D01*
X-190224Y-67082D01*
X-190127Y-67046D01*
X-190111Y-67034D01*
X-190093Y-67026D01*
X-189962Y-66921D01*
X-186388Y-63347D01*
X-180816Y-61039D01*
X-174784Y-61039D01*
X-169212Y-63347D01*
X-165638Y-66921D01*
X-165622Y-66933D01*
X-165610Y-66948D01*
X-165522Y-67004D01*
X-165439Y-67065D01*
X-165420Y-67071D01*
X-165403Y-67081D01*
X-165302Y-67107D01*
X-165203Y-67137D01*
X-165184Y-67137D01*
X-165164Y-67141D01*
X-165061Y-67133D01*
X-164958Y-67131D01*
X-164939Y-67124D01*
X-164919Y-67122D01*
X-164824Y-67082D01*
X-164727Y-67046D01*
X-164711Y-67034D01*
X-164693Y-67026D01*
X-164562Y-66921D01*
X-160988Y-63347D01*
X-155416Y-61039D01*
X-149384Y-61039D01*
X-143812Y-63347D01*
X-140238Y-66921D01*
X-140222Y-66933D01*
X-140210Y-66948D01*
X-140122Y-67004D01*
X-140039Y-67065D01*
X-140020Y-67071D01*
X-140003Y-67081D01*
X-139902Y-67107D01*
X-139803Y-67137D01*
X-139784Y-67137D01*
X-139764Y-67141D01*
X-139661Y-67133D01*
X-139558Y-67131D01*
X-139539Y-67124D01*
X-139519Y-67122D01*
X-139424Y-67082D01*
X-139327Y-67046D01*
X-139311Y-67034D01*
X-139293Y-67026D01*
X-139162Y-66921D01*
X-135588Y-63347D01*
X-130016Y-61039D01*
X-123984Y-61039D01*
X-118412Y-63347D01*
X-114838Y-66921D01*
X-114822Y-66933D01*
X-114810Y-66948D01*
X-114722Y-67004D01*
X-114639Y-67065D01*
X-114620Y-67071D01*
X-114603Y-67081D01*
X-114502Y-67107D01*
X-114403Y-67137D01*
X-114384Y-67137D01*
X-114364Y-67141D01*
X-114261Y-67133D01*
X-114158Y-67131D01*
X-114139Y-67124D01*
X-114119Y-67122D01*
X-114024Y-67082D01*
X-113927Y-67046D01*
X-113911Y-67034D01*
X-113893Y-67026D01*
X-113762Y-66921D01*
X-110188Y-63347D01*
X-104616Y-61039D01*
X-98584Y-61039D01*
X-93012Y-63347D01*
X-89438Y-66921D01*
X-89422Y-66933D01*
X-89410Y-66948D01*
X-89322Y-67004D01*
X-89239Y-67065D01*
X-89220Y-67071D01*
X-89203Y-67081D01*
X-89102Y-67107D01*
X-89003Y-67137D01*
X-88984Y-67137D01*
X-88964Y-67141D01*
X-88861Y-67133D01*
X-88758Y-67131D01*
X-88739Y-67124D01*
X-88719Y-67122D01*
X-88624Y-67082D01*
X-88527Y-67046D01*
X-88511Y-67034D01*
X-88493Y-67026D01*
X-88362Y-66921D01*
X-84788Y-63347D01*
X-79216Y-61039D01*
X-73184Y-61039D01*
X-67612Y-63347D01*
X-64038Y-66921D01*
X-64022Y-66933D01*
X-64010Y-66948D01*
X-63922Y-67004D01*
X-63839Y-67065D01*
X-63820Y-67071D01*
X-63803Y-67081D01*
X-63702Y-67107D01*
X-63603Y-67137D01*
X-63584Y-67137D01*
X-63564Y-67141D01*
X-63461Y-67133D01*
X-63358Y-67131D01*
X-63339Y-67124D01*
X-63319Y-67122D01*
X-63224Y-67082D01*
X-63127Y-67046D01*
X-63111Y-67034D01*
X-63093Y-67026D01*
X-62962Y-66921D01*
X-59388Y-63347D01*
X-53816Y-61039D01*
X-47784Y-61039D01*
X-42212Y-63347D01*
X-38638Y-66921D01*
X-38622Y-66933D01*
X-38610Y-66948D01*
X-38522Y-67004D01*
X-38439Y-67065D01*
X-38420Y-67071D01*
X-38403Y-67081D01*
X-38302Y-67107D01*
X-38203Y-67137D01*
X-38184Y-67137D01*
X-38164Y-67141D01*
X-38061Y-67133D01*
X-37958Y-67131D01*
X-37939Y-67124D01*
X-37919Y-67122D01*
X-37824Y-67082D01*
X-37727Y-67046D01*
X-37711Y-67034D01*
X-37693Y-67026D01*
X-37562Y-66921D01*
X-33988Y-63347D01*
X-28416Y-61039D01*
X-22384Y-61039D01*
X-16812Y-63347D01*
X-13238Y-66921D01*
X-13222Y-66933D01*
X-13210Y-66948D01*
X-13122Y-67004D01*
X-13039Y-67065D01*
X-13020Y-67071D01*
X-13003Y-67081D01*
X-12902Y-67107D01*
X-12803Y-67137D01*
X-12784Y-67137D01*
X-12764Y-67141D01*
X-12661Y-67133D01*
X-12558Y-67131D01*
X-12539Y-67124D01*
X-12519Y-67122D01*
X-12424Y-67082D01*
X-12327Y-67046D01*
X-12311Y-67034D01*
X-12293Y-67026D01*
X-12162Y-66921D01*
X-8588Y-63347D01*
X-3016Y-61039D01*
X3016Y-61039D01*
X8588Y-63347D01*
X12162Y-66921D01*
X12178Y-66933D01*
X12190Y-66948D01*
X12278Y-67004D01*
X12361Y-67065D01*
X12380Y-67071D01*
X12397Y-67081D01*
X12498Y-67107D01*
X12597Y-67137D01*
X12616Y-67137D01*
X12636Y-67141D01*
X12739Y-67133D01*
X12842Y-67131D01*
X12861Y-67124D01*
X12881Y-67122D01*
X12976Y-67082D01*
X13073Y-67046D01*
X13089Y-67034D01*
X13107Y-67026D01*
X13238Y-66921D01*
X16812Y-63347D01*
X22384Y-61039D01*
X28416Y-61039D01*
X33988Y-63347D01*
X37562Y-66921D01*
X37578Y-66933D01*
X37590Y-66948D01*
X37678Y-67005D01*
X37761Y-67065D01*
X37780Y-67071D01*
X37797Y-67081D01*
X37898Y-67107D01*
X37997Y-67137D01*
X38016Y-67137D01*
X38036Y-67141D01*
X38139Y-67133D01*
X38242Y-67131D01*
X38261Y-67124D01*
X38281Y-67122D01*
X38376Y-67082D01*
X38473Y-67046D01*
X38489Y-67034D01*
X38507Y-67026D01*
X38638Y-66921D01*
X42212Y-63347D01*
X47784Y-61039D01*
X53816Y-61039D01*
X59388Y-63347D01*
X62962Y-66921D01*
X62978Y-66933D01*
X62990Y-66948D01*
X63078Y-67004D01*
X63161Y-67065D01*
X63180Y-67071D01*
X63197Y-67081D01*
X63298Y-67107D01*
X63397Y-67137D01*
X63416Y-67137D01*
X63436Y-67141D01*
X63539Y-67133D01*
X63642Y-67131D01*
X63661Y-67124D01*
X63681Y-67122D01*
X63776Y-67082D01*
X63873Y-67046D01*
X63889Y-67034D01*
X63907Y-67026D01*
X64038Y-66921D01*
X69920Y-61039D01*
X79268Y-61039D01*
X79288Y-61036D01*
X79307Y-61038D01*
X79409Y-61016D01*
X79511Y-61000D01*
X79528Y-60990D01*
X79548Y-60986D01*
X79637Y-60933D01*
X79728Y-60884D01*
X79742Y-60870D01*
X79759Y-60860D01*
X79826Y-60781D01*
X79898Y-60706D01*
X79906Y-60688D01*
X79919Y-60673D01*
X79958Y-60577D01*
X80001Y-60483D01*
X80003Y-60463D01*
X80011Y-60445D01*
X80029Y-60278D01*
X80029Y-16690D01*
X80015Y-16600D01*
X80007Y-16509D01*
X79995Y-16479D01*
X79990Y-16447D01*
X79947Y-16366D01*
X79911Y-16282D01*
X79885Y-16250D01*
X79874Y-16230D01*
X79851Y-16207D01*
X79806Y-16151D01*
X45882Y17773D01*
X43280Y20375D01*
X41929Y23636D01*
X41929Y63315D01*
X41915Y63405D01*
X41907Y63496D01*
X41895Y63526D01*
X41890Y63558D01*
X41847Y63638D01*
X41811Y63722D01*
X41785Y63754D01*
X41774Y63775D01*
X41751Y63797D01*
X41706Y63853D01*
X38638Y66921D01*
X38622Y66933D01*
X38610Y66948D01*
X38522Y67004D01*
X38439Y67065D01*
X38420Y67071D01*
X38403Y67081D01*
X38302Y67107D01*
X38203Y67137D01*
X38184Y67137D01*
X38164Y67141D01*
X38061Y67133D01*
X37958Y67131D01*
X37939Y67124D01*
X37919Y67122D01*
X37824Y67082D01*
X37727Y67046D01*
X37711Y67034D01*
X37693Y67026D01*
X37562Y66921D01*
X33988Y63347D01*
X28416Y61039D01*
X22384Y61039D01*
X16812Y63347D01*
X13238Y66921D01*
X13222Y66933D01*
X13210Y66948D01*
X13122Y67004D01*
X13039Y67065D01*
X13020Y67071D01*
X13003Y67081D01*
X12902Y67107D01*
X12803Y67137D01*
X12784Y67137D01*
X12764Y67141D01*
X12661Y67133D01*
X12558Y67131D01*
X12539Y67124D01*
X12519Y67122D01*
X12424Y67082D01*
X12327Y67046D01*
X12311Y67034D01*
X12293Y67026D01*
X12162Y66921D01*
X8588Y63347D01*
X3016Y61039D01*
X-3016Y61039D01*
X-8588Y63347D01*
X-12162Y66921D01*
X-12178Y66933D01*
X-12190Y66948D01*
X-12278Y67004D01*
X-12361Y67065D01*
X-12380Y67071D01*
X-12397Y67081D01*
X-12498Y67107D01*
X-12597Y67137D01*
X-12616Y67137D01*
X-12636Y67141D01*
X-12739Y67133D01*
X-12842Y67131D01*
X-12861Y67124D01*
X-12881Y67122D01*
X-12976Y67082D01*
X-13073Y67046D01*
X-13089Y67034D01*
X-13107Y67026D01*
X-13238Y66921D01*
X-16812Y63347D01*
X-22384Y61039D01*
X-28416Y61039D01*
X-33988Y63347D01*
X-37562Y66921D01*
X-37578Y66933D01*
X-37590Y66948D01*
X-37678Y67004D01*
X-37761Y67065D01*
X-37780Y67071D01*
X-37797Y67081D01*
X-37898Y67107D01*
X-37997Y67137D01*
X-38016Y67137D01*
X-38036Y67141D01*
X-38139Y67133D01*
X-38242Y67131D01*
X-38261Y67124D01*
X-38281Y67122D01*
X-38376Y67082D01*
X-38473Y67046D01*
X-38489Y67034D01*
X-38507Y67026D01*
X-38638Y66921D01*
X-42212Y63347D01*
X-47784Y61039D01*
X-53816Y61039D01*
X-59388Y63347D01*
X-62962Y66921D01*
X-62978Y66933D01*
X-62990Y66948D01*
X-63078Y67004D01*
X-63161Y67065D01*
X-63180Y67071D01*
X-63197Y67081D01*
X-63298Y67107D01*
X-63397Y67137D01*
X-63416Y67137D01*
X-63436Y67141D01*
X-63539Y67133D01*
X-63642Y67131D01*
X-63661Y67124D01*
X-63681Y67122D01*
X-63776Y67082D01*
X-63873Y67046D01*
X-63889Y67034D01*
X-63907Y67026D01*
X-64038Y66921D01*
X-67612Y63347D01*
X-73184Y61039D01*
X-79216Y61039D01*
X-84788Y63347D01*
X-88362Y66921D01*
X-88378Y66933D01*
X-88390Y66948D01*
X-88478Y67004D01*
X-88561Y67065D01*
X-88580Y67071D01*
X-88597Y67081D01*
X-88698Y67107D01*
X-88797Y67137D01*
X-88816Y67137D01*
X-88836Y67141D01*
X-88939Y67133D01*
X-89042Y67131D01*
X-89061Y67124D01*
X-89081Y67122D01*
X-89176Y67082D01*
X-89273Y67046D01*
X-89289Y67034D01*
X-89307Y67026D01*
X-89438Y66921D01*
X-93012Y63347D01*
X-98584Y61039D01*
X-104616Y61039D01*
X-110188Y63347D01*
X-113762Y66921D01*
X-113778Y66933D01*
X-113790Y66948D01*
X-113878Y67004D01*
X-113961Y67065D01*
X-113980Y67071D01*
X-113997Y67081D01*
X-114098Y67107D01*
X-114197Y67137D01*
X-114216Y67137D01*
X-114236Y67141D01*
X-114339Y67133D01*
X-114442Y67131D01*
X-114461Y67124D01*
X-114481Y67122D01*
X-114576Y67082D01*
X-114673Y67046D01*
X-114689Y67034D01*
X-114707Y67026D01*
X-114838Y66921D01*
X-118412Y63347D01*
X-123984Y61039D01*
X-130016Y61039D01*
X-135588Y63347D01*
X-139162Y66921D01*
X-139178Y66933D01*
X-139190Y66948D01*
X-139278Y67004D01*
X-139361Y67065D01*
X-139380Y67071D01*
X-139397Y67081D01*
X-139498Y67107D01*
X-139597Y67137D01*
X-139616Y67137D01*
X-139636Y67141D01*
X-139739Y67133D01*
X-139842Y67131D01*
X-139861Y67124D01*
X-139881Y67122D01*
X-139976Y67082D01*
X-140073Y67046D01*
X-140089Y67034D01*
X-140107Y67026D01*
X-140238Y66921D01*
X-143812Y63347D01*
X-149384Y61039D01*
X-155416Y61039D01*
X-160988Y63347D01*
X-164562Y66921D01*
X-164578Y66933D01*
X-164590Y66948D01*
X-164678Y67004D01*
X-164761Y67065D01*
X-164780Y67071D01*
X-164797Y67081D01*
X-164898Y67107D01*
X-164997Y67137D01*
X-165016Y67137D01*
X-165036Y67141D01*
X-165139Y67133D01*
X-165242Y67131D01*
X-165261Y67124D01*
X-165281Y67122D01*
X-165376Y67082D01*
X-165473Y67046D01*
X-165489Y67034D01*
X-165507Y67026D01*
X-165638Y66921D01*
X-169212Y63347D01*
X-174784Y61039D01*
X-180816Y61039D01*
X-186388Y63347D01*
X-189962Y66921D01*
X-189978Y66933D01*
X-189990Y66948D01*
X-190078Y67004D01*
X-190161Y67065D01*
X-190180Y67071D01*
X-190197Y67081D01*
X-190298Y67107D01*
X-190397Y67137D01*
X-190416Y67137D01*
X-190436Y67141D01*
X-190539Y67133D01*
X-190642Y67131D01*
X-190661Y67124D01*
X-190681Y67122D01*
X-190776Y67082D01*
X-190873Y67046D01*
X-190889Y67034D01*
X-190907Y67026D01*
X-191038Y66921D01*
X-194612Y63347D01*
X-200184Y61039D01*
X-206216Y61039D01*
X-211788Y63347D01*
X-216053Y67612D01*
X-217631Y71424D01*
X-217656Y71463D01*
X-217671Y71506D01*
X-217720Y71567D01*
X-217761Y71633D01*
X-217796Y71662D01*
X-217825Y71698D01*
X-217891Y71740D01*
X-217951Y71790D01*
X-217993Y71806D01*
X-218032Y71831D01*
X-218108Y71850D01*
X-218180Y71878D01*
X-218226Y71880D01*
X-218271Y71891D01*
X-218348Y71885D01*
X-218426Y71888D01*
X-218470Y71875D01*
X-218516Y71872D01*
X-218587Y71841D01*
X-218662Y71820D01*
X-218700Y71793D01*
X-218742Y71775D01*
X-218849Y71690D01*
X-218864Y71679D01*
X-218867Y71675D01*
X-218873Y71671D01*
X-224424Y66119D01*
X-227077Y66119D01*
X-227077Y75438D01*
X-227080Y75458D01*
X-227078Y75477D01*
X-227100Y75579D01*
X-227117Y75681D01*
X-227126Y75698D01*
X-227130Y75718D01*
X-227183Y75807D01*
X-227232Y75898D01*
X-227246Y75912D01*
X-227256Y75929D01*
X-227335Y75996D01*
X-227410Y76067D01*
X-227428Y76076D01*
X-227443Y76089D01*
X-227539Y76127D01*
X-227633Y76171D01*
X-227653Y76173D01*
X-227671Y76181D01*
X-227838Y76199D01*
X-229362Y76199D01*
X-229382Y76196D01*
X-229401Y76198D01*
X-229503Y76176D01*
X-229605Y76159D01*
X-229622Y76150D01*
X-229642Y76146D01*
X-229731Y76093D01*
X-229822Y76044D01*
X-229836Y76030D01*
X-229853Y76020D01*
X-229920Y75941D01*
X-229991Y75866D01*
X-230000Y75848D01*
X-230013Y75833D01*
X-230052Y75737D01*
X-230095Y75643D01*
X-230097Y75623D01*
X-230105Y75605D01*
X-230123Y75438D01*
X-230123Y66119D01*
X-232776Y66119D01*
X-237540Y70883D01*
X-237598Y70925D01*
X-237650Y70975D01*
X-237697Y70997D01*
X-237739Y71027D01*
X-237808Y71048D01*
X-237873Y71078D01*
X-237925Y71084D01*
X-237975Y71099D01*
X-238046Y71097D01*
X-238117Y71105D01*
X-238168Y71094D01*
X-238220Y71093D01*
X-238288Y71068D01*
X-238358Y71053D01*
X-238403Y71026D01*
X-238451Y71009D01*
X-238507Y70964D01*
X-238569Y70927D01*
X-238603Y70887D01*
X-238643Y70855D01*
X-238682Y70795D01*
X-238729Y70740D01*
X-238748Y70692D01*
X-238776Y70648D01*
X-238794Y70578D01*
X-238821Y70512D01*
X-238829Y70441D01*
X-238837Y70409D01*
X-238835Y70386D01*
X-238839Y70345D01*
X-238839Y67144D01*
X-239999Y64343D01*
X-242143Y62199D01*
X-242375Y62104D01*
X-242414Y62079D01*
X-242457Y62064D01*
X-242517Y62015D01*
X-242584Y61974D01*
X-242613Y61939D01*
X-242649Y61910D01*
X-242691Y61845D01*
X-242740Y61785D01*
X-242757Y61742D01*
X-242782Y61703D01*
X-242801Y61628D01*
X-242829Y61555D01*
X-242831Y61509D01*
X-242842Y61465D01*
X-242836Y61387D01*
X-242839Y61309D01*
X-242826Y61265D01*
X-242823Y61219D01*
X-242792Y61148D01*
X-242771Y61073D01*
X-242744Y61035D01*
X-242726Y60993D01*
X-242641Y60886D01*
X-242630Y60871D01*
X-242626Y60868D01*
X-242622Y60862D01*
X-241147Y59388D01*
X-238839Y53816D01*
X-238839Y47784D01*
X-241147Y42212D01*
X-245412Y37947D01*
X-250984Y35639D01*
X-257016Y35639D01*
X-262588Y37947D01*
X-266853Y42212D01*
X-269161Y47784D01*
X-269161Y53816D01*
X-266853Y59388D01*
X-265378Y60862D01*
X-265352Y60899D01*
X-265318Y60930D01*
X-265280Y60999D01*
X-265235Y61062D01*
X-265221Y61106D01*
X-265199Y61146D01*
X-265185Y61223D01*
X-265163Y61297D01*
X-265164Y61343D01*
X-265156Y61388D01*
X-265167Y61465D01*
X-265169Y61543D01*
X-265185Y61586D01*
X-265191Y61631D01*
X-265227Y61701D01*
X-265253Y61774D01*
X-265282Y61810D01*
X-265303Y61851D01*
X-265358Y61905D01*
X-265407Y61966D01*
X-265446Y61991D01*
X-265478Y62023D01*
X-265598Y62089D01*
X-265614Y62099D01*
X-265619Y62100D01*
X-265625Y62104D01*
X-265857Y62199D01*
X-267775Y64117D01*
X-267791Y64129D01*
X-267803Y64145D01*
X-267891Y64201D01*
X-267974Y64261D01*
X-267993Y64267D01*
X-268010Y64278D01*
X-268111Y64303D01*
X-268210Y64333D01*
X-268229Y64333D01*
X-268249Y64338D01*
X-268352Y64330D01*
X-268455Y64327D01*
X-268474Y64320D01*
X-268494Y64319D01*
X-268589Y64278D01*
X-268686Y64243D01*
X-268702Y64230D01*
X-268720Y64222D01*
X-268851Y64117D01*
X-270335Y62634D01*
X-276217Y60197D01*
X-282583Y60197D01*
X-288465Y62634D01*
X-292966Y67135D01*
X-295403Y73017D01*
X-295403Y79383D01*
X-292966Y85265D01*
X-288465Y89766D01*
X-282583Y92203D01*
X-276217Y92203D01*
X-270335Y89766D01*
X-268851Y88283D01*
X-268835Y88271D01*
X-268823Y88255D01*
X-268760Y88215D01*
X-268712Y88174D01*
X-268685Y88163D01*
X-268652Y88139D01*
X-268633Y88133D01*
X-268616Y88122D01*
X-268531Y88101D01*
X-268484Y88082D01*
X-268456Y88079D01*
X-268416Y88067D01*
X-268397Y88067D01*
X-268377Y88062D01*
X-268336Y88066D01*
X-268317Y88064D01*
X-268309Y88064D01*
X-268266Y88071D01*
X-268171Y88073D01*
X-268152Y88080D01*
X-268132Y88081D01*
X-268090Y88099D01*
X-268066Y88103D01*
X-268018Y88129D01*
X-267940Y88157D01*
X-267924Y88170D01*
X-267906Y88178D01*
X-267867Y88209D01*
X-267849Y88218D01*
X-267830Y88238D01*
X-267775Y88283D01*
X-265857Y90201D01*
X-263056Y91361D01*
X-244944Y91361D01*
X-242143Y90201D01*
X-239999Y88057D01*
X-238839Y85256D01*
X-238839Y82055D01*
X-238828Y81984D01*
X-238826Y81912D01*
X-238808Y81863D01*
X-238800Y81812D01*
X-238766Y81749D01*
X-238741Y81681D01*
X-238709Y81641D01*
X-238684Y81595D01*
X-238632Y81545D01*
X-238588Y81489D01*
X-238544Y81461D01*
X-238506Y81425D01*
X-238441Y81395D01*
X-238381Y81356D01*
X-238330Y81344D01*
X-238283Y81322D01*
X-238212Y81314D01*
X-238142Y81296D01*
X-238090Y81300D01*
X-238039Y81295D01*
X-237968Y81310D01*
X-237897Y81315D01*
X-237849Y81336D01*
X-237798Y81347D01*
X-237737Y81384D01*
X-237671Y81412D01*
X-237615Y81456D01*
X-237587Y81473D01*
X-237572Y81491D01*
X-237540Y81517D01*
X-232776Y86281D01*
X-230123Y86281D01*
X-230123Y76962D01*
X-230120Y76942D01*
X-230122Y76923D01*
X-230100Y76821D01*
X-230083Y76719D01*
X-230074Y76702D01*
X-230070Y76682D01*
X-230017Y76593D01*
X-229968Y76502D01*
X-229954Y76488D01*
X-229944Y76471D01*
X-229865Y76404D01*
X-229790Y76333D01*
X-229772Y76324D01*
X-229757Y76311D01*
X-229661Y76273D01*
X-229567Y76229D01*
X-229547Y76227D01*
X-229529Y76219D01*
X-229362Y76201D01*
X-227838Y76201D01*
X-227818Y76204D01*
X-227799Y76202D01*
X-227697Y76224D01*
X-227595Y76241D01*
X-227578Y76250D01*
X-227558Y76254D01*
X-227469Y76307D01*
X-227378Y76356D01*
X-227364Y76370D01*
X-227347Y76380D01*
X-227280Y76459D01*
X-227209Y76534D01*
X-227200Y76552D01*
X-227187Y76567D01*
X-227149Y76663D01*
X-227105Y76757D01*
X-227103Y76777D01*
X-227095Y76795D01*
X-227077Y76962D01*
X-227077Y86281D01*
X-224424Y86281D01*
X-218873Y80729D01*
X-218836Y80703D01*
X-218805Y80669D01*
X-218736Y80631D01*
X-218673Y80586D01*
X-218630Y80572D01*
X-218589Y80550D01*
X-218513Y80536D01*
X-218438Y80513D01*
X-218392Y80515D01*
X-218347Y80506D01*
X-218270Y80518D01*
X-218192Y80520D01*
X-218149Y80536D01*
X-218104Y80542D01*
X-218034Y80577D01*
X-217961Y80604D01*
X-217925Y80633D01*
X-217885Y80654D01*
X-217830Y80709D01*
X-217769Y80758D01*
X-217744Y80797D01*
X-217712Y80829D01*
X-217646Y80949D01*
X-217636Y80965D01*
X-217635Y80970D01*
X-217631Y80976D01*
X-216053Y84788D01*
X-211788Y89053D01*
X-206216Y91361D01*
X-200184Y91361D01*
X-194612Y89053D01*
X-191038Y85479D01*
X-191022Y85467D01*
X-191010Y85452D01*
X-190922Y85395D01*
X-190839Y85335D01*
X-190820Y85329D01*
X-190803Y85319D01*
X-190702Y85293D01*
X-190603Y85263D01*
X-190584Y85263D01*
X-190564Y85259D01*
X-190461Y85267D01*
X-190358Y85269D01*
X-190339Y85276D01*
X-190319Y85278D01*
X-190224Y85318D01*
X-190127Y85354D01*
X-190111Y85366D01*
X-190093Y85374D01*
X-189962Y85479D01*
X-186388Y89053D01*
X-180816Y91361D01*
X-174784Y91361D01*
X-169212Y89053D01*
X-165638Y85479D01*
X-165622Y85467D01*
X-165610Y85452D01*
X-165522Y85395D01*
X-165439Y85335D01*
X-165420Y85329D01*
X-165403Y85319D01*
X-165302Y85293D01*
X-165203Y85263D01*
X-165184Y85263D01*
X-165164Y85259D01*
X-165061Y85267D01*
X-164958Y85269D01*
X-164939Y85276D01*
X-164919Y85278D01*
X-164824Y85318D01*
X-164727Y85354D01*
X-164711Y85366D01*
X-164693Y85374D01*
X-164562Y85479D01*
X-160988Y89053D01*
X-155416Y91361D01*
X-149384Y91361D01*
X-143812Y89053D01*
X-140238Y85479D01*
X-140222Y85467D01*
X-140210Y85452D01*
X-140122Y85395D01*
X-140039Y85335D01*
X-140020Y85329D01*
X-140003Y85319D01*
X-139902Y85293D01*
X-139803Y85263D01*
X-139784Y85263D01*
X-139764Y85259D01*
X-139661Y85267D01*
X-139558Y85269D01*
X-139539Y85276D01*
X-139519Y85278D01*
X-139424Y85318D01*
X-139327Y85354D01*
X-139311Y85366D01*
X-139293Y85374D01*
X-139162Y85479D01*
X-135588Y89053D01*
X-130016Y91361D01*
X-123984Y91361D01*
X-118412Y89053D01*
X-114838Y85479D01*
X-114822Y85467D01*
X-114810Y85452D01*
X-114722Y85395D01*
X-114639Y85335D01*
X-114620Y85329D01*
X-114603Y85319D01*
X-114502Y85293D01*
X-114403Y85263D01*
X-114384Y85263D01*
X-114364Y85259D01*
X-114261Y85267D01*
X-114158Y85269D01*
X-114139Y85276D01*
X-114119Y85278D01*
X-114024Y85318D01*
X-113927Y85354D01*
X-113911Y85366D01*
X-113893Y85374D01*
X-113762Y85479D01*
X-110188Y89053D01*
X-104616Y91361D01*
X-98584Y91361D01*
X-93012Y89053D01*
X-89438Y85479D01*
X-89422Y85467D01*
X-89410Y85452D01*
X-89322Y85395D01*
X-89239Y85335D01*
X-89220Y85329D01*
X-89203Y85319D01*
X-89102Y85293D01*
X-89003Y85263D01*
X-88984Y85263D01*
X-88964Y85259D01*
X-88861Y85267D01*
X-88758Y85269D01*
X-88739Y85276D01*
X-88719Y85278D01*
X-88624Y85318D01*
X-88527Y85354D01*
X-88511Y85366D01*
X-88493Y85374D01*
X-88362Y85479D01*
X-84788Y89053D01*
X-79216Y91361D01*
X-73184Y91361D01*
X-67612Y89053D01*
X-64038Y85479D01*
X-64022Y85467D01*
X-64010Y85452D01*
X-63922Y85395D01*
X-63839Y85335D01*
X-63820Y85329D01*
X-63803Y85319D01*
X-63702Y85293D01*
X-63603Y85263D01*
X-63584Y85263D01*
X-63564Y85259D01*
X-63461Y85267D01*
X-63358Y85269D01*
X-63339Y85276D01*
X-63319Y85278D01*
X-63224Y85318D01*
X-63127Y85354D01*
X-63111Y85366D01*
X-63093Y85374D01*
X-62962Y85479D01*
X-59388Y89053D01*
X-53816Y91361D01*
X-47784Y91361D01*
X-42212Y89053D01*
X-38638Y85479D01*
X-38622Y85467D01*
X-38610Y85452D01*
X-38522Y85395D01*
X-38439Y85335D01*
X-38420Y85329D01*
X-38403Y85319D01*
X-38302Y85293D01*
X-38203Y85263D01*
X-38184Y85263D01*
X-38164Y85259D01*
X-38061Y85267D01*
X-37958Y85269D01*
X-37939Y85276D01*
X-37919Y85278D01*
X-37824Y85318D01*
X-37727Y85354D01*
X-37711Y85366D01*
X-37693Y85374D01*
X-37562Y85479D01*
X-33988Y89053D01*
X-28416Y91361D01*
X-22384Y91361D01*
X-16812Y89053D01*
X-13238Y85479D01*
X-13222Y85467D01*
X-13210Y85452D01*
X-13122Y85395D01*
X-13039Y85335D01*
X-13020Y85329D01*
X-13003Y85319D01*
X-12902Y85293D01*
X-12803Y85263D01*
X-12784Y85263D01*
X-12764Y85259D01*
X-12661Y85267D01*
X-12558Y85269D01*
X-12539Y85276D01*
X-12519Y85278D01*
X-12424Y85318D01*
X-12327Y85354D01*
X-12311Y85366D01*
X-12293Y85374D01*
X-12162Y85479D01*
X-8588Y89053D01*
X-3016Y91361D01*
X3016Y91361D01*
X8588Y89053D01*
X12162Y85479D01*
X12178Y85467D01*
X12190Y85452D01*
X12278Y85395D01*
X12361Y85335D01*
X12380Y85329D01*
X12397Y85319D01*
X12498Y85293D01*
X12597Y85263D01*
X12616Y85263D01*
X12636Y85259D01*
X12739Y85267D01*
X12842Y85269D01*
X12861Y85276D01*
X12881Y85278D01*
X12976Y85318D01*
X13073Y85354D01*
X13089Y85366D01*
X13107Y85374D01*
X13238Y85479D01*
X16812Y89053D01*
X22384Y91361D01*
X28416Y91361D01*
X33988Y89053D01*
X37562Y85479D01*
X37578Y85467D01*
X37590Y85452D01*
X37678Y85395D01*
X37761Y85335D01*
X37780Y85329D01*
X37797Y85319D01*
X37898Y85293D01*
X37997Y85263D01*
X38016Y85263D01*
X38036Y85259D01*
X38139Y85267D01*
X38242Y85269D01*
X38261Y85276D01*
X38281Y85278D01*
X38376Y85318D01*
X38473Y85354D01*
X38489Y85366D01*
X38507Y85374D01*
X38638Y85479D01*
X42212Y89053D01*
X47784Y91361D01*
X53816Y91361D01*
X59388Y89053D01*
X60862Y87578D01*
X60899Y87552D01*
X60930Y87518D01*
X60999Y87480D01*
X61062Y87435D01*
X61106Y87421D01*
X61146Y87399D01*
X61223Y87385D01*
X61297Y87363D01*
X61343Y87364D01*
X61388Y87356D01*
X61465Y87367D01*
X61543Y87369D01*
X61586Y87385D01*
X61631Y87391D01*
X61701Y87427D01*
X61774Y87453D01*
X61810Y87482D01*
X61851Y87503D01*
X61905Y87558D01*
X61966Y87607D01*
X61991Y87646D01*
X62023Y87678D01*
X62089Y87798D01*
X62099Y87814D01*
X62100Y87819D01*
X62104Y87825D01*
X62199Y88057D01*
X64343Y90201D01*
X67144Y91361D01*
X85256Y91361D01*
X88057Y90201D01*
X90201Y88057D01*
X90296Y87825D01*
X90321Y87786D01*
X90336Y87743D01*
X90385Y87683D01*
X90426Y87616D01*
X90461Y87587D01*
X90490Y87551D01*
X90555Y87509D01*
X90615Y87460D01*
X90658Y87443D01*
X90697Y87418D01*
X90772Y87399D01*
X90845Y87371D01*
X90891Y87369D01*
X90935Y87358D01*
X91013Y87364D01*
X91091Y87361D01*
X91135Y87374D01*
X91181Y87377D01*
X91252Y87408D01*
X91327Y87429D01*
X91365Y87456D01*
X91407Y87474D01*
X91514Y87559D01*
X91529Y87570D01*
X91532Y87574D01*
X91538Y87578D01*
X93012Y89053D01*
X98584Y91361D01*
X104616Y91361D01*
X110188Y89053D01*
X113762Y85479D01*
X113778Y85467D01*
X113790Y85452D01*
X113878Y85396D01*
X113961Y85335D01*
X113980Y85329D01*
X113997Y85319D01*
X114098Y85293D01*
X114197Y85263D01*
X114216Y85263D01*
X114236Y85259D01*
X114339Y85267D01*
X114442Y85269D01*
X114461Y85276D01*
X114481Y85278D01*
X114576Y85318D01*
X114673Y85354D01*
X114689Y85366D01*
X114707Y85374D01*
X114838Y85479D01*
X118412Y89053D01*
X123984Y91361D01*
X130016Y91361D01*
X135588Y89053D01*
X139162Y85479D01*
X139178Y85467D01*
X139190Y85452D01*
X139278Y85396D01*
X139361Y85335D01*
X139380Y85329D01*
X139397Y85319D01*
X139498Y85293D01*
X139597Y85263D01*
X139616Y85263D01*
X139636Y85259D01*
X139739Y85267D01*
X139842Y85269D01*
X139861Y85276D01*
X139881Y85278D01*
X139976Y85318D01*
X140073Y85354D01*
X140089Y85366D01*
X140107Y85374D01*
X140238Y85479D01*
X143812Y89053D01*
X149384Y91361D01*
X155416Y91361D01*
X160988Y89053D01*
X164562Y85479D01*
X164578Y85467D01*
X164590Y85452D01*
X164678Y85396D01*
X164761Y85335D01*
X164780Y85329D01*
X164797Y85319D01*
X164898Y85293D01*
X164997Y85263D01*
X165016Y85263D01*
X165036Y85259D01*
X165139Y85267D01*
X165242Y85269D01*
X165261Y85276D01*
X165281Y85278D01*
X165376Y85318D01*
X165473Y85354D01*
X165489Y85366D01*
X165507Y85374D01*
X165638Y85479D01*
X169212Y89053D01*
X174784Y91361D01*
X180816Y91361D01*
X186388Y89053D01*
X189962Y85479D01*
X189978Y85467D01*
X189990Y85452D01*
X190078Y85396D01*
X190161Y85335D01*
X190180Y85329D01*
X190197Y85319D01*
X190298Y85293D01*
X190397Y85263D01*
X190416Y85263D01*
X190436Y85259D01*
X190539Y85267D01*
X190642Y85269D01*
X190661Y85276D01*
X190681Y85278D01*
X190776Y85318D01*
X190873Y85354D01*
X190889Y85366D01*
X190907Y85374D01*
X191038Y85479D01*
X194612Y89053D01*
X200184Y91361D01*
X206216Y91361D01*
X211788Y89053D01*
X215362Y85479D01*
X215378Y85467D01*
X215390Y85452D01*
X215478Y85396D01*
X215561Y85335D01*
X215580Y85329D01*
X215597Y85319D01*
X215698Y85293D01*
X215797Y85263D01*
X215816Y85263D01*
X215836Y85259D01*
X215939Y85267D01*
X216042Y85269D01*
X216061Y85276D01*
X216081Y85278D01*
X216176Y85318D01*
X216273Y85354D01*
X216289Y85366D01*
X216307Y85374D01*
X216438Y85479D01*
X220012Y89053D01*
X225584Y91361D01*
X231616Y91361D01*
X237188Y89053D01*
X240762Y85479D01*
X240778Y85467D01*
X240790Y85452D01*
X240878Y85396D01*
X240961Y85335D01*
X240980Y85329D01*
X240997Y85319D01*
X241098Y85293D01*
X241197Y85263D01*
X241216Y85263D01*
X241236Y85259D01*
X241339Y85267D01*
X241442Y85269D01*
X241461Y85276D01*
X241481Y85278D01*
X241576Y85318D01*
X241673Y85354D01*
X241689Y85366D01*
X241707Y85374D01*
X241838Y85479D01*
X245412Y89053D01*
X250984Y91361D01*
X257016Y91361D01*
X262588Y89053D01*
X266162Y85479D01*
X266178Y85467D01*
X266190Y85452D01*
X266278Y85396D01*
X266361Y85335D01*
X266380Y85329D01*
X266397Y85319D01*
X266498Y85293D01*
X266597Y85263D01*
X266616Y85263D01*
X266636Y85259D01*
X266739Y85267D01*
X266842Y85269D01*
X266861Y85276D01*
X266881Y85278D01*
X266976Y85318D01*
X267073Y85354D01*
X267089Y85366D01*
X267107Y85374D01*
X267238Y85479D01*
X270812Y89053D01*
X276384Y91361D01*
X282416Y91361D01*
X287988Y89053D01*
X291562Y85479D01*
X291578Y85467D01*
X291590Y85452D01*
X291678Y85396D01*
X291761Y85335D01*
X291780Y85329D01*
X291797Y85319D01*
X291898Y85293D01*
X291997Y85263D01*
X292016Y85263D01*
X292036Y85259D01*
X292139Y85267D01*
X292242Y85269D01*
X292261Y85276D01*
X292281Y85278D01*
X292376Y85318D01*
X292473Y85354D01*
X292489Y85366D01*
X292507Y85374D01*
X292638Y85479D01*
X296212Y89053D01*
X301784Y91361D01*
X307816Y91361D01*
X313388Y89053D01*
X316454Y85987D01*
X316512Y85945D01*
X316564Y85896D01*
X316611Y85874D01*
X316653Y85843D01*
X316722Y85822D01*
X316787Y85792D01*
X316839Y85786D01*
X316889Y85771D01*
X316960Y85773D01*
X317031Y85765D01*
X317082Y85776D01*
X317134Y85777D01*
X317202Y85802D01*
X317272Y85817D01*
X317316Y85844D01*
X317365Y85862D01*
X317421Y85907D01*
X317483Y85943D01*
X317517Y85983D01*
X317557Y86015D01*
X317596Y86076D01*
X317643Y86130D01*
X317662Y86179D01*
X317690Y86222D01*
X317708Y86292D01*
X317735Y86358D01*
X317743Y86430D01*
X317751Y86461D01*
X317749Y86484D01*
X317753Y86525D01*
X317753Y173355D01*
X317752Y173362D01*
X317752Y173363D01*
X317751Y173368D01*
X317742Y173426D01*
X317740Y173497D01*
X317722Y173546D01*
X317714Y173598D01*
X317680Y173661D01*
X317655Y173728D01*
X317623Y173769D01*
X317598Y173815D01*
X317547Y173864D01*
X317502Y173920D01*
X317458Y173949D01*
X317420Y173985D01*
X317355Y174015D01*
X317295Y174053D01*
X317244Y174066D01*
X317197Y174088D01*
X317126Y174096D01*
X317056Y174114D01*
X317004Y174109D01*
X316953Y174115D01*
X316882Y174100D01*
X316811Y174094D01*
X316763Y174074D01*
X316712Y174063D01*
X316651Y174026D01*
X316585Y173998D01*
X316529Y173953D01*
X316501Y173937D01*
X316486Y173919D01*
X316454Y173893D01*
X314772Y172211D01*
X-310515Y172211D01*
X-310539Y172207D01*
X-310564Y172210D01*
X-310660Y172188D01*
X-310758Y172172D01*
X-310779Y172160D01*
X-310803Y172155D01*
X-310888Y172103D01*
X-310975Y172056D01*
X-310992Y172039D01*
X-311013Y172026D01*
X-311076Y171950D01*
X-311145Y171878D01*
X-311155Y171856D01*
X-311171Y171837D01*
X-311206Y171745D01*
X-311248Y171655D01*
X-311251Y171631D01*
X-311260Y171608D01*
X-311276Y171441D01*
X-306323Y-243468D01*
X-306308Y-243554D01*
X-306301Y-243640D01*
X-306287Y-243674D01*
X-306281Y-243710D01*
X-306239Y-243787D01*
X-306205Y-243866D01*
X-306175Y-243903D01*
X-306163Y-243926D01*
X-306140Y-243947D01*
X-306100Y-243997D01*
X-304195Y-245902D01*
X-304121Y-245955D01*
X-304052Y-246015D01*
X-304022Y-246027D01*
X-303996Y-246046D01*
X-303909Y-246073D01*
X-303824Y-246107D01*
X-303783Y-246111D01*
X-303760Y-246118D01*
X-303728Y-246117D01*
X-303657Y-246125D01*
X316899Y-246125D01*
X316926Y-246121D01*
G37*
%LPC*%
G36*
X-205214Y112140D02*
X-205214Y112140D01*
X-211283Y114654D01*
X-215128Y118499D01*
X-215224Y118569D01*
X-215321Y118639D01*
X-215325Y118641D01*
X-215328Y118643D01*
X-215441Y118678D01*
X-215555Y118714D01*
X-215559Y118714D01*
X-215563Y118715D01*
X-215681Y118712D01*
X-215801Y118710D01*
X-215805Y118709D01*
X-215809Y118709D01*
X-215922Y118668D01*
X-216033Y118628D01*
X-216036Y118626D01*
X-216040Y118624D01*
X-216134Y118549D01*
X-216226Y118477D01*
X-216229Y118473D01*
X-216232Y118471D01*
X-216239Y118459D01*
X-216326Y118342D01*
X-216407Y118201D01*
X-216880Y117728D01*
X-217459Y117393D01*
X-218106Y117220D01*
X-225807Y117220D01*
X-225807Y127889D01*
X-225810Y127909D01*
X-225808Y127928D01*
X-225830Y128030D01*
X-225847Y128132D01*
X-225856Y128149D01*
X-225860Y128169D01*
X-225913Y128258D01*
X-225962Y128349D01*
X-225976Y128363D01*
X-225986Y128380D01*
X-226065Y128447D01*
X-226140Y128518D01*
X-226158Y128527D01*
X-226173Y128540D01*
X-226269Y128578D01*
X-226363Y128622D01*
X-226383Y128624D01*
X-226401Y128632D01*
X-226568Y128650D01*
X-227331Y128650D01*
X-227331Y128652D01*
X-226568Y128652D01*
X-226548Y128655D01*
X-226529Y128653D01*
X-226427Y128675D01*
X-226325Y128692D01*
X-226308Y128701D01*
X-226288Y128705D01*
X-226199Y128758D01*
X-226108Y128807D01*
X-226094Y128821D01*
X-226077Y128831D01*
X-226010Y128910D01*
X-225939Y128985D01*
X-225930Y129003D01*
X-225917Y129018D01*
X-225878Y129114D01*
X-225835Y129208D01*
X-225833Y129228D01*
X-225825Y129246D01*
X-225807Y129413D01*
X-225807Y140082D01*
X-218106Y140082D01*
X-217459Y139909D01*
X-216880Y139574D01*
X-216407Y139101D01*
X-216326Y138960D01*
X-216251Y138869D01*
X-216176Y138775D01*
X-216173Y138773D01*
X-216170Y138770D01*
X-216069Y138707D01*
X-215969Y138642D01*
X-215965Y138641D01*
X-215962Y138639D01*
X-215846Y138611D01*
X-215731Y138582D01*
X-215726Y138583D01*
X-215722Y138582D01*
X-215602Y138592D01*
X-215485Y138601D01*
X-215482Y138603D01*
X-215477Y138603D01*
X-215366Y138652D01*
X-215259Y138698D01*
X-215255Y138701D01*
X-215252Y138702D01*
X-215242Y138712D01*
X-215128Y138803D01*
X-211283Y142648D01*
X-205214Y145162D01*
X-198646Y145162D01*
X-192577Y142648D01*
X-189768Y139839D01*
X-189752Y139827D01*
X-189740Y139812D01*
X-189652Y139756D01*
X-189569Y139695D01*
X-189550Y139690D01*
X-189533Y139679D01*
X-189432Y139654D01*
X-189333Y139623D01*
X-189314Y139624D01*
X-189294Y139619D01*
X-189191Y139627D01*
X-189088Y139629D01*
X-189069Y139636D01*
X-189049Y139638D01*
X-188954Y139678D01*
X-188857Y139714D01*
X-188841Y139726D01*
X-188823Y139734D01*
X-188692Y139839D01*
X-185883Y142648D01*
X-179814Y145162D01*
X-173246Y145162D01*
X-167177Y142648D01*
X-164368Y139839D01*
X-164352Y139827D01*
X-164340Y139812D01*
X-164252Y139756D01*
X-164169Y139695D01*
X-164150Y139690D01*
X-164133Y139679D01*
X-164032Y139654D01*
X-163933Y139623D01*
X-163914Y139624D01*
X-163894Y139619D01*
X-163791Y139627D01*
X-163688Y139629D01*
X-163669Y139636D01*
X-163649Y139638D01*
X-163554Y139678D01*
X-163457Y139714D01*
X-163441Y139726D01*
X-163423Y139734D01*
X-163292Y139839D01*
X-160483Y142648D01*
X-154414Y145162D01*
X-147846Y145162D01*
X-141777Y142648D01*
X-138968Y139839D01*
X-138952Y139827D01*
X-138940Y139812D01*
X-138852Y139756D01*
X-138769Y139695D01*
X-138750Y139690D01*
X-138733Y139679D01*
X-138632Y139654D01*
X-138533Y139623D01*
X-138514Y139624D01*
X-138494Y139619D01*
X-138391Y139627D01*
X-138288Y139629D01*
X-138269Y139636D01*
X-138249Y139638D01*
X-138154Y139678D01*
X-138057Y139714D01*
X-138041Y139726D01*
X-138023Y139734D01*
X-137892Y139839D01*
X-135083Y142648D01*
X-129014Y145162D01*
X-122446Y145162D01*
X-116377Y142648D01*
X-113568Y139839D01*
X-113552Y139827D01*
X-113540Y139812D01*
X-113452Y139756D01*
X-113369Y139695D01*
X-113350Y139690D01*
X-113333Y139679D01*
X-113232Y139654D01*
X-113133Y139623D01*
X-113114Y139624D01*
X-113094Y139619D01*
X-112991Y139627D01*
X-112888Y139629D01*
X-112869Y139636D01*
X-112849Y139638D01*
X-112754Y139678D01*
X-112657Y139714D01*
X-112641Y139726D01*
X-112623Y139734D01*
X-112492Y139839D01*
X-109683Y142648D01*
X-103614Y145162D01*
X-97046Y145162D01*
X-90977Y142648D01*
X-88168Y139839D01*
X-88152Y139827D01*
X-88140Y139812D01*
X-88052Y139756D01*
X-87969Y139695D01*
X-87950Y139690D01*
X-87933Y139679D01*
X-87832Y139654D01*
X-87733Y139623D01*
X-87714Y139624D01*
X-87694Y139619D01*
X-87591Y139627D01*
X-87488Y139629D01*
X-87469Y139636D01*
X-87449Y139638D01*
X-87354Y139678D01*
X-87257Y139714D01*
X-87241Y139726D01*
X-87223Y139734D01*
X-87092Y139839D01*
X-84283Y142648D01*
X-78214Y145162D01*
X-71646Y145162D01*
X-65577Y142648D01*
X-60933Y138004D01*
X-58419Y131935D01*
X-58419Y125367D01*
X-60933Y119298D01*
X-65577Y114654D01*
X-71646Y112140D01*
X-78214Y112140D01*
X-84283Y114654D01*
X-87092Y117463D01*
X-87108Y117475D01*
X-87120Y117490D01*
X-87208Y117546D01*
X-87291Y117607D01*
X-87310Y117612D01*
X-87327Y117623D01*
X-87428Y117649D01*
X-87527Y117679D01*
X-87546Y117678D01*
X-87566Y117683D01*
X-87669Y117675D01*
X-87772Y117673D01*
X-87791Y117666D01*
X-87811Y117664D01*
X-87906Y117624D01*
X-88003Y117588D01*
X-88019Y117576D01*
X-88037Y117568D01*
X-88168Y117463D01*
X-90977Y114654D01*
X-97046Y112140D01*
X-103614Y112140D01*
X-109683Y114654D01*
X-112492Y117463D01*
X-112508Y117475D01*
X-112520Y117490D01*
X-112608Y117546D01*
X-112691Y117607D01*
X-112710Y117612D01*
X-112727Y117623D01*
X-112828Y117649D01*
X-112927Y117679D01*
X-112946Y117678D01*
X-112966Y117683D01*
X-113069Y117675D01*
X-113172Y117673D01*
X-113191Y117666D01*
X-113211Y117664D01*
X-113306Y117624D01*
X-113403Y117588D01*
X-113419Y117576D01*
X-113437Y117568D01*
X-113568Y117463D01*
X-116377Y114654D01*
X-122446Y112140D01*
X-129014Y112140D01*
X-135083Y114654D01*
X-137892Y117463D01*
X-137908Y117475D01*
X-137920Y117490D01*
X-138008Y117546D01*
X-138091Y117607D01*
X-138110Y117612D01*
X-138127Y117623D01*
X-138228Y117649D01*
X-138327Y117679D01*
X-138346Y117678D01*
X-138366Y117683D01*
X-138469Y117675D01*
X-138572Y117673D01*
X-138591Y117666D01*
X-138611Y117664D01*
X-138706Y117624D01*
X-138803Y117588D01*
X-138819Y117576D01*
X-138837Y117568D01*
X-138968Y117463D01*
X-141777Y114654D01*
X-147846Y112140D01*
X-154414Y112140D01*
X-160483Y114654D01*
X-163292Y117463D01*
X-163308Y117475D01*
X-163320Y117490D01*
X-163408Y117546D01*
X-163491Y117607D01*
X-163510Y117612D01*
X-163527Y117623D01*
X-163628Y117649D01*
X-163727Y117679D01*
X-163746Y117678D01*
X-163766Y117683D01*
X-163869Y117675D01*
X-163972Y117673D01*
X-163991Y117666D01*
X-164011Y117664D01*
X-164106Y117624D01*
X-164203Y117588D01*
X-164219Y117576D01*
X-164237Y117568D01*
X-164368Y117463D01*
X-167177Y114654D01*
X-173246Y112140D01*
X-179814Y112140D01*
X-185883Y114654D01*
X-188692Y117463D01*
X-188708Y117475D01*
X-188720Y117490D01*
X-188808Y117546D01*
X-188891Y117607D01*
X-188910Y117612D01*
X-188927Y117623D01*
X-189028Y117649D01*
X-189127Y117679D01*
X-189146Y117678D01*
X-189166Y117683D01*
X-189269Y117675D01*
X-189372Y117673D01*
X-189391Y117666D01*
X-189411Y117664D01*
X-189506Y117624D01*
X-189603Y117588D01*
X-189619Y117576D01*
X-189637Y117568D01*
X-189768Y117463D01*
X-192577Y114654D01*
X-198646Y112140D01*
X-205214Y112140D01*
G37*
%LPD*%
%LPC*%
G36*
X-238360Y-141606D02*
X-238360Y-141606D01*
X-248032Y-131934D01*
X-248032Y-118256D01*
X-238360Y-108584D01*
X-224682Y-108584D01*
X-219359Y-113907D01*
X-219343Y-113919D01*
X-219331Y-113934D01*
X-219243Y-113990D01*
X-219160Y-114051D01*
X-219141Y-114056D01*
X-219124Y-114067D01*
X-219023Y-114093D01*
X-218924Y-114123D01*
X-218905Y-114122D01*
X-218885Y-114127D01*
X-218782Y-114119D01*
X-218679Y-114117D01*
X-218660Y-114110D01*
X-218640Y-114108D01*
X-218545Y-114068D01*
X-218448Y-114032D01*
X-218432Y-114020D01*
X-218414Y-114012D01*
X-218283Y-113907D01*
X-212960Y-108584D01*
X-199282Y-108584D01*
X-193959Y-113907D01*
X-193943Y-113919D01*
X-193931Y-113934D01*
X-193843Y-113990D01*
X-193760Y-114051D01*
X-193741Y-114056D01*
X-193724Y-114067D01*
X-193623Y-114093D01*
X-193524Y-114123D01*
X-193505Y-114122D01*
X-193485Y-114127D01*
X-193382Y-114119D01*
X-193279Y-114117D01*
X-193260Y-114110D01*
X-193240Y-114108D01*
X-193145Y-114068D01*
X-193048Y-114032D01*
X-193032Y-114020D01*
X-193014Y-114012D01*
X-192883Y-113907D01*
X-187560Y-108584D01*
X-173882Y-108584D01*
X-168559Y-113907D01*
X-168543Y-113919D01*
X-168531Y-113934D01*
X-168443Y-113990D01*
X-168360Y-114051D01*
X-168341Y-114056D01*
X-168324Y-114067D01*
X-168223Y-114093D01*
X-168124Y-114123D01*
X-168105Y-114122D01*
X-168085Y-114127D01*
X-167982Y-114119D01*
X-167879Y-114117D01*
X-167860Y-114110D01*
X-167840Y-114108D01*
X-167745Y-114068D01*
X-167648Y-114032D01*
X-167632Y-114020D01*
X-167614Y-114012D01*
X-167483Y-113907D01*
X-162160Y-108584D01*
X-148482Y-108584D01*
X-143159Y-113907D01*
X-143143Y-113919D01*
X-143131Y-113934D01*
X-143043Y-113990D01*
X-142960Y-114051D01*
X-142941Y-114056D01*
X-142924Y-114067D01*
X-142823Y-114093D01*
X-142724Y-114123D01*
X-142705Y-114122D01*
X-142685Y-114127D01*
X-142582Y-114119D01*
X-142479Y-114117D01*
X-142460Y-114110D01*
X-142440Y-114108D01*
X-142345Y-114068D01*
X-142248Y-114032D01*
X-142232Y-114020D01*
X-142214Y-114012D01*
X-142083Y-113907D01*
X-136760Y-108584D01*
X-123082Y-108584D01*
X-117759Y-113907D01*
X-117743Y-113919D01*
X-117731Y-113934D01*
X-117643Y-113990D01*
X-117560Y-114051D01*
X-117541Y-114056D01*
X-117524Y-114067D01*
X-117423Y-114093D01*
X-117324Y-114123D01*
X-117305Y-114122D01*
X-117285Y-114127D01*
X-117182Y-114119D01*
X-117079Y-114117D01*
X-117060Y-114110D01*
X-117040Y-114108D01*
X-116945Y-114068D01*
X-116848Y-114032D01*
X-116832Y-114020D01*
X-116814Y-114012D01*
X-116683Y-113907D01*
X-111360Y-108584D01*
X-97682Y-108584D01*
X-88010Y-118256D01*
X-88010Y-131934D01*
X-97682Y-141606D01*
X-111360Y-141606D01*
X-116683Y-136283D01*
X-116699Y-136271D01*
X-116711Y-136256D01*
X-116799Y-136200D01*
X-116882Y-136139D01*
X-116901Y-136134D01*
X-116918Y-136123D01*
X-117019Y-136098D01*
X-117118Y-136067D01*
X-117137Y-136068D01*
X-117157Y-136063D01*
X-117260Y-136071D01*
X-117363Y-136073D01*
X-117382Y-136080D01*
X-117402Y-136082D01*
X-117497Y-136122D01*
X-117594Y-136158D01*
X-117610Y-136170D01*
X-117628Y-136178D01*
X-117759Y-136283D01*
X-123082Y-141606D01*
X-136760Y-141606D01*
X-142083Y-136283D01*
X-142099Y-136271D01*
X-142111Y-136256D01*
X-142199Y-136200D01*
X-142282Y-136139D01*
X-142301Y-136134D01*
X-142318Y-136123D01*
X-142419Y-136098D01*
X-142518Y-136067D01*
X-142537Y-136068D01*
X-142557Y-136063D01*
X-142660Y-136071D01*
X-142763Y-136073D01*
X-142782Y-136080D01*
X-142802Y-136082D01*
X-142897Y-136122D01*
X-142994Y-136158D01*
X-143010Y-136170D01*
X-143028Y-136178D01*
X-143159Y-136283D01*
X-148482Y-141606D01*
X-162160Y-141606D01*
X-167483Y-136283D01*
X-167499Y-136271D01*
X-167511Y-136256D01*
X-167599Y-136200D01*
X-167682Y-136139D01*
X-167701Y-136134D01*
X-167718Y-136123D01*
X-167819Y-136098D01*
X-167918Y-136067D01*
X-167937Y-136068D01*
X-167957Y-136063D01*
X-168060Y-136071D01*
X-168163Y-136073D01*
X-168182Y-136080D01*
X-168202Y-136082D01*
X-168297Y-136122D01*
X-168394Y-136158D01*
X-168410Y-136170D01*
X-168428Y-136178D01*
X-168559Y-136283D01*
X-173882Y-141606D01*
X-187560Y-141606D01*
X-192883Y-136283D01*
X-192899Y-136271D01*
X-192911Y-136256D01*
X-192999Y-136200D01*
X-193082Y-136139D01*
X-193101Y-136134D01*
X-193118Y-136123D01*
X-193219Y-136098D01*
X-193318Y-136067D01*
X-193337Y-136068D01*
X-193357Y-136063D01*
X-193460Y-136071D01*
X-193563Y-136073D01*
X-193582Y-136080D01*
X-193602Y-136082D01*
X-193697Y-136122D01*
X-193794Y-136158D01*
X-193810Y-136170D01*
X-193828Y-136178D01*
X-193959Y-136283D01*
X-199282Y-141606D01*
X-212960Y-141606D01*
X-218283Y-136283D01*
X-218299Y-136271D01*
X-218311Y-136256D01*
X-218399Y-136200D01*
X-218482Y-136139D01*
X-218501Y-136134D01*
X-218518Y-136123D01*
X-218619Y-136098D01*
X-218718Y-136067D01*
X-218737Y-136068D01*
X-218757Y-136063D01*
X-218860Y-136071D01*
X-218963Y-136073D01*
X-218982Y-136080D01*
X-219002Y-136082D01*
X-219097Y-136122D01*
X-219194Y-136158D01*
X-219210Y-136170D01*
X-219228Y-136178D01*
X-219359Y-136283D01*
X-224682Y-141606D01*
X-238360Y-141606D01*
G37*
%LPD*%
%LPC*%
G36*
X54375Y98170D02*
X54375Y98170D01*
X47840Y100877D01*
X42838Y105879D01*
X42561Y106549D01*
X42536Y106588D01*
X42521Y106632D01*
X42472Y106692D01*
X42431Y106758D01*
X42396Y106788D01*
X42367Y106824D01*
X42301Y106866D01*
X42241Y106915D01*
X42199Y106932D01*
X42160Y106957D01*
X42084Y106976D01*
X42012Y107004D01*
X41966Y107005D01*
X41921Y107017D01*
X41844Y107011D01*
X41766Y107014D01*
X41722Y107001D01*
X41676Y106998D01*
X41605Y106967D01*
X41530Y106945D01*
X41492Y106919D01*
X41450Y106901D01*
X41343Y106816D01*
X41328Y106805D01*
X41325Y106801D01*
X41319Y106796D01*
X40786Y106263D01*
X39169Y105088D01*
X37387Y104181D01*
X35486Y103563D01*
X34035Y103333D01*
X34035Y115189D01*
X34032Y115209D01*
X34034Y115228D01*
X34012Y115330D01*
X33995Y115432D01*
X33986Y115449D01*
X33982Y115469D01*
X33929Y115558D01*
X33880Y115649D01*
X33866Y115663D01*
X33856Y115680D01*
X33777Y115747D01*
X33702Y115818D01*
X33684Y115827D01*
X33669Y115840D01*
X33573Y115878D01*
X33479Y115922D01*
X33459Y115924D01*
X33441Y115932D01*
X33274Y115950D01*
X32511Y115950D01*
X32511Y115952D01*
X33274Y115952D01*
X33294Y115955D01*
X33313Y115953D01*
X33415Y115975D01*
X33517Y115992D01*
X33534Y116001D01*
X33554Y116005D01*
X33643Y116058D01*
X33734Y116107D01*
X33748Y116121D01*
X33765Y116131D01*
X33832Y116210D01*
X33903Y116285D01*
X33912Y116303D01*
X33925Y116318D01*
X33964Y116414D01*
X34007Y116508D01*
X34009Y116528D01*
X34017Y116546D01*
X34035Y116713D01*
X34035Y128569D01*
X35486Y128339D01*
X37387Y127721D01*
X39169Y126814D01*
X40786Y125639D01*
X41319Y125106D01*
X41356Y125079D01*
X41387Y125045D01*
X41455Y125007D01*
X41519Y124962D01*
X41563Y124949D01*
X41603Y124926D01*
X41679Y124913D01*
X41754Y124890D01*
X41800Y124891D01*
X41845Y124883D01*
X41922Y124894D01*
X42000Y124896D01*
X42043Y124912D01*
X42088Y124918D01*
X42158Y124954D01*
X42231Y124980D01*
X42266Y125009D01*
X42307Y125030D01*
X42362Y125086D01*
X42423Y125134D01*
X42447Y125173D01*
X42480Y125206D01*
X42546Y125326D01*
X42556Y125341D01*
X42557Y125346D01*
X42561Y125353D01*
X42838Y126023D01*
X47840Y131025D01*
X54375Y133732D01*
X61449Y133732D01*
X67984Y131025D01*
X70074Y128935D01*
X70090Y128923D01*
X70102Y128908D01*
X70190Y128852D01*
X70273Y128792D01*
X70292Y128786D01*
X70309Y128775D01*
X70410Y128750D01*
X70509Y128719D01*
X70528Y128720D01*
X70548Y128715D01*
X70651Y128723D01*
X70754Y128726D01*
X70773Y128732D01*
X70793Y128734D01*
X70888Y128774D01*
X70985Y128810D01*
X71001Y128822D01*
X71019Y128830D01*
X71150Y128935D01*
X73240Y131025D01*
X79775Y133732D01*
X86849Y133732D01*
X93384Y131025D01*
X95474Y128935D01*
X95490Y128923D01*
X95502Y128908D01*
X95590Y128852D01*
X95673Y128792D01*
X95692Y128786D01*
X95709Y128775D01*
X95810Y128750D01*
X95909Y128719D01*
X95928Y128720D01*
X95948Y128715D01*
X96051Y128723D01*
X96154Y128726D01*
X96173Y128732D01*
X96193Y128734D01*
X96288Y128774D01*
X96385Y128810D01*
X96401Y128822D01*
X96419Y128830D01*
X96550Y128935D01*
X98640Y131025D01*
X105175Y133732D01*
X112249Y133732D01*
X118784Y131025D01*
X120874Y128935D01*
X120890Y128923D01*
X120902Y128908D01*
X120990Y128852D01*
X121073Y128792D01*
X121092Y128786D01*
X121109Y128775D01*
X121210Y128750D01*
X121309Y128719D01*
X121328Y128720D01*
X121348Y128715D01*
X121451Y128723D01*
X121554Y128726D01*
X121573Y128732D01*
X121593Y128734D01*
X121688Y128774D01*
X121785Y128810D01*
X121801Y128822D01*
X121819Y128830D01*
X121950Y128935D01*
X124040Y131025D01*
X130575Y133732D01*
X137649Y133732D01*
X144184Y131025D01*
X146274Y128935D01*
X146290Y128923D01*
X146302Y128908D01*
X146390Y128852D01*
X146473Y128792D01*
X146492Y128786D01*
X146509Y128775D01*
X146610Y128750D01*
X146709Y128719D01*
X146728Y128720D01*
X146748Y128715D01*
X146851Y128723D01*
X146954Y128726D01*
X146973Y128732D01*
X146993Y128734D01*
X147088Y128774D01*
X147185Y128810D01*
X147201Y128822D01*
X147219Y128830D01*
X147350Y128935D01*
X149440Y131025D01*
X155975Y133732D01*
X163049Y133732D01*
X169584Y131025D01*
X174586Y126023D01*
X177293Y119488D01*
X177293Y112414D01*
X174586Y105879D01*
X169584Y100877D01*
X163049Y98170D01*
X155975Y98170D01*
X149440Y100877D01*
X147350Y102967D01*
X147334Y102979D01*
X147322Y102994D01*
X147234Y103050D01*
X147151Y103110D01*
X147132Y103116D01*
X147115Y103127D01*
X147014Y103152D01*
X146915Y103183D01*
X146896Y103182D01*
X146876Y103187D01*
X146773Y103179D01*
X146670Y103176D01*
X146651Y103170D01*
X146631Y103168D01*
X146536Y103128D01*
X146439Y103092D01*
X146423Y103080D01*
X146405Y103072D01*
X146274Y102967D01*
X144184Y100877D01*
X137649Y98170D01*
X130575Y98170D01*
X124040Y100877D01*
X121950Y102967D01*
X121934Y102979D01*
X121922Y102994D01*
X121834Y103050D01*
X121751Y103110D01*
X121732Y103116D01*
X121715Y103127D01*
X121614Y103152D01*
X121515Y103183D01*
X121496Y103182D01*
X121476Y103187D01*
X121373Y103179D01*
X121270Y103176D01*
X121251Y103170D01*
X121231Y103168D01*
X121136Y103128D01*
X121039Y103092D01*
X121023Y103080D01*
X121005Y103072D01*
X120874Y102967D01*
X118784Y100877D01*
X112249Y98170D01*
X105175Y98170D01*
X98640Y100877D01*
X96550Y102967D01*
X96534Y102979D01*
X96522Y102994D01*
X96434Y103050D01*
X96351Y103110D01*
X96332Y103116D01*
X96315Y103127D01*
X96214Y103152D01*
X96115Y103183D01*
X96096Y103182D01*
X96076Y103187D01*
X95973Y103179D01*
X95870Y103176D01*
X95851Y103170D01*
X95831Y103168D01*
X95736Y103128D01*
X95639Y103092D01*
X95623Y103080D01*
X95605Y103072D01*
X95474Y102967D01*
X93384Y100877D01*
X86849Y98170D01*
X79775Y98170D01*
X73240Y100877D01*
X71150Y102967D01*
X71134Y102979D01*
X71122Y102994D01*
X71034Y103050D01*
X70951Y103110D01*
X70932Y103116D01*
X70915Y103127D01*
X70814Y103152D01*
X70715Y103183D01*
X70696Y103182D01*
X70676Y103187D01*
X70573Y103179D01*
X70470Y103176D01*
X70451Y103170D01*
X70431Y103168D01*
X70336Y103128D01*
X70239Y103092D01*
X70223Y103080D01*
X70205Y103072D01*
X70074Y102967D01*
X67984Y100877D01*
X61449Y98170D01*
X54375Y98170D01*
G37*
%LPD*%
%LPC*%
G36*
X-218916Y-61361D02*
X-218916Y-61361D01*
X-224488Y-59053D01*
X-228753Y-54788D01*
X-231061Y-49216D01*
X-231061Y-43184D01*
X-228753Y-37612D01*
X-224488Y-33347D01*
X-218916Y-31039D01*
X-212884Y-31039D01*
X-207312Y-33347D01*
X-203738Y-36921D01*
X-203722Y-36933D01*
X-203710Y-36948D01*
X-203622Y-37004D01*
X-203539Y-37065D01*
X-203520Y-37071D01*
X-203503Y-37081D01*
X-203402Y-37107D01*
X-203303Y-37137D01*
X-203284Y-37137D01*
X-203264Y-37141D01*
X-203161Y-37133D01*
X-203058Y-37131D01*
X-203039Y-37124D01*
X-203019Y-37122D01*
X-202924Y-37082D01*
X-202827Y-37046D01*
X-202811Y-37034D01*
X-202793Y-37026D01*
X-202662Y-36921D01*
X-199088Y-33347D01*
X-193516Y-31039D01*
X-187484Y-31039D01*
X-181912Y-33347D01*
X-178338Y-36921D01*
X-178322Y-36933D01*
X-178310Y-36948D01*
X-178222Y-37004D01*
X-178139Y-37065D01*
X-178120Y-37071D01*
X-178103Y-37081D01*
X-178002Y-37107D01*
X-177903Y-37137D01*
X-177884Y-37137D01*
X-177864Y-37141D01*
X-177761Y-37133D01*
X-177658Y-37131D01*
X-177639Y-37124D01*
X-177619Y-37122D01*
X-177524Y-37082D01*
X-177427Y-37046D01*
X-177411Y-37034D01*
X-177393Y-37026D01*
X-177262Y-36921D01*
X-173688Y-33347D01*
X-168116Y-31039D01*
X-162084Y-31039D01*
X-156512Y-33347D01*
X-152938Y-36921D01*
X-152922Y-36933D01*
X-152910Y-36948D01*
X-152822Y-37004D01*
X-152739Y-37065D01*
X-152720Y-37071D01*
X-152703Y-37081D01*
X-152602Y-37107D01*
X-152503Y-37137D01*
X-152484Y-37137D01*
X-152464Y-37141D01*
X-152361Y-37133D01*
X-152258Y-37131D01*
X-152239Y-37124D01*
X-152219Y-37122D01*
X-152124Y-37082D01*
X-152027Y-37046D01*
X-152011Y-37034D01*
X-151993Y-37026D01*
X-151862Y-36921D01*
X-148288Y-33347D01*
X-142716Y-31039D01*
X-136684Y-31039D01*
X-131112Y-33347D01*
X-127538Y-36921D01*
X-127522Y-36933D01*
X-127510Y-36948D01*
X-127422Y-37004D01*
X-127339Y-37065D01*
X-127320Y-37071D01*
X-127303Y-37081D01*
X-127202Y-37107D01*
X-127103Y-37137D01*
X-127084Y-37137D01*
X-127064Y-37141D01*
X-126961Y-37133D01*
X-126858Y-37131D01*
X-126839Y-37124D01*
X-126819Y-37122D01*
X-126724Y-37082D01*
X-126627Y-37046D01*
X-126611Y-37034D01*
X-126593Y-37026D01*
X-126462Y-36921D01*
X-122888Y-33347D01*
X-117316Y-31039D01*
X-111284Y-31039D01*
X-105712Y-33347D01*
X-101447Y-37612D01*
X-99139Y-43184D01*
X-99139Y-49216D01*
X-101447Y-54788D01*
X-105712Y-59053D01*
X-111284Y-61361D01*
X-117316Y-61361D01*
X-122888Y-59053D01*
X-126462Y-55479D01*
X-126478Y-55467D01*
X-126490Y-55452D01*
X-126578Y-55395D01*
X-126661Y-55335D01*
X-126680Y-55329D01*
X-126697Y-55319D01*
X-126798Y-55293D01*
X-126897Y-55263D01*
X-126916Y-55263D01*
X-126936Y-55259D01*
X-127039Y-55267D01*
X-127142Y-55269D01*
X-127161Y-55276D01*
X-127181Y-55278D01*
X-127276Y-55318D01*
X-127373Y-55354D01*
X-127389Y-55366D01*
X-127407Y-55374D01*
X-127538Y-55479D01*
X-131112Y-59053D01*
X-136684Y-61361D01*
X-142716Y-61361D01*
X-148288Y-59053D01*
X-151862Y-55479D01*
X-151878Y-55467D01*
X-151890Y-55452D01*
X-151978Y-55395D01*
X-152061Y-55335D01*
X-152080Y-55329D01*
X-152097Y-55319D01*
X-152198Y-55293D01*
X-152297Y-55263D01*
X-152316Y-55263D01*
X-152336Y-55259D01*
X-152439Y-55267D01*
X-152542Y-55269D01*
X-152561Y-55276D01*
X-152581Y-55278D01*
X-152676Y-55318D01*
X-152773Y-55354D01*
X-152789Y-55366D01*
X-152807Y-55374D01*
X-152938Y-55479D01*
X-156512Y-59053D01*
X-162084Y-61361D01*
X-168116Y-61361D01*
X-173688Y-59053D01*
X-177262Y-55479D01*
X-177278Y-55467D01*
X-177290Y-55452D01*
X-177378Y-55395D01*
X-177461Y-55335D01*
X-177480Y-55329D01*
X-177497Y-55319D01*
X-177598Y-55293D01*
X-177697Y-55263D01*
X-177716Y-55263D01*
X-177736Y-55259D01*
X-177839Y-55267D01*
X-177942Y-55269D01*
X-177961Y-55276D01*
X-177981Y-55278D01*
X-178076Y-55318D01*
X-178173Y-55354D01*
X-178189Y-55366D01*
X-178207Y-55374D01*
X-178338Y-55479D01*
X-181912Y-59053D01*
X-187484Y-61361D01*
X-193516Y-61361D01*
X-199088Y-59053D01*
X-202662Y-55479D01*
X-202678Y-55467D01*
X-202690Y-55452D01*
X-202778Y-55395D01*
X-202861Y-55335D01*
X-202880Y-55329D01*
X-202897Y-55319D01*
X-202998Y-55293D01*
X-203097Y-55263D01*
X-203116Y-55263D01*
X-203136Y-55259D01*
X-203239Y-55267D01*
X-203342Y-55269D01*
X-203361Y-55276D01*
X-203381Y-55278D01*
X-203476Y-55318D01*
X-203573Y-55354D01*
X-203589Y-55366D01*
X-203607Y-55374D01*
X-203738Y-55479D01*
X-207312Y-59053D01*
X-212884Y-61361D01*
X-218916Y-61361D01*
G37*
%LPD*%
%LPC*%
G36*
X-35784Y-194311D02*
X-35784Y-194311D01*
X-41853Y-191797D01*
X-46497Y-187153D01*
X-49011Y-181084D01*
X-49011Y-174516D01*
X-46497Y-168447D01*
X-41853Y-163803D01*
X-35784Y-161289D01*
X-29216Y-161289D01*
X-23147Y-163803D01*
X-18503Y-168447D01*
X-15989Y-174516D01*
X-15989Y-181084D01*
X-18503Y-187153D01*
X-23147Y-191797D01*
X-29216Y-194311D01*
X-35784Y-194311D01*
G37*
%LPD*%
%LPC*%
G36*
X29216Y-194311D02*
X29216Y-194311D01*
X23147Y-191797D01*
X18503Y-187153D01*
X15989Y-181084D01*
X15989Y-174516D01*
X18503Y-168447D01*
X23147Y-163803D01*
X29216Y-161289D01*
X35784Y-161289D01*
X41853Y-163803D01*
X46497Y-168447D01*
X49011Y-174516D01*
X49011Y-181084D01*
X46497Y-187153D01*
X41853Y-191797D01*
X35784Y-194311D01*
X29216Y-194311D01*
G37*
%LPD*%
%LPC*%
G36*
X109473Y-223377D02*
X109473Y-223377D01*
X109473Y-212709D01*
X111784Y-212709D01*
X112431Y-212882D01*
X113010Y-213217D01*
X113483Y-213690D01*
X113641Y-213963D01*
X113701Y-214037D01*
X113756Y-214115D01*
X113779Y-214132D01*
X113796Y-214153D01*
X113877Y-214204D01*
X113954Y-214261D01*
X113981Y-214269D01*
X114005Y-214284D01*
X114097Y-214306D01*
X114188Y-214335D01*
X114217Y-214335D01*
X114244Y-214342D01*
X114339Y-214333D01*
X114434Y-214332D01*
X114461Y-214322D01*
X114489Y-214320D01*
X114576Y-214282D01*
X114666Y-214250D01*
X114688Y-214232D01*
X114714Y-214221D01*
X114785Y-214157D01*
X114860Y-214098D01*
X114881Y-214070D01*
X114896Y-214056D01*
X114912Y-214027D01*
X114959Y-213963D01*
X115117Y-213690D01*
X115590Y-213217D01*
X116169Y-212882D01*
X116816Y-212709D01*
X119127Y-212709D01*
X119127Y-223377D01*
X109473Y-223377D01*
G37*
%LPD*%
%LPC*%
G36*
X122173Y-223377D02*
X122173Y-223377D01*
X122173Y-212709D01*
X124484Y-212709D01*
X125131Y-212882D01*
X125710Y-213217D01*
X126183Y-213690D01*
X126341Y-213963D01*
X126401Y-214037D01*
X126456Y-214115D01*
X126479Y-214132D01*
X126496Y-214153D01*
X126577Y-214204D01*
X126654Y-214261D01*
X126681Y-214269D01*
X126705Y-214284D01*
X126797Y-214306D01*
X126888Y-214335D01*
X126917Y-214335D01*
X126944Y-214342D01*
X127039Y-214333D01*
X127134Y-214332D01*
X127161Y-214322D01*
X127189Y-214320D01*
X127276Y-214282D01*
X127366Y-214250D01*
X127388Y-214232D01*
X127414Y-214221D01*
X127485Y-214157D01*
X127560Y-214098D01*
X127581Y-214070D01*
X127596Y-214056D01*
X127612Y-214027D01*
X127659Y-213963D01*
X127817Y-213690D01*
X128290Y-213217D01*
X128869Y-212882D01*
X129516Y-212709D01*
X131827Y-212709D01*
X131827Y-223377D01*
X122173Y-223377D01*
G37*
%LPD*%
%LPC*%
G36*
X109473Y-237091D02*
X109473Y-237091D01*
X109473Y-226423D01*
X119127Y-226423D01*
X119127Y-237091D01*
X116816Y-237091D01*
X116169Y-236918D01*
X115590Y-236583D01*
X115117Y-236110D01*
X114959Y-235837D01*
X114915Y-235783D01*
X114888Y-235738D01*
X114871Y-235723D01*
X114844Y-235685D01*
X114821Y-235668D01*
X114803Y-235647D01*
X114722Y-235596D01*
X114719Y-235593D01*
X114701Y-235578D01*
X114695Y-235576D01*
X114646Y-235539D01*
X114619Y-235531D01*
X114595Y-235516D01*
X114502Y-235494D01*
X114412Y-235465D01*
X114383Y-235465D01*
X114356Y-235458D01*
X114261Y-235467D01*
X114166Y-235468D01*
X114139Y-235478D01*
X114111Y-235480D01*
X114024Y-235518D01*
X113934Y-235550D01*
X113912Y-235568D01*
X113886Y-235579D01*
X113844Y-235617D01*
X113833Y-235623D01*
X113810Y-235647D01*
X113740Y-235702D01*
X113719Y-235730D01*
X113704Y-235744D01*
X113688Y-235773D01*
X113679Y-235785D01*
X113664Y-235801D01*
X113658Y-235813D01*
X113641Y-235837D01*
X113483Y-236110D01*
X113010Y-236583D01*
X112431Y-236918D01*
X111784Y-237091D01*
X109473Y-237091D01*
G37*
%LPD*%
%LPC*%
G36*
X122173Y-237091D02*
X122173Y-237091D01*
X122173Y-226423D01*
X131827Y-226423D01*
X131827Y-237091D01*
X129516Y-237091D01*
X128869Y-236918D01*
X128290Y-236583D01*
X127817Y-236110D01*
X127659Y-235837D01*
X127615Y-235783D01*
X127588Y-235738D01*
X127571Y-235723D01*
X127544Y-235685D01*
X127521Y-235668D01*
X127503Y-235647D01*
X127422Y-235596D01*
X127419Y-235593D01*
X127401Y-235578D01*
X127395Y-235576D01*
X127346Y-235539D01*
X127319Y-235531D01*
X127295Y-235516D01*
X127202Y-235494D01*
X127112Y-235465D01*
X127083Y-235465D01*
X127056Y-235458D01*
X126961Y-235467D01*
X126866Y-235468D01*
X126839Y-235478D01*
X126811Y-235480D01*
X126724Y-235518D01*
X126634Y-235550D01*
X126612Y-235568D01*
X126586Y-235579D01*
X126544Y-235617D01*
X126533Y-235623D01*
X126510Y-235647D01*
X126440Y-235702D01*
X126419Y-235730D01*
X126404Y-235744D01*
X126388Y-235773D01*
X126379Y-235785D01*
X126364Y-235801D01*
X126358Y-235813D01*
X126341Y-235837D01*
X126183Y-236110D01*
X125710Y-236583D01*
X125131Y-236918D01*
X124484Y-237091D01*
X122173Y-237091D01*
G37*
%LPD*%
%LPC*%
G36*
X-238761Y130174D02*
X-238761Y130174D01*
X-238761Y137875D01*
X-238588Y138522D01*
X-238253Y139101D01*
X-237780Y139574D01*
X-237201Y139909D01*
X-236554Y140082D01*
X-228853Y140082D01*
X-228853Y130174D01*
X-238761Y130174D01*
G37*
%LPD*%
%LPC*%
G36*
X-236554Y117220D02*
X-236554Y117220D01*
X-237201Y117393D01*
X-237780Y117728D01*
X-238253Y118201D01*
X-238588Y118780D01*
X-238761Y119427D01*
X-238761Y127128D01*
X-228853Y127128D01*
X-228853Y117220D01*
X-236554Y117220D01*
G37*
%LPD*%
%LPC*%
G36*
X19894Y117474D02*
X19894Y117474D01*
X20124Y118925D01*
X20742Y120826D01*
X21649Y122608D01*
X22825Y124225D01*
X24238Y125638D01*
X25855Y126814D01*
X27637Y127721D01*
X29538Y128339D01*
X30989Y128569D01*
X30989Y117474D01*
X19894Y117474D01*
G37*
%LPD*%
%LPC*%
G36*
X29538Y103563D02*
X29538Y103563D01*
X27637Y104181D01*
X25855Y105088D01*
X24238Y106264D01*
X22825Y107677D01*
X21649Y109294D01*
X20742Y111076D01*
X20124Y112977D01*
X19894Y114428D01*
X30989Y114428D01*
X30989Y103333D01*
X29538Y103563D01*
G37*
%LPD*%
%LPC*%
G36*
X267461Y-124459D02*
X267461Y-124459D01*
X276627Y-124459D01*
X276468Y-125464D01*
X275943Y-127080D01*
X275171Y-128594D01*
X274172Y-129969D01*
X272971Y-131170D01*
X271596Y-132169D01*
X270082Y-132941D01*
X268466Y-133466D01*
X267461Y-133625D01*
X267461Y-124459D01*
G37*
%LPD*%
%LPC*%
G36*
X267461Y-121413D02*
X267461Y-121413D01*
X267461Y-112247D01*
X268466Y-112406D01*
X270082Y-112931D01*
X271596Y-113703D01*
X272971Y-114702D01*
X274172Y-115903D01*
X275171Y-117278D01*
X275943Y-118792D01*
X276468Y-120408D01*
X276627Y-121413D01*
X267461Y-121413D01*
G37*
%LPD*%
%LPC*%
G36*
X104116Y-237091D02*
X104116Y-237091D01*
X103469Y-236918D01*
X102890Y-236583D01*
X102417Y-236110D01*
X102082Y-235531D01*
X101909Y-234884D01*
X101909Y-226423D01*
X106427Y-226423D01*
X106427Y-237091D01*
X104116Y-237091D01*
G37*
%LPD*%
%LPC*%
G36*
X101909Y-223377D02*
X101909Y-223377D01*
X101909Y-214916D01*
X102082Y-214269D01*
X102417Y-213690D01*
X102890Y-213217D01*
X103469Y-212882D01*
X104116Y-212709D01*
X106427Y-212709D01*
X106427Y-223377D01*
X101909Y-223377D01*
G37*
%LPD*%
%LPC*%
G36*
X107949Y-224901D02*
X107949Y-224901D01*
X107949Y-224899D01*
X107951Y-224899D01*
X107951Y-224901D01*
X107949Y-224901D01*
G37*
%LPD*%
%LPC*%
G36*
X120649Y-224901D02*
X120649Y-224901D01*
X120649Y-224899D01*
X120651Y-224899D01*
X120651Y-224901D01*
X120649Y-224901D01*
G37*
%LPD*%
D10*
X240538Y-122936D03*
X265938Y-122936D03*
D11*
X107950Y-224900D03*
X120650Y-224900D03*
X133350Y-224900D03*
X146050Y-224900D03*
X158750Y-224900D03*
X171450Y-224900D03*
X184150Y-224900D03*
X196850Y-224900D03*
X196850Y-130700D03*
X184150Y-130700D03*
X171450Y-130700D03*
X158750Y-130700D03*
X146050Y-130700D03*
X133350Y-130700D03*
X120650Y-130700D03*
X107950Y-130700D03*
D12*
X-32500Y-177800D03*
X32500Y-177800D03*
D13*
X267081Y-183134D03*
X292481Y-183134D03*
X317881Y-183134D03*
D14*
X-78147Y-292697D03*
X-103547Y-292697D03*
X-128947Y-292697D03*
D15*
X57912Y115951D03*
X83312Y115951D03*
X108712Y115951D03*
X134112Y115951D03*
X32512Y115951D03*
X159512Y115951D03*
X57912Y293751D03*
X83312Y293751D03*
X108712Y293751D03*
X134112Y293751D03*
D16*
X-227330Y128651D03*
D12*
X-201930Y128651D03*
X-176530Y128651D03*
X-151130Y128651D03*
X-125730Y128651D03*
X-100330Y128651D03*
X-74930Y128651D03*
D17*
X-279400Y-76200D03*
X177800Y0D03*
X-254000Y76200D03*
D18*
X-279400Y76200D03*
D19*
X-228600Y76200D03*
X177800Y-25400D03*
D20*
X177800Y-50800D03*
X177800Y25400D03*
X177800Y50800D03*
X50800Y76200D03*
X50800Y-76200D03*
X-254000Y-76200D03*
X-228600Y-76200D03*
X-203200Y-76200D03*
X-177800Y-76200D03*
X-152400Y-76200D03*
X-127000Y-76200D03*
X-101600Y-76200D03*
X-76200Y-76200D03*
X-50800Y-76200D03*
X-25400Y-76200D03*
X0Y-76200D03*
X25400Y-76200D03*
X-254000Y50800D03*
X25400Y76200D03*
X0Y76200D03*
X-25400Y76200D03*
X-50800Y76200D03*
X-76200Y76200D03*
X-101600Y76200D03*
X-127000Y76200D03*
X-152400Y76200D03*
X-177800Y76200D03*
X-203200Y76200D03*
D19*
X76200Y-76200D03*
D20*
X127000Y-76200D03*
X152400Y-76200D03*
X177800Y-76200D03*
X203200Y-76200D03*
X228600Y-76200D03*
X254000Y-76200D03*
X279400Y-76200D03*
X304800Y-76200D03*
X101600Y76200D03*
X127000Y76200D03*
X152400Y76200D03*
X177800Y76200D03*
X203200Y76200D03*
X228600Y76200D03*
X254000Y76200D03*
X279400Y76200D03*
X304800Y76200D03*
X-215900Y-46200D03*
X-190500Y-46200D03*
X-165100Y-46200D03*
X-139700Y-46200D03*
X-114300Y-46200D03*
X101600Y-76200D03*
D17*
X76200Y76200D03*
D21*
X-104521Y-125095D03*
X-129921Y-125095D03*
X-155321Y-125095D03*
X-180721Y-125095D03*
X-206121Y-125095D03*
X-231521Y-125095D03*
D22*
X77258Y-314706D03*
X172658Y-314706D03*
D23*
X240538Y-152273D02*
X240538Y-122936D01*
X240538Y-152273D02*
X223774Y-169037D01*
X202675Y-169037D02*
X184150Y-150512D01*
X184150Y-130700D01*
X202675Y-169037D02*
X223774Y-169037D01*
X120650Y-130700D02*
X120650Y-107950D01*
X114300Y-101600D01*
X101600Y-101600D01*
D24*
X101600Y-101600D03*
D23*
X90225Y-112975D02*
X107950Y-130700D01*
X90225Y-112975D02*
X88900Y-111650D01*
X88900Y-12700D01*
X50800Y25400D01*
X50800Y76200D01*
X196850Y-196850D02*
X196850Y-224900D01*
X165100Y-165100D02*
X101600Y-165100D01*
X50800Y-114300D01*
X50800Y-76200D01*
X165100Y-165100D02*
X196850Y-196850D01*
X184150Y-209550D02*
X184150Y-224900D01*
X165100Y-190500D02*
X101600Y-190500D01*
X0Y-88900D01*
X0Y-76200D01*
X165100Y-190500D02*
X184150Y-209550D01*
X196850Y-130700D02*
X196850Y-107950D01*
X190500Y-101600D01*
X152400Y-101600D01*
X139700Y-88900D01*
X139700Y-50800D01*
D24*
X139700Y-50800D03*
M02*
