G04 EAGLE Gerber RS-274X export*
G75*
%MOMM*%
%FSLAX34Y34*%
%LPD*%
%INBottom Copper*%
%IPPOS*%
%AMOC8*
5,1,8,0,0,1.08239X$1,22.5*%
G01*
%ADD10C,1.651000*%
%ADD11C,1.778000*%
%ADD12C,1.879600*%
%ADD13C,1.358000*%
%ADD14C,2.032000*%
%ADD15R,1.778000X1.778000*%
%ADD16R,1.508000X1.508000*%
%ADD17C,1.676400*%
%ADD18P,1.632244X8X112.500000*%
%ADD19C,1.508000*%
%ADD20P,1.924489X8X202.500000*%
%ADD21P,3.848979X8X22.500000*%
%ADD22C,2.000000*%
%ADD23C,1.500000*%
%ADD24C,0.250000*%
%ADD25C,0.756400*%

G36*
X10109Y-401681D02*
X10109Y-401681D01*
X10121Y-401681D01*
X48398Y-398901D01*
X48424Y-398895D01*
X48471Y-398892D01*
X86672Y-392368D01*
X86697Y-392359D01*
X86744Y-392352D01*
X124136Y-382171D01*
X124160Y-382160D01*
X124206Y-382148D01*
X160442Y-368406D01*
X160464Y-368393D01*
X160509Y-368377D01*
X195249Y-351201D01*
X195270Y-351186D01*
X195313Y-351166D01*
X228233Y-330718D01*
X228253Y-330700D01*
X228294Y-330676D01*
X259087Y-307146D01*
X259097Y-307135D01*
X259100Y-307133D01*
X259109Y-307124D01*
X259143Y-307098D01*
X287521Y-280707D01*
X287537Y-280686D01*
X287572Y-280654D01*
X313271Y-251646D01*
X313285Y-251624D01*
X313317Y-251589D01*
X336096Y-220237D01*
X336107Y-220213D01*
X336136Y-220175D01*
X355783Y-186771D01*
X355792Y-186746D01*
X355817Y-186705D01*
X372148Y-151561D01*
X372155Y-151536D01*
X372175Y-151493D01*
X385038Y-114936D01*
X385042Y-114914D01*
X385050Y-114897D01*
X385051Y-114887D01*
X385059Y-114865D01*
X394333Y-77238D01*
X394335Y-77212D01*
X394347Y-77165D01*
X399947Y-38818D01*
X399947Y-38793D01*
X399954Y-38745D01*
X401826Y-37D01*
X401823Y-11D01*
X401826Y37D01*
X399954Y38745D01*
X399949Y38771D01*
X399947Y38818D01*
X394347Y77166D01*
X394340Y77190D01*
X394333Y77238D01*
X385059Y114865D01*
X385049Y114889D01*
X385038Y114936D01*
X372175Y151493D01*
X372163Y151516D01*
X372148Y151561D01*
X355817Y186705D01*
X355802Y186727D01*
X355783Y186771D01*
X336136Y220175D01*
X336119Y220195D01*
X336096Y220237D01*
X313317Y251589D01*
X313298Y251607D01*
X313271Y251646D01*
X287572Y280654D01*
X287552Y280670D01*
X287521Y280707D01*
X259143Y307098D01*
X259121Y307113D01*
X259086Y307146D01*
X228294Y330676D01*
X228271Y330688D01*
X228233Y330718D01*
X195313Y351166D01*
X195289Y351175D01*
X195249Y351201D01*
X160509Y368377D01*
X160484Y368384D01*
X160441Y368406D01*
X124206Y382148D01*
X124181Y382153D01*
X124136Y382171D01*
X86744Y392352D01*
X86718Y392355D01*
X86672Y392368D01*
X48471Y398892D01*
X48445Y398892D01*
X48398Y398901D01*
X9746Y401708D01*
X9720Y401706D01*
X9673Y401710D01*
X4962Y401596D01*
X4948Y401593D01*
X4933Y401595D01*
X4827Y401571D01*
X4720Y401551D01*
X4707Y401543D01*
X4693Y401540D01*
X4601Y401483D01*
X4506Y401430D01*
X4496Y401419D01*
X4483Y401411D01*
X4414Y401328D01*
X4341Y401248D01*
X4335Y401234D01*
X4325Y401223D01*
X4286Y401122D01*
X4243Y401022D01*
X4241Y401007D01*
X4236Y400994D01*
X4231Y400886D01*
X4221Y400777D01*
X4225Y400763D01*
X4224Y400748D01*
X4254Y400644D01*
X4280Y400538D01*
X4287Y400526D01*
X4291Y400511D01*
X4353Y400422D01*
X4411Y400330D01*
X4422Y400321D01*
X4431Y400309D01*
X4517Y400244D01*
X4601Y400175D01*
X4615Y400170D01*
X4627Y400161D01*
X4783Y400100D01*
X10677Y398521D01*
X16984Y394879D01*
X22134Y389729D01*
X25776Y383422D01*
X27661Y376387D01*
X27661Y369103D01*
X25776Y362068D01*
X22134Y355761D01*
X16984Y350611D01*
X10677Y346969D01*
X3642Y345084D01*
X-3642Y345084D01*
X-10677Y346969D01*
X-16984Y350611D01*
X-22134Y355761D01*
X-25776Y362068D01*
X-27661Y369103D01*
X-27661Y376387D01*
X-25776Y383422D01*
X-22134Y389729D01*
X-16984Y394879D01*
X-10677Y398521D01*
X-5771Y399835D01*
X-5741Y399849D01*
X-5708Y399855D01*
X-5629Y399899D01*
X-5547Y399936D01*
X-5523Y399959D01*
X-5494Y399975D01*
X-5433Y400042D01*
X-5367Y400104D01*
X-5351Y400133D01*
X-5329Y400158D01*
X-5292Y400241D01*
X-5249Y400320D01*
X-5244Y400353D01*
X-5230Y400383D01*
X-5223Y400473D01*
X-5207Y400562D01*
X-5212Y400595D01*
X-5209Y400628D01*
X-5230Y400716D01*
X-5244Y400805D01*
X-5259Y400835D01*
X-5267Y400867D01*
X-5316Y400944D01*
X-5357Y401024D01*
X-5381Y401047D01*
X-5398Y401075D01*
X-5468Y401132D01*
X-5533Y401195D01*
X-5563Y401210D01*
X-5589Y401231D01*
X-5674Y401262D01*
X-5755Y401301D01*
X-5788Y401305D01*
X-5819Y401317D01*
X-5987Y401331D01*
X-29070Y400774D01*
X-29095Y400769D01*
X-29143Y400768D01*
X-67614Y396097D01*
X-67639Y396090D01*
X-67687Y396085D01*
X-105527Y387722D01*
X-105551Y387712D01*
X-105598Y387703D01*
X-142455Y375727D01*
X-142478Y375715D01*
X-142524Y375701D01*
X-178053Y360224D01*
X-178075Y360210D01*
X-178119Y360192D01*
X-211989Y341358D01*
X-212009Y341342D01*
X-212051Y341319D01*
X-243945Y319305D01*
X-243963Y319287D01*
X-244003Y319260D01*
X-273623Y294270D01*
X-273640Y294250D01*
X-273677Y294220D01*
X-300747Y266488D01*
X-300762Y266466D01*
X-300796Y266433D01*
X-325063Y236217D01*
X-325076Y236195D01*
X-325085Y236183D01*
X-325099Y236169D01*
X-325101Y236164D01*
X-325106Y236158D01*
X-346343Y203742D01*
X-346354Y203718D01*
X-346381Y203678D01*
X-364391Y169363D01*
X-364399Y169339D01*
X-364422Y169297D01*
X-379035Y133404D01*
X-379041Y133379D01*
X-379060Y133335D01*
X-390141Y96199D01*
X-390145Y96173D01*
X-390159Y96128D01*
X-397604Y58096D01*
X-397605Y58070D01*
X-397615Y58023D01*
X-401355Y19450D01*
X-401354Y19424D01*
X-401359Y19377D01*
X-401359Y12561D01*
X-401351Y12514D01*
X-401353Y12466D01*
X-401331Y12393D01*
X-401319Y12318D01*
X-401297Y12276D01*
X-401283Y12230D01*
X-401240Y12168D01*
X-401204Y12101D01*
X-401169Y12068D01*
X-401142Y12029D01*
X-401081Y11984D01*
X-401026Y11932D01*
X-400982Y11911D01*
X-400944Y11883D01*
X-400871Y11860D01*
X-400803Y11828D01*
X-400755Y11823D01*
X-400709Y11808D01*
X-400633Y11809D01*
X-400558Y11801D01*
X-400511Y11811D01*
X-400463Y11812D01*
X-400392Y11837D01*
X-400318Y11853D01*
X-400277Y11878D01*
X-400231Y11894D01*
X-400172Y11941D01*
X-400107Y11979D01*
X-400076Y12016D01*
X-400038Y12045D01*
X-399962Y12149D01*
X-399947Y12166D01*
X-399944Y12173D01*
X-399938Y12181D01*
X-397165Y16984D01*
X-392015Y22134D01*
X-385708Y25776D01*
X-378673Y27661D01*
X-371389Y27661D01*
X-364354Y25776D01*
X-358047Y22134D01*
X-352897Y16984D01*
X-349255Y10677D01*
X-347370Y3642D01*
X-347370Y-3642D01*
X-349255Y-10677D01*
X-352897Y-16984D01*
X-358047Y-22134D01*
X-364354Y-25776D01*
X-371389Y-27661D01*
X-378673Y-27661D01*
X-385708Y-25776D01*
X-392015Y-22134D01*
X-397165Y-16984D01*
X-399938Y-12181D01*
X-399969Y-12143D01*
X-399991Y-12101D01*
X-400046Y-12049D01*
X-400094Y-11990D01*
X-400135Y-11965D01*
X-400170Y-11932D01*
X-400238Y-11900D01*
X-400303Y-11859D01*
X-400349Y-11848D01*
X-400393Y-11828D01*
X-400468Y-11820D01*
X-400542Y-11802D01*
X-400589Y-11806D01*
X-400637Y-11801D01*
X-400711Y-11817D01*
X-400787Y-11824D01*
X-400831Y-11843D01*
X-400877Y-11853D01*
X-400943Y-11892D01*
X-401012Y-11923D01*
X-401047Y-11955D01*
X-401089Y-11979D01*
X-401138Y-12037D01*
X-401194Y-12088D01*
X-401217Y-12130D01*
X-401249Y-12166D01*
X-401277Y-12237D01*
X-401314Y-12303D01*
X-401322Y-12350D01*
X-401340Y-12394D01*
X-401355Y-12523D01*
X-401359Y-12545D01*
X-401358Y-12551D01*
X-401359Y-12561D01*
X-401359Y-19377D01*
X-401355Y-19403D01*
X-401355Y-19450D01*
X-397615Y-58023D01*
X-397608Y-58048D01*
X-397604Y-58096D01*
X-390159Y-96128D01*
X-390150Y-96152D01*
X-390141Y-96199D01*
X-379060Y-133335D01*
X-379048Y-133358D01*
X-379035Y-133404D01*
X-364422Y-169297D01*
X-364408Y-169319D01*
X-364391Y-169363D01*
X-346381Y-203678D01*
X-346365Y-203699D01*
X-346343Y-203742D01*
X-325106Y-236158D01*
X-325088Y-236177D01*
X-325063Y-236217D01*
X-300796Y-266433D01*
X-300776Y-266450D01*
X-300747Y-266488D01*
X-273677Y-294220D01*
X-273656Y-294235D01*
X-273623Y-294270D01*
X-244003Y-319260D01*
X-243981Y-319273D01*
X-243945Y-319305D01*
X-212051Y-341319D01*
X-212027Y-341330D01*
X-211989Y-341358D01*
X-178119Y-360192D01*
X-178094Y-360201D01*
X-178053Y-360224D01*
X-142524Y-375701D01*
X-142499Y-375708D01*
X-142455Y-375727D01*
X-105598Y-387703D01*
X-105572Y-387707D01*
X-105527Y-387722D01*
X-104442Y-387962D01*
X-100997Y-388723D01*
X-97552Y-389484D01*
X-97552Y-389485D01*
X-67687Y-396085D01*
X-67660Y-396086D01*
X-67614Y-396097D01*
X-29143Y-400768D01*
X-29117Y-400767D01*
X-29070Y-400774D01*
X-9419Y-401248D01*
X-9386Y-401244D01*
X-9353Y-401247D01*
X-9265Y-401227D01*
X-9175Y-401215D01*
X-9146Y-401200D01*
X-9113Y-401192D01*
X-9036Y-401145D01*
X-8955Y-401105D01*
X-8932Y-401081D01*
X-8903Y-401064D01*
X-8845Y-400995D01*
X-8782Y-400931D01*
X-8767Y-400901D01*
X-8745Y-400875D01*
X-8713Y-400791D01*
X-8673Y-400710D01*
X-8668Y-400677D01*
X-8656Y-400646D01*
X-8652Y-400556D01*
X-8640Y-400466D01*
X-8646Y-400434D01*
X-8644Y-400400D01*
X-8669Y-400313D01*
X-8686Y-400225D01*
X-8702Y-400196D01*
X-8712Y-400164D01*
X-8763Y-400089D01*
X-8807Y-400011D01*
X-8832Y-399988D01*
X-8851Y-399961D01*
X-8923Y-399907D01*
X-8990Y-399846D01*
X-9021Y-399833D01*
X-9047Y-399813D01*
X-9204Y-399752D01*
X-9534Y-399664D01*
X-15841Y-396022D01*
X-20991Y-390872D01*
X-24633Y-384565D01*
X-26518Y-377530D01*
X-26518Y-370246D01*
X-24633Y-363211D01*
X-20991Y-356904D01*
X-15841Y-351754D01*
X-9534Y-348112D01*
X-2499Y-346227D01*
X4785Y-346227D01*
X11820Y-348112D01*
X18127Y-351754D01*
X23277Y-356904D01*
X26919Y-363211D01*
X28804Y-370246D01*
X28804Y-377530D01*
X26919Y-384565D01*
X23277Y-390872D01*
X18127Y-396022D01*
X11820Y-399664D01*
X9869Y-400186D01*
X9822Y-400208D01*
X9771Y-400220D01*
X9710Y-400258D01*
X9645Y-400288D01*
X9607Y-400323D01*
X9563Y-400350D01*
X9517Y-400406D01*
X9464Y-400455D01*
X9440Y-400500D01*
X9407Y-400540D01*
X9381Y-400608D01*
X9347Y-400671D01*
X9338Y-400722D01*
X9320Y-400770D01*
X9317Y-400842D01*
X9305Y-400913D01*
X9312Y-400965D01*
X9310Y-401016D01*
X9331Y-401085D01*
X9342Y-401157D01*
X9365Y-401202D01*
X9380Y-401252D01*
X9422Y-401311D01*
X9454Y-401375D01*
X9491Y-401411D01*
X9521Y-401454D01*
X9579Y-401496D01*
X9631Y-401547D01*
X9678Y-401569D01*
X9719Y-401599D01*
X9788Y-401621D01*
X9853Y-401653D01*
X9904Y-401659D01*
X9953Y-401675D01*
X10070Y-401679D01*
X10097Y-401682D01*
X10109Y-401681D01*
G37*
%LPC*%
G36*
X67789Y-337567D02*
X67789Y-337567D01*
X61375Y-331153D01*
X61301Y-331100D01*
X61231Y-331040D01*
X61201Y-331028D01*
X61175Y-331009D01*
X61088Y-330982D01*
X61003Y-330948D01*
X60962Y-330944D01*
X60940Y-330937D01*
X60908Y-330938D01*
X60836Y-330930D01*
X13383Y-330930D01*
X7840Y-328634D01*
X3491Y-324284D01*
X-12793Y-308001D01*
X-12867Y-307948D01*
X-12936Y-307888D01*
X-12966Y-307876D01*
X-12992Y-307857D01*
X-13079Y-307830D01*
X-13164Y-307796D01*
X-13205Y-307792D01*
X-13228Y-307785D01*
X-13260Y-307786D01*
X-13331Y-307778D01*
X-81147Y-307778D01*
X-86690Y-305482D01*
X-90932Y-301240D01*
X-93256Y-295629D01*
X-93293Y-295569D01*
X-93323Y-295503D01*
X-93358Y-295465D01*
X-93385Y-295420D01*
X-93440Y-295375D01*
X-93489Y-295322D01*
X-93535Y-295297D01*
X-93575Y-295264D01*
X-93642Y-295238D01*
X-93704Y-295203D01*
X-93756Y-295194D01*
X-93804Y-295175D01*
X-93876Y-295172D01*
X-93946Y-295160D01*
X-93998Y-295167D01*
X-94050Y-295165D01*
X-94119Y-295185D01*
X-94190Y-295195D01*
X-94236Y-295219D01*
X-94286Y-295234D01*
X-94345Y-295274D01*
X-94409Y-295307D01*
X-94446Y-295344D01*
X-94488Y-295374D01*
X-94531Y-295431D01*
X-94581Y-295483D01*
X-94616Y-295545D01*
X-94635Y-295571D01*
X-94642Y-295593D01*
X-94662Y-295629D01*
X-95278Y-297117D01*
X-96299Y-298645D01*
X-97599Y-299945D01*
X-99127Y-300966D01*
X-100825Y-301669D01*
X-102024Y-301908D01*
X-102024Y-293459D01*
X-102027Y-293439D01*
X-102025Y-293420D01*
X-102047Y-293318D01*
X-102064Y-293216D01*
X-102073Y-293199D01*
X-102077Y-293179D01*
X-102130Y-293090D01*
X-102179Y-292999D01*
X-102193Y-292985D01*
X-102203Y-292968D01*
X-102282Y-292901D01*
X-102357Y-292830D01*
X-102375Y-292821D01*
X-102390Y-292808D01*
X-102486Y-292770D01*
X-102580Y-292726D01*
X-102600Y-292724D01*
X-102618Y-292716D01*
X-102785Y-292698D01*
X-103548Y-292698D01*
X-103548Y-292696D01*
X-102785Y-292696D01*
X-102765Y-292693D01*
X-102746Y-292695D01*
X-102644Y-292673D01*
X-102542Y-292656D01*
X-102525Y-292647D01*
X-102505Y-292643D01*
X-102416Y-292590D01*
X-102325Y-292541D01*
X-102311Y-292527D01*
X-102294Y-292517D01*
X-102227Y-292438D01*
X-102156Y-292363D01*
X-102147Y-292345D01*
X-102134Y-292330D01*
X-102095Y-292234D01*
X-102052Y-292140D01*
X-102050Y-292120D01*
X-102042Y-292102D01*
X-102024Y-291935D01*
X-102024Y-283486D01*
X-100825Y-283725D01*
X-99127Y-284428D01*
X-97599Y-285449D01*
X-96299Y-286749D01*
X-95278Y-288277D01*
X-94662Y-289765D01*
X-94624Y-289826D01*
X-94595Y-289891D01*
X-94560Y-289929D01*
X-94533Y-289974D01*
X-94477Y-290019D01*
X-94429Y-290072D01*
X-94383Y-290097D01*
X-94343Y-290130D01*
X-94276Y-290156D01*
X-94213Y-290191D01*
X-94162Y-290200D01*
X-94113Y-290219D01*
X-94042Y-290222D01*
X-93971Y-290234D01*
X-93920Y-290227D01*
X-93868Y-290229D01*
X-93799Y-290209D01*
X-93728Y-290199D01*
X-93682Y-290175D01*
X-93632Y-290160D01*
X-93573Y-290120D01*
X-93509Y-290087D01*
X-93472Y-290050D01*
X-93429Y-290020D01*
X-93387Y-289963D01*
X-93336Y-289911D01*
X-93302Y-289849D01*
X-93283Y-289823D01*
X-93275Y-289801D01*
X-93256Y-289765D01*
X-90932Y-284154D01*
X-86690Y-279912D01*
X-81147Y-277616D01*
X-3769Y-277616D01*
X1774Y-279912D01*
X22407Y-300545D01*
X22481Y-300598D01*
X22550Y-300658D01*
X22580Y-300670D01*
X22606Y-300689D01*
X22693Y-300716D01*
X22778Y-300750D01*
X22819Y-300754D01*
X22842Y-300761D01*
X22874Y-300760D01*
X22945Y-300768D01*
X58550Y-300768D01*
X58641Y-300754D01*
X58731Y-300746D01*
X58761Y-300734D01*
X58793Y-300729D01*
X58874Y-300686D01*
X58958Y-300650D01*
X58990Y-300624D01*
X59011Y-300613D01*
X59033Y-300590D01*
X59089Y-300545D01*
X61954Y-297680D01*
X62007Y-297606D01*
X62067Y-297536D01*
X62079Y-297506D01*
X62098Y-297480D01*
X62125Y-297393D01*
X62159Y-297308D01*
X62163Y-297267D01*
X62170Y-297245D01*
X62169Y-297213D01*
X62177Y-297141D01*
X62177Y-284613D01*
X64473Y-279070D01*
X115790Y-227753D01*
X121333Y-225457D01*
X258868Y-225457D01*
X258958Y-225443D01*
X259049Y-225435D01*
X259079Y-225423D01*
X259111Y-225418D01*
X259191Y-225375D01*
X259275Y-225339D01*
X259307Y-225313D01*
X259328Y-225302D01*
X259350Y-225279D01*
X259406Y-225234D01*
X277177Y-207463D01*
X277230Y-207389D01*
X277290Y-207320D01*
X277302Y-207290D01*
X277321Y-207264D01*
X277348Y-207177D01*
X277382Y-207092D01*
X277386Y-207051D01*
X277393Y-207028D01*
X277392Y-206996D01*
X277400Y-206925D01*
X277400Y-195129D01*
X277389Y-195058D01*
X277387Y-194986D01*
X277369Y-194937D01*
X277361Y-194886D01*
X277327Y-194822D01*
X277302Y-194755D01*
X277270Y-194714D01*
X277245Y-194668D01*
X277193Y-194619D01*
X277149Y-194563D01*
X277105Y-194535D01*
X277067Y-194499D01*
X277002Y-194469D01*
X276942Y-194430D01*
X276891Y-194417D01*
X276844Y-194395D01*
X276773Y-194388D01*
X276703Y-194370D01*
X276651Y-194374D01*
X276600Y-194368D01*
X276529Y-194384D01*
X276458Y-194389D01*
X276410Y-194409D01*
X276359Y-194421D01*
X276298Y-194457D01*
X276232Y-194485D01*
X276176Y-194530D01*
X276148Y-194547D01*
X276133Y-194565D01*
X276101Y-194590D01*
X275283Y-195408D01*
X269961Y-197613D01*
X264201Y-197613D01*
X258879Y-195408D01*
X254807Y-191336D01*
X254226Y-189935D01*
X254164Y-189835D01*
X254105Y-189735D01*
X254100Y-189731D01*
X254097Y-189726D01*
X254006Y-189651D01*
X253918Y-189575D01*
X253912Y-189573D01*
X253907Y-189569D01*
X253799Y-189527D01*
X253690Y-189483D01*
X253682Y-189482D01*
X253678Y-189481D01*
X253659Y-189480D01*
X253523Y-189465D01*
X80275Y-189465D01*
X77948Y-188501D01*
X76060Y-186613D01*
X-21712Y-88841D01*
X-21805Y-88774D01*
X-21900Y-88703D01*
X-21906Y-88701D01*
X-21911Y-88698D01*
X-22022Y-88664D01*
X-22134Y-88627D01*
X-22140Y-88627D01*
X-22146Y-88626D01*
X-22263Y-88629D01*
X-22380Y-88630D01*
X-22387Y-88632D01*
X-22392Y-88632D01*
X-22410Y-88638D01*
X-22541Y-88676D01*
X-22890Y-88821D01*
X-27910Y-88821D01*
X-32549Y-86899D01*
X-36099Y-83349D01*
X-37397Y-80217D01*
X-37435Y-80156D01*
X-37464Y-80091D01*
X-37499Y-80052D01*
X-37526Y-80008D01*
X-37582Y-79962D01*
X-37630Y-79909D01*
X-37676Y-79884D01*
X-37716Y-79851D01*
X-37783Y-79825D01*
X-37846Y-79791D01*
X-37897Y-79782D01*
X-37945Y-79763D01*
X-38017Y-79760D01*
X-38088Y-79747D01*
X-38139Y-79755D01*
X-38191Y-79753D01*
X-38260Y-79772D01*
X-38331Y-79783D01*
X-38377Y-79807D01*
X-38427Y-79821D01*
X-38486Y-79862D01*
X-38550Y-79894D01*
X-38587Y-79932D01*
X-38629Y-79961D01*
X-38672Y-80019D01*
X-38722Y-80070D01*
X-38757Y-80133D01*
X-38776Y-80159D01*
X-38783Y-80181D01*
X-38803Y-80217D01*
X-40101Y-83349D01*
X-43651Y-86899D01*
X-48290Y-88821D01*
X-53310Y-88821D01*
X-57949Y-86899D01*
X-61499Y-83349D01*
X-62797Y-80217D01*
X-62835Y-80156D01*
X-62864Y-80091D01*
X-62899Y-80052D01*
X-62926Y-80008D01*
X-62982Y-79962D01*
X-63030Y-79909D01*
X-63076Y-79884D01*
X-63116Y-79851D01*
X-63183Y-79825D01*
X-63246Y-79791D01*
X-63297Y-79782D01*
X-63345Y-79763D01*
X-63417Y-79760D01*
X-63488Y-79747D01*
X-63539Y-79755D01*
X-63591Y-79753D01*
X-63660Y-79772D01*
X-63731Y-79783D01*
X-63777Y-79807D01*
X-63827Y-79821D01*
X-63886Y-79862D01*
X-63950Y-79894D01*
X-63987Y-79932D01*
X-64029Y-79961D01*
X-64072Y-80019D01*
X-64122Y-80070D01*
X-64157Y-80133D01*
X-64176Y-80159D01*
X-64183Y-80181D01*
X-64203Y-80217D01*
X-65501Y-83349D01*
X-69051Y-86899D01*
X-73690Y-88821D01*
X-78188Y-88821D01*
X-78259Y-88832D01*
X-78331Y-88834D01*
X-78380Y-88852D01*
X-78431Y-88860D01*
X-78495Y-88894D01*
X-78562Y-88919D01*
X-78603Y-88951D01*
X-78649Y-88976D01*
X-78698Y-89028D01*
X-78754Y-89072D01*
X-78782Y-89116D01*
X-78818Y-89154D01*
X-78848Y-89219D01*
X-78887Y-89279D01*
X-78900Y-89330D01*
X-78922Y-89377D01*
X-78929Y-89448D01*
X-78947Y-89518D01*
X-78943Y-89570D01*
X-78949Y-89621D01*
X-78933Y-89692D01*
X-78928Y-89763D01*
X-78908Y-89811D01*
X-78896Y-89862D01*
X-78860Y-89923D01*
X-78832Y-89989D01*
X-78787Y-90045D01*
X-78770Y-90073D01*
X-78752Y-90088D01*
X-78727Y-90120D01*
X-29021Y-139826D01*
X-27133Y-141714D01*
X-26169Y-144041D01*
X-26169Y-164792D01*
X-26150Y-164906D01*
X-26133Y-165023D01*
X-26131Y-165028D01*
X-26130Y-165035D01*
X-26075Y-165137D01*
X-26022Y-165242D01*
X-26017Y-165246D01*
X-26014Y-165252D01*
X-25930Y-165332D01*
X-25846Y-165414D01*
X-25840Y-165418D01*
X-25836Y-165421D01*
X-25819Y-165429D01*
X-25699Y-165495D01*
X-24586Y-165956D01*
X-20656Y-169886D01*
X-18529Y-175021D01*
X-18529Y-180579D01*
X-20656Y-185714D01*
X-24586Y-189644D01*
X-29721Y-191771D01*
X-35279Y-191771D01*
X-40414Y-189644D01*
X-44344Y-185714D01*
X-46471Y-180579D01*
X-46471Y-175021D01*
X-44344Y-169886D01*
X-40414Y-165956D01*
X-39301Y-165495D01*
X-39201Y-165433D01*
X-39101Y-165374D01*
X-39097Y-165369D01*
X-39092Y-165366D01*
X-39017Y-165275D01*
X-38941Y-165187D01*
X-38939Y-165181D01*
X-38935Y-165176D01*
X-38893Y-165068D01*
X-38849Y-164959D01*
X-38848Y-164951D01*
X-38847Y-164946D01*
X-38846Y-164928D01*
X-38831Y-164792D01*
X-38831Y-148238D01*
X-38845Y-148148D01*
X-38853Y-148057D01*
X-38865Y-148027D01*
X-38870Y-147995D01*
X-38913Y-147914D01*
X-38949Y-147830D01*
X-38975Y-147798D01*
X-38986Y-147777D01*
X-39009Y-147755D01*
X-39054Y-147699D01*
X-97912Y-88841D01*
X-98005Y-88774D01*
X-98100Y-88703D01*
X-98106Y-88701D01*
X-98111Y-88698D01*
X-98222Y-88664D01*
X-98334Y-88627D01*
X-98340Y-88627D01*
X-98346Y-88626D01*
X-98463Y-88629D01*
X-98580Y-88630D01*
X-98587Y-88632D01*
X-98592Y-88632D01*
X-98610Y-88638D01*
X-98741Y-88676D01*
X-99090Y-88821D01*
X-104110Y-88821D01*
X-108749Y-86899D01*
X-112299Y-83349D01*
X-113597Y-80217D01*
X-113635Y-80156D01*
X-113664Y-80091D01*
X-113699Y-80052D01*
X-113726Y-80008D01*
X-113782Y-79962D01*
X-113830Y-79909D01*
X-113876Y-79884D01*
X-113916Y-79851D01*
X-113983Y-79825D01*
X-114046Y-79791D01*
X-114097Y-79782D01*
X-114145Y-79763D01*
X-114217Y-79760D01*
X-114288Y-79747D01*
X-114339Y-79755D01*
X-114391Y-79753D01*
X-114460Y-79772D01*
X-114531Y-79783D01*
X-114577Y-79807D01*
X-114627Y-79821D01*
X-114686Y-79862D01*
X-114750Y-79894D01*
X-114787Y-79932D01*
X-114829Y-79961D01*
X-114872Y-80019D01*
X-114922Y-80070D01*
X-114957Y-80133D01*
X-114976Y-80159D01*
X-114983Y-80181D01*
X-115003Y-80217D01*
X-116301Y-83349D01*
X-119851Y-86899D01*
X-124490Y-88821D01*
X-129510Y-88821D01*
X-134149Y-86899D01*
X-137699Y-83349D01*
X-138997Y-80217D01*
X-139035Y-80156D01*
X-139064Y-80091D01*
X-139099Y-80052D01*
X-139126Y-80008D01*
X-139182Y-79962D01*
X-139230Y-79909D01*
X-139276Y-79884D01*
X-139316Y-79851D01*
X-139383Y-79825D01*
X-139446Y-79791D01*
X-139497Y-79782D01*
X-139545Y-79763D01*
X-139617Y-79760D01*
X-139688Y-79747D01*
X-139739Y-79755D01*
X-139791Y-79753D01*
X-139860Y-79772D01*
X-139931Y-79783D01*
X-139977Y-79807D01*
X-140027Y-79821D01*
X-140086Y-79862D01*
X-140150Y-79894D01*
X-140187Y-79932D01*
X-140229Y-79961D01*
X-140272Y-80019D01*
X-140322Y-80070D01*
X-140357Y-80133D01*
X-140376Y-80159D01*
X-140383Y-80181D01*
X-140403Y-80217D01*
X-141701Y-83349D01*
X-145251Y-86899D01*
X-149890Y-88821D01*
X-154910Y-88821D01*
X-159549Y-86899D01*
X-163099Y-83349D01*
X-164397Y-80217D01*
X-164435Y-80156D01*
X-164464Y-80091D01*
X-164499Y-80052D01*
X-164526Y-80008D01*
X-164582Y-79962D01*
X-164630Y-79909D01*
X-164676Y-79884D01*
X-164716Y-79851D01*
X-164783Y-79825D01*
X-164846Y-79791D01*
X-164897Y-79782D01*
X-164945Y-79763D01*
X-165017Y-79760D01*
X-165088Y-79747D01*
X-165139Y-79755D01*
X-165191Y-79753D01*
X-165260Y-79772D01*
X-165331Y-79783D01*
X-165377Y-79807D01*
X-165427Y-79821D01*
X-165486Y-79862D01*
X-165550Y-79894D01*
X-165587Y-79932D01*
X-165629Y-79961D01*
X-165672Y-80019D01*
X-165722Y-80070D01*
X-165757Y-80133D01*
X-165776Y-80159D01*
X-165783Y-80181D01*
X-165803Y-80217D01*
X-167101Y-83349D01*
X-170651Y-86899D01*
X-175290Y-88821D01*
X-180310Y-88821D01*
X-184949Y-86899D01*
X-188499Y-83349D01*
X-189797Y-80217D01*
X-189835Y-80156D01*
X-189864Y-80091D01*
X-189899Y-80052D01*
X-189926Y-80008D01*
X-189982Y-79962D01*
X-190030Y-79909D01*
X-190076Y-79884D01*
X-190116Y-79851D01*
X-190183Y-79825D01*
X-190246Y-79791D01*
X-190297Y-79782D01*
X-190345Y-79763D01*
X-190417Y-79760D01*
X-190488Y-79747D01*
X-190539Y-79755D01*
X-190591Y-79753D01*
X-190660Y-79772D01*
X-190731Y-79783D01*
X-190777Y-79807D01*
X-190827Y-79821D01*
X-190886Y-79862D01*
X-190950Y-79894D01*
X-190987Y-79932D01*
X-191029Y-79961D01*
X-191072Y-80019D01*
X-191122Y-80070D01*
X-191157Y-80133D01*
X-191176Y-80159D01*
X-191183Y-80181D01*
X-191203Y-80217D01*
X-192501Y-83349D01*
X-196051Y-86899D01*
X-200690Y-88821D01*
X-205710Y-88821D01*
X-210349Y-86899D01*
X-213899Y-83349D01*
X-215197Y-80217D01*
X-215235Y-80156D01*
X-215264Y-80091D01*
X-215299Y-80052D01*
X-215326Y-80008D01*
X-215382Y-79962D01*
X-215430Y-79909D01*
X-215476Y-79884D01*
X-215516Y-79851D01*
X-215583Y-79825D01*
X-215646Y-79791D01*
X-215697Y-79782D01*
X-215745Y-79763D01*
X-215817Y-79760D01*
X-215888Y-79747D01*
X-215939Y-79755D01*
X-215991Y-79753D01*
X-216060Y-79772D01*
X-216131Y-79783D01*
X-216177Y-79807D01*
X-216227Y-79821D01*
X-216286Y-79862D01*
X-216350Y-79894D01*
X-216387Y-79932D01*
X-216429Y-79961D01*
X-216472Y-80019D01*
X-216522Y-80070D01*
X-216557Y-80133D01*
X-216576Y-80159D01*
X-216583Y-80181D01*
X-216603Y-80217D01*
X-217901Y-83349D01*
X-219741Y-85189D01*
X-219753Y-85206D01*
X-219768Y-85218D01*
X-219824Y-85305D01*
X-219885Y-85389D01*
X-219890Y-85408D01*
X-219901Y-85425D01*
X-219926Y-85525D01*
X-219957Y-85624D01*
X-219956Y-85644D01*
X-219961Y-85663D01*
X-219953Y-85766D01*
X-219951Y-85870D01*
X-219944Y-85889D01*
X-219942Y-85909D01*
X-219902Y-86004D01*
X-219866Y-86101D01*
X-219854Y-86117D01*
X-219846Y-86135D01*
X-219741Y-86266D01*
X-213501Y-92506D01*
X-213427Y-92559D01*
X-213357Y-92619D01*
X-213327Y-92631D01*
X-213301Y-92650D01*
X-213214Y-92677D01*
X-213129Y-92711D01*
X-213088Y-92715D01*
X-213066Y-92722D01*
X-213034Y-92721D01*
X-212962Y-92729D01*
X-154697Y-92729D01*
X-152370Y-93693D01*
X-150482Y-95581D01*
X-135162Y-110901D01*
X-135088Y-110954D01*
X-135018Y-111014D01*
X-134988Y-111026D01*
X-134962Y-111045D01*
X-134875Y-111072D01*
X-134790Y-111106D01*
X-134749Y-111110D01*
X-134727Y-111117D01*
X-134695Y-111116D01*
X-134623Y-111124D01*
X-124134Y-111124D01*
X-117759Y-117499D01*
X-117743Y-117511D01*
X-117731Y-117526D01*
X-117643Y-117582D01*
X-117560Y-117643D01*
X-117541Y-117649D01*
X-117524Y-117659D01*
X-117423Y-117685D01*
X-117324Y-117715D01*
X-117305Y-117715D01*
X-117285Y-117719D01*
X-117182Y-117711D01*
X-117079Y-117709D01*
X-117060Y-117702D01*
X-117040Y-117700D01*
X-116945Y-117660D01*
X-116848Y-117624D01*
X-116832Y-117612D01*
X-116814Y-117604D01*
X-116683Y-117499D01*
X-110308Y-111124D01*
X-98734Y-111124D01*
X-90550Y-119308D01*
X-90550Y-130882D01*
X-98734Y-139066D01*
X-110308Y-139066D01*
X-116683Y-132691D01*
X-116699Y-132679D01*
X-116711Y-132664D01*
X-116799Y-132608D01*
X-116882Y-132547D01*
X-116901Y-132541D01*
X-116918Y-132531D01*
X-117019Y-132505D01*
X-117118Y-132475D01*
X-117137Y-132475D01*
X-117157Y-132471D01*
X-117260Y-132479D01*
X-117363Y-132481D01*
X-117382Y-132488D01*
X-117402Y-132490D01*
X-117497Y-132530D01*
X-117594Y-132566D01*
X-117610Y-132578D01*
X-117628Y-132586D01*
X-117759Y-132691D01*
X-124134Y-139066D01*
X-135708Y-139066D01*
X-142083Y-132691D01*
X-142099Y-132679D01*
X-142111Y-132664D01*
X-142199Y-132608D01*
X-142282Y-132547D01*
X-142301Y-132541D01*
X-142318Y-132531D01*
X-142419Y-132505D01*
X-142518Y-132475D01*
X-142537Y-132475D01*
X-142557Y-132471D01*
X-142660Y-132479D01*
X-142763Y-132481D01*
X-142782Y-132488D01*
X-142802Y-132490D01*
X-142897Y-132530D01*
X-142994Y-132566D01*
X-143010Y-132578D01*
X-143028Y-132586D01*
X-143159Y-132691D01*
X-149534Y-139066D01*
X-161108Y-139066D01*
X-169279Y-130895D01*
X-169295Y-130883D01*
X-169307Y-130868D01*
X-169372Y-130826D01*
X-169416Y-130788D01*
X-169441Y-130779D01*
X-169478Y-130751D01*
X-169497Y-130745D01*
X-169514Y-130735D01*
X-169608Y-130711D01*
X-169644Y-130696D01*
X-169663Y-130694D01*
X-169714Y-130679D01*
X-169734Y-130679D01*
X-169753Y-130675D01*
X-169805Y-130679D01*
X-169811Y-130678D01*
X-169823Y-130678D01*
X-169847Y-130682D01*
X-169856Y-130683D01*
X-169959Y-130685D01*
X-169978Y-130692D01*
X-169998Y-130694D01*
X-170047Y-130715D01*
X-170066Y-130718D01*
X-170105Y-130739D01*
X-170190Y-130770D01*
X-170206Y-130782D01*
X-170224Y-130790D01*
X-170267Y-130824D01*
X-170283Y-130833D01*
X-170301Y-130851D01*
X-170355Y-130895D01*
X-175986Y-136526D01*
X-179198Y-136526D01*
X-179198Y-125857D01*
X-179201Y-125837D01*
X-179199Y-125818D01*
X-179221Y-125716D01*
X-179238Y-125614D01*
X-179247Y-125597D01*
X-179251Y-125577D01*
X-179304Y-125488D01*
X-179353Y-125397D01*
X-179367Y-125383D01*
X-179377Y-125366D01*
X-179456Y-125299D01*
X-179531Y-125228D01*
X-179549Y-125219D01*
X-179564Y-125206D01*
X-179660Y-125168D01*
X-179754Y-125124D01*
X-179774Y-125122D01*
X-179792Y-125114D01*
X-179959Y-125096D01*
X-181483Y-125096D01*
X-181503Y-125099D01*
X-181522Y-125097D01*
X-181624Y-125119D01*
X-181726Y-125136D01*
X-181743Y-125145D01*
X-181763Y-125149D01*
X-181852Y-125202D01*
X-181943Y-125251D01*
X-181957Y-125265D01*
X-181974Y-125275D01*
X-182041Y-125354D01*
X-182112Y-125429D01*
X-182121Y-125447D01*
X-182134Y-125462D01*
X-182173Y-125558D01*
X-182216Y-125652D01*
X-182218Y-125672D01*
X-182226Y-125690D01*
X-182244Y-125857D01*
X-182244Y-136526D01*
X-185456Y-136526D01*
X-191087Y-130895D01*
X-191103Y-130883D01*
X-191115Y-130868D01*
X-191180Y-130826D01*
X-191224Y-130788D01*
X-191248Y-130779D01*
X-191286Y-130751D01*
X-191305Y-130745D01*
X-191322Y-130735D01*
X-191416Y-130711D01*
X-191452Y-130696D01*
X-191471Y-130694D01*
X-191521Y-130679D01*
X-191541Y-130679D01*
X-191561Y-130675D01*
X-191613Y-130679D01*
X-191619Y-130678D01*
X-191631Y-130678D01*
X-191655Y-130682D01*
X-191664Y-130683D01*
X-191767Y-130685D01*
X-191786Y-130692D01*
X-191806Y-130694D01*
X-191855Y-130715D01*
X-191874Y-130718D01*
X-191913Y-130739D01*
X-191998Y-130770D01*
X-192014Y-130782D01*
X-192032Y-130790D01*
X-192075Y-130824D01*
X-192091Y-130833D01*
X-192109Y-130851D01*
X-192163Y-130895D01*
X-193317Y-132049D01*
X-193370Y-132123D01*
X-193430Y-132192D01*
X-193442Y-132222D01*
X-193461Y-132249D01*
X-193488Y-132336D01*
X-193522Y-132420D01*
X-193526Y-132461D01*
X-193533Y-132484D01*
X-193532Y-132516D01*
X-193540Y-132587D01*
X-193540Y-216093D01*
X-193526Y-216183D01*
X-193518Y-216274D01*
X-193506Y-216303D01*
X-193501Y-216335D01*
X-193458Y-216416D01*
X-193422Y-216500D01*
X-193396Y-216532D01*
X-193385Y-216553D01*
X-193362Y-216575D01*
X-193317Y-216631D01*
X-190503Y-219446D01*
X-190291Y-219956D01*
X-190257Y-220012D01*
X-190231Y-220072D01*
X-190179Y-220137D01*
X-190161Y-220165D01*
X-190146Y-220178D01*
X-190126Y-220203D01*
X-130436Y-279893D01*
X-130362Y-279946D01*
X-130292Y-280006D01*
X-130262Y-280018D01*
X-130236Y-280037D01*
X-130149Y-280064D01*
X-130064Y-280098D01*
X-130023Y-280102D01*
X-130001Y-280109D01*
X-129969Y-280108D01*
X-129898Y-280116D01*
X-126445Y-280116D01*
X-121821Y-282032D01*
X-118282Y-285571D01*
X-116366Y-290195D01*
X-116366Y-295199D01*
X-118282Y-299823D01*
X-122075Y-303616D01*
X-126699Y-305532D01*
X-137672Y-305532D01*
X-142296Y-303616D01*
X-216786Y-229126D01*
X-216998Y-228616D01*
X-217032Y-228560D01*
X-217058Y-228500D01*
X-217110Y-228435D01*
X-217128Y-228407D01*
X-217143Y-228394D01*
X-217147Y-228388D01*
X-217163Y-228369D01*
X-343532Y-101999D01*
X-345448Y-97375D01*
X-345448Y63335D01*
X-343532Y67959D01*
X-324626Y86865D01*
X-320002Y88781D01*
X-284359Y88781D01*
X-284294Y88791D01*
X-284228Y88792D01*
X-284148Y88815D01*
X-284116Y88820D01*
X-284099Y88830D01*
X-284067Y88839D01*
X-282078Y89663D01*
X-276722Y89663D01*
X-271774Y87613D01*
X-267987Y83826D01*
X-265937Y78878D01*
X-265937Y73522D01*
X-267987Y68574D01*
X-271774Y64787D01*
X-276722Y62737D01*
X-282078Y62737D01*
X-284067Y63561D01*
X-284131Y63576D01*
X-284192Y63601D01*
X-284275Y63610D01*
X-284307Y63617D01*
X-284326Y63616D01*
X-284359Y63619D01*
X-311974Y63619D01*
X-312064Y63605D01*
X-312155Y63597D01*
X-312184Y63585D01*
X-312216Y63580D01*
X-312297Y63537D01*
X-312381Y63501D01*
X-312413Y63475D01*
X-312434Y63464D01*
X-312456Y63441D01*
X-312512Y63396D01*
X-320063Y55845D01*
X-320116Y55771D01*
X-320176Y55701D01*
X-320188Y55671D01*
X-320207Y55645D01*
X-320234Y55558D01*
X-320268Y55473D01*
X-320272Y55432D01*
X-320279Y55410D01*
X-320278Y55378D01*
X-320286Y55307D01*
X-320286Y-89347D01*
X-320272Y-89437D01*
X-320264Y-89528D01*
X-320252Y-89557D01*
X-320247Y-89589D01*
X-320204Y-89670D01*
X-320168Y-89754D01*
X-320142Y-89786D01*
X-320131Y-89807D01*
X-320108Y-89829D01*
X-320063Y-89885D01*
X-220001Y-189947D01*
X-219943Y-189989D01*
X-219891Y-190038D01*
X-219844Y-190060D01*
X-219802Y-190090D01*
X-219733Y-190111D01*
X-219668Y-190142D01*
X-219616Y-190147D01*
X-219566Y-190163D01*
X-219495Y-190161D01*
X-219424Y-190169D01*
X-219373Y-190158D01*
X-219321Y-190156D01*
X-219253Y-190132D01*
X-219183Y-190117D01*
X-219139Y-190090D01*
X-219090Y-190072D01*
X-219034Y-190027D01*
X-218972Y-189990D01*
X-218938Y-189951D01*
X-218898Y-189918D01*
X-218859Y-189858D01*
X-218812Y-189803D01*
X-218793Y-189755D01*
X-218765Y-189711D01*
X-218747Y-189642D01*
X-218720Y-189575D01*
X-218712Y-189504D01*
X-218704Y-189473D01*
X-218706Y-189450D01*
X-218702Y-189409D01*
X-218702Y-133871D01*
X-218713Y-133800D01*
X-218715Y-133729D01*
X-218733Y-133680D01*
X-218741Y-133628D01*
X-218775Y-133565D01*
X-218800Y-133498D01*
X-218832Y-133457D01*
X-218857Y-133411D01*
X-218909Y-133362D01*
X-218953Y-133306D01*
X-218997Y-133277D01*
X-219035Y-133242D01*
X-219100Y-133211D01*
X-219160Y-133173D01*
X-219211Y-133160D01*
X-219258Y-133138D01*
X-219329Y-133130D01*
X-219399Y-133113D01*
X-219451Y-133117D01*
X-219502Y-133111D01*
X-219573Y-133126D01*
X-219644Y-133132D01*
X-219692Y-133152D01*
X-219743Y-133163D01*
X-219804Y-133200D01*
X-219870Y-133228D01*
X-219926Y-133273D01*
X-219954Y-133289D01*
X-219969Y-133307D01*
X-220001Y-133333D01*
X-225734Y-139066D01*
X-237308Y-139066D01*
X-245492Y-130882D01*
X-245492Y-119308D01*
X-239557Y-113373D01*
X-239545Y-113357D01*
X-239529Y-113344D01*
X-239473Y-113257D01*
X-239413Y-113173D01*
X-239407Y-113154D01*
X-239396Y-113137D01*
X-239371Y-113037D01*
X-239341Y-112938D01*
X-239341Y-112918D01*
X-239336Y-112899D01*
X-239344Y-112796D01*
X-239347Y-112692D01*
X-239354Y-112674D01*
X-239355Y-112654D01*
X-239396Y-112559D01*
X-239431Y-112461D01*
X-239444Y-112446D01*
X-239452Y-112427D01*
X-239557Y-112296D01*
X-259367Y-92486D01*
X-260331Y-90159D01*
X-260331Y-87747D01*
X-260349Y-87632D01*
X-260367Y-87516D01*
X-260369Y-87510D01*
X-260370Y-87504D01*
X-260425Y-87401D01*
X-260478Y-87297D01*
X-260483Y-87292D01*
X-260486Y-87287D01*
X-260570Y-87206D01*
X-260654Y-87125D01*
X-260660Y-87121D01*
X-260664Y-87117D01*
X-260681Y-87110D01*
X-260801Y-87044D01*
X-261149Y-86899D01*
X-264699Y-83349D01*
X-265315Y-81863D01*
X-265366Y-81780D01*
X-265412Y-81695D01*
X-265430Y-81677D01*
X-265444Y-81654D01*
X-265520Y-81592D01*
X-265590Y-81525D01*
X-265614Y-81514D01*
X-265634Y-81498D01*
X-265725Y-81463D01*
X-265813Y-81422D01*
X-265839Y-81419D01*
X-265863Y-81409D01*
X-265961Y-81405D01*
X-266057Y-81394D01*
X-266083Y-81400D01*
X-266109Y-81399D01*
X-266203Y-81426D01*
X-266298Y-81447D01*
X-266320Y-81460D01*
X-266345Y-81467D01*
X-266425Y-81523D01*
X-266509Y-81573D01*
X-266526Y-81593D01*
X-266547Y-81608D01*
X-266606Y-81686D01*
X-266669Y-81760D01*
X-266679Y-81784D01*
X-266694Y-81805D01*
X-266724Y-81898D01*
X-266761Y-81988D01*
X-266764Y-82020D01*
X-266770Y-82039D01*
X-266770Y-82072D01*
X-266779Y-82155D01*
X-266779Y-85845D01*
X-269755Y-88821D01*
X-289045Y-88821D01*
X-292021Y-85845D01*
X-292021Y-66555D01*
X-289045Y-63579D01*
X-269755Y-63579D01*
X-266779Y-66555D01*
X-266779Y-70245D01*
X-266764Y-70341D01*
X-266754Y-70438D01*
X-266744Y-70462D01*
X-266740Y-70488D01*
X-266694Y-70574D01*
X-266654Y-70663D01*
X-266637Y-70682D01*
X-266624Y-70705D01*
X-266554Y-70772D01*
X-266488Y-70844D01*
X-266465Y-70857D01*
X-266446Y-70875D01*
X-266358Y-70916D01*
X-266272Y-70963D01*
X-266247Y-70967D01*
X-266223Y-70978D01*
X-266126Y-70989D01*
X-266030Y-71006D01*
X-266004Y-71003D01*
X-265979Y-71006D01*
X-265883Y-70985D01*
X-265787Y-70971D01*
X-265764Y-70959D01*
X-265738Y-70953D01*
X-265655Y-70903D01*
X-265568Y-70859D01*
X-265549Y-70840D01*
X-265527Y-70827D01*
X-265464Y-70753D01*
X-265396Y-70684D01*
X-265380Y-70655D01*
X-265367Y-70640D01*
X-265355Y-70609D01*
X-265315Y-70537D01*
X-264699Y-69051D01*
X-261149Y-65501D01*
X-256510Y-63579D01*
X-251490Y-63579D01*
X-246851Y-65501D01*
X-243301Y-69051D01*
X-242003Y-72183D01*
X-241966Y-72244D01*
X-241936Y-72309D01*
X-241901Y-72348D01*
X-241874Y-72392D01*
X-241819Y-72438D01*
X-241770Y-72491D01*
X-241724Y-72516D01*
X-241684Y-72549D01*
X-241617Y-72575D01*
X-241554Y-72609D01*
X-241503Y-72618D01*
X-241455Y-72637D01*
X-241383Y-72640D01*
X-241312Y-72653D01*
X-241261Y-72645D01*
X-241209Y-72647D01*
X-241140Y-72628D01*
X-241069Y-72617D01*
X-241023Y-72593D01*
X-240973Y-72579D01*
X-240914Y-72538D01*
X-240850Y-72506D01*
X-240813Y-72468D01*
X-240771Y-72439D01*
X-240728Y-72381D01*
X-240678Y-72330D01*
X-240643Y-72267D01*
X-240624Y-72241D01*
X-240617Y-72219D01*
X-240597Y-72183D01*
X-239299Y-69051D01*
X-235749Y-65501D01*
X-231110Y-63579D01*
X-226090Y-63579D01*
X-221451Y-65501D01*
X-217901Y-69051D01*
X-216603Y-72183D01*
X-216566Y-72244D01*
X-216536Y-72309D01*
X-216501Y-72348D01*
X-216474Y-72392D01*
X-216419Y-72438D01*
X-216370Y-72491D01*
X-216324Y-72516D01*
X-216284Y-72549D01*
X-216217Y-72575D01*
X-216154Y-72609D01*
X-216103Y-72618D01*
X-216055Y-72637D01*
X-215983Y-72640D01*
X-215912Y-72653D01*
X-215861Y-72645D01*
X-215809Y-72647D01*
X-215740Y-72628D01*
X-215669Y-72617D01*
X-215623Y-72593D01*
X-215573Y-72579D01*
X-215514Y-72538D01*
X-215450Y-72506D01*
X-215413Y-72468D01*
X-215371Y-72439D01*
X-215328Y-72381D01*
X-215278Y-72330D01*
X-215243Y-72267D01*
X-215224Y-72241D01*
X-215217Y-72219D01*
X-215197Y-72183D01*
X-213899Y-69051D01*
X-210349Y-65501D01*
X-205710Y-63579D01*
X-200690Y-63579D01*
X-196051Y-65501D01*
X-192501Y-69051D01*
X-191203Y-72183D01*
X-191166Y-72244D01*
X-191136Y-72309D01*
X-191101Y-72348D01*
X-191074Y-72392D01*
X-191019Y-72438D01*
X-190970Y-72491D01*
X-190924Y-72516D01*
X-190884Y-72549D01*
X-190817Y-72575D01*
X-190754Y-72609D01*
X-190703Y-72618D01*
X-190655Y-72637D01*
X-190583Y-72640D01*
X-190512Y-72653D01*
X-190461Y-72645D01*
X-190409Y-72647D01*
X-190340Y-72628D01*
X-190269Y-72617D01*
X-190223Y-72593D01*
X-190173Y-72579D01*
X-190114Y-72538D01*
X-190050Y-72506D01*
X-190013Y-72468D01*
X-189971Y-72439D01*
X-189928Y-72381D01*
X-189878Y-72330D01*
X-189843Y-72267D01*
X-189824Y-72241D01*
X-189817Y-72219D01*
X-189797Y-72183D01*
X-188499Y-69051D01*
X-184949Y-65501D01*
X-180310Y-63579D01*
X-175290Y-63579D01*
X-170651Y-65501D01*
X-167101Y-69051D01*
X-165803Y-72183D01*
X-165766Y-72244D01*
X-165736Y-72309D01*
X-165701Y-72348D01*
X-165674Y-72392D01*
X-165619Y-72438D01*
X-165570Y-72491D01*
X-165524Y-72516D01*
X-165484Y-72549D01*
X-165417Y-72575D01*
X-165354Y-72609D01*
X-165303Y-72618D01*
X-165255Y-72637D01*
X-165183Y-72640D01*
X-165112Y-72653D01*
X-165061Y-72645D01*
X-165009Y-72647D01*
X-164940Y-72628D01*
X-164869Y-72617D01*
X-164823Y-72593D01*
X-164773Y-72579D01*
X-164714Y-72538D01*
X-164650Y-72506D01*
X-164613Y-72468D01*
X-164571Y-72439D01*
X-164528Y-72381D01*
X-164478Y-72330D01*
X-164443Y-72267D01*
X-164424Y-72241D01*
X-164417Y-72219D01*
X-164397Y-72183D01*
X-163099Y-69051D01*
X-159549Y-65501D01*
X-154910Y-63579D01*
X-149890Y-63579D01*
X-145251Y-65501D01*
X-141701Y-69051D01*
X-140403Y-72183D01*
X-140366Y-72244D01*
X-140336Y-72309D01*
X-140301Y-72348D01*
X-140274Y-72392D01*
X-140219Y-72438D01*
X-140170Y-72491D01*
X-140124Y-72516D01*
X-140084Y-72549D01*
X-140017Y-72575D01*
X-139954Y-72609D01*
X-139903Y-72618D01*
X-139855Y-72637D01*
X-139783Y-72640D01*
X-139712Y-72653D01*
X-139661Y-72645D01*
X-139609Y-72647D01*
X-139540Y-72628D01*
X-139469Y-72617D01*
X-139423Y-72593D01*
X-139373Y-72579D01*
X-139314Y-72538D01*
X-139250Y-72506D01*
X-139213Y-72468D01*
X-139171Y-72439D01*
X-139128Y-72381D01*
X-139078Y-72330D01*
X-139043Y-72267D01*
X-139024Y-72241D01*
X-139017Y-72219D01*
X-138997Y-72183D01*
X-137699Y-69051D01*
X-134149Y-65501D01*
X-129510Y-63579D01*
X-124490Y-63579D01*
X-120549Y-65211D01*
X-120436Y-65238D01*
X-120322Y-65267D01*
X-120316Y-65266D01*
X-120310Y-65268D01*
X-120193Y-65257D01*
X-120077Y-65248D01*
X-120071Y-65245D01*
X-120065Y-65245D01*
X-119957Y-65197D01*
X-119850Y-65151D01*
X-119845Y-65147D01*
X-119840Y-65145D01*
X-119826Y-65132D01*
X-119719Y-65046D01*
X-114793Y-60120D01*
X-114751Y-60062D01*
X-114702Y-60010D01*
X-114680Y-59963D01*
X-114650Y-59921D01*
X-114629Y-59852D01*
X-114598Y-59787D01*
X-114593Y-59735D01*
X-114577Y-59685D01*
X-114579Y-59614D01*
X-114571Y-59543D01*
X-114582Y-59492D01*
X-114584Y-59440D01*
X-114608Y-59372D01*
X-114624Y-59302D01*
X-114650Y-59257D01*
X-114668Y-59209D01*
X-114713Y-59153D01*
X-114750Y-59091D01*
X-114789Y-59057D01*
X-114822Y-59017D01*
X-114882Y-58978D01*
X-114937Y-58931D01*
X-114985Y-58912D01*
X-115029Y-58884D01*
X-115098Y-58866D01*
X-115165Y-58839D01*
X-115236Y-58831D01*
X-115267Y-58823D01*
X-115291Y-58825D01*
X-115332Y-58821D01*
X-116810Y-58821D01*
X-121449Y-56899D01*
X-124999Y-53349D01*
X-126297Y-50217D01*
X-126335Y-50156D01*
X-126364Y-50091D01*
X-126399Y-50052D01*
X-126426Y-50008D01*
X-126482Y-49962D01*
X-126530Y-49909D01*
X-126576Y-49884D01*
X-126616Y-49851D01*
X-126683Y-49825D01*
X-126746Y-49791D01*
X-126797Y-49782D01*
X-126845Y-49763D01*
X-126917Y-49760D01*
X-126988Y-49747D01*
X-127039Y-49755D01*
X-127091Y-49753D01*
X-127160Y-49772D01*
X-127231Y-49783D01*
X-127277Y-49807D01*
X-127327Y-49821D01*
X-127386Y-49862D01*
X-127450Y-49894D01*
X-127487Y-49932D01*
X-127529Y-49961D01*
X-127572Y-50019D01*
X-127622Y-50070D01*
X-127657Y-50133D01*
X-127676Y-50159D01*
X-127683Y-50181D01*
X-127703Y-50217D01*
X-129001Y-53349D01*
X-132551Y-56899D01*
X-137190Y-58821D01*
X-142210Y-58821D01*
X-146849Y-56899D01*
X-150399Y-53349D01*
X-151697Y-50217D01*
X-151735Y-50156D01*
X-151764Y-50091D01*
X-151799Y-50052D01*
X-151826Y-50008D01*
X-151882Y-49962D01*
X-151930Y-49909D01*
X-151976Y-49884D01*
X-152016Y-49851D01*
X-152083Y-49825D01*
X-152146Y-49791D01*
X-152197Y-49782D01*
X-152245Y-49763D01*
X-152317Y-49760D01*
X-152388Y-49747D01*
X-152439Y-49755D01*
X-152491Y-49753D01*
X-152560Y-49772D01*
X-152631Y-49783D01*
X-152677Y-49807D01*
X-152727Y-49821D01*
X-152786Y-49862D01*
X-152850Y-49894D01*
X-152887Y-49932D01*
X-152929Y-49961D01*
X-152972Y-50019D01*
X-153022Y-50070D01*
X-153057Y-50133D01*
X-153076Y-50159D01*
X-153083Y-50181D01*
X-153103Y-50217D01*
X-154401Y-53349D01*
X-157951Y-56899D01*
X-162590Y-58821D01*
X-167610Y-58821D01*
X-172249Y-56899D01*
X-175799Y-53349D01*
X-177097Y-50217D01*
X-177135Y-50156D01*
X-177164Y-50091D01*
X-177199Y-50052D01*
X-177226Y-50008D01*
X-177282Y-49962D01*
X-177330Y-49909D01*
X-177376Y-49884D01*
X-177416Y-49851D01*
X-177483Y-49825D01*
X-177546Y-49791D01*
X-177597Y-49782D01*
X-177645Y-49763D01*
X-177717Y-49760D01*
X-177788Y-49747D01*
X-177839Y-49755D01*
X-177891Y-49753D01*
X-177960Y-49772D01*
X-178031Y-49783D01*
X-178077Y-49807D01*
X-178127Y-49821D01*
X-178186Y-49862D01*
X-178250Y-49894D01*
X-178287Y-49932D01*
X-178329Y-49961D01*
X-178372Y-50019D01*
X-178422Y-50070D01*
X-178457Y-50133D01*
X-178476Y-50159D01*
X-178483Y-50181D01*
X-178503Y-50217D01*
X-179801Y-53349D01*
X-183351Y-56899D01*
X-187990Y-58821D01*
X-193010Y-58821D01*
X-197649Y-56899D01*
X-201199Y-53349D01*
X-202497Y-50217D01*
X-202535Y-50156D01*
X-202564Y-50091D01*
X-202599Y-50052D01*
X-202626Y-50008D01*
X-202682Y-49962D01*
X-202730Y-49909D01*
X-202776Y-49884D01*
X-202816Y-49851D01*
X-202883Y-49825D01*
X-202946Y-49791D01*
X-202997Y-49782D01*
X-203045Y-49763D01*
X-203117Y-49760D01*
X-203188Y-49747D01*
X-203239Y-49755D01*
X-203291Y-49753D01*
X-203360Y-49772D01*
X-203431Y-49783D01*
X-203477Y-49807D01*
X-203527Y-49821D01*
X-203586Y-49862D01*
X-203650Y-49894D01*
X-203687Y-49932D01*
X-203729Y-49961D01*
X-203772Y-50019D01*
X-203822Y-50070D01*
X-203857Y-50133D01*
X-203876Y-50159D01*
X-203883Y-50181D01*
X-203903Y-50217D01*
X-205201Y-53349D01*
X-208751Y-56899D01*
X-213390Y-58821D01*
X-218410Y-58821D01*
X-223049Y-56899D01*
X-226599Y-53349D01*
X-228521Y-48710D01*
X-228521Y-43690D01*
X-226599Y-39051D01*
X-223049Y-35501D01*
X-218410Y-33579D01*
X-213390Y-33579D01*
X-208751Y-35501D01*
X-205201Y-39051D01*
X-203903Y-42183D01*
X-203866Y-42244D01*
X-203836Y-42309D01*
X-203801Y-42348D01*
X-203774Y-42392D01*
X-203719Y-42438D01*
X-203670Y-42491D01*
X-203624Y-42516D01*
X-203584Y-42549D01*
X-203517Y-42575D01*
X-203454Y-42609D01*
X-203403Y-42618D01*
X-203355Y-42637D01*
X-203283Y-42640D01*
X-203212Y-42653D01*
X-203161Y-42645D01*
X-203109Y-42647D01*
X-203040Y-42628D01*
X-202969Y-42617D01*
X-202923Y-42593D01*
X-202873Y-42579D01*
X-202814Y-42538D01*
X-202750Y-42506D01*
X-202713Y-42468D01*
X-202671Y-42439D01*
X-202628Y-42381D01*
X-202578Y-42330D01*
X-202543Y-42267D01*
X-202524Y-42241D01*
X-202517Y-42219D01*
X-202497Y-42183D01*
X-201199Y-39051D01*
X-197649Y-35501D01*
X-193010Y-33579D01*
X-187990Y-33579D01*
X-183351Y-35501D01*
X-179801Y-39051D01*
X-178503Y-42183D01*
X-178466Y-42244D01*
X-178436Y-42309D01*
X-178401Y-42348D01*
X-178374Y-42392D01*
X-178319Y-42438D01*
X-178270Y-42491D01*
X-178224Y-42516D01*
X-178184Y-42549D01*
X-178117Y-42575D01*
X-178054Y-42609D01*
X-178003Y-42618D01*
X-177955Y-42637D01*
X-177883Y-42640D01*
X-177812Y-42653D01*
X-177761Y-42645D01*
X-177709Y-42647D01*
X-177640Y-42628D01*
X-177569Y-42617D01*
X-177523Y-42593D01*
X-177473Y-42579D01*
X-177414Y-42538D01*
X-177350Y-42506D01*
X-177313Y-42468D01*
X-177271Y-42439D01*
X-177228Y-42381D01*
X-177178Y-42330D01*
X-177143Y-42267D01*
X-177124Y-42241D01*
X-177117Y-42219D01*
X-177097Y-42183D01*
X-175799Y-39051D01*
X-172249Y-35501D01*
X-167610Y-33579D01*
X-162590Y-33579D01*
X-157951Y-35501D01*
X-154401Y-39051D01*
X-153103Y-42183D01*
X-153066Y-42244D01*
X-153036Y-42309D01*
X-153001Y-42348D01*
X-152974Y-42392D01*
X-152919Y-42438D01*
X-152870Y-42491D01*
X-152824Y-42516D01*
X-152784Y-42549D01*
X-152717Y-42575D01*
X-152654Y-42609D01*
X-152603Y-42618D01*
X-152555Y-42637D01*
X-152483Y-42640D01*
X-152412Y-42653D01*
X-152361Y-42645D01*
X-152309Y-42647D01*
X-152240Y-42628D01*
X-152169Y-42617D01*
X-152123Y-42593D01*
X-152073Y-42579D01*
X-152014Y-42538D01*
X-151950Y-42506D01*
X-151913Y-42468D01*
X-151871Y-42439D01*
X-151828Y-42381D01*
X-151778Y-42330D01*
X-151743Y-42267D01*
X-151724Y-42241D01*
X-151717Y-42219D01*
X-151697Y-42183D01*
X-150399Y-39051D01*
X-146849Y-35501D01*
X-142210Y-33579D01*
X-137190Y-33579D01*
X-132551Y-35501D01*
X-129001Y-39051D01*
X-127703Y-42183D01*
X-127666Y-42244D01*
X-127636Y-42309D01*
X-127601Y-42348D01*
X-127574Y-42392D01*
X-127519Y-42438D01*
X-127470Y-42491D01*
X-127424Y-42516D01*
X-127384Y-42549D01*
X-127317Y-42575D01*
X-127254Y-42609D01*
X-127203Y-42618D01*
X-127155Y-42637D01*
X-127083Y-42640D01*
X-127012Y-42653D01*
X-126961Y-42645D01*
X-126909Y-42647D01*
X-126840Y-42628D01*
X-126769Y-42617D01*
X-126723Y-42593D01*
X-126673Y-42579D01*
X-126614Y-42538D01*
X-126550Y-42506D01*
X-126513Y-42468D01*
X-126471Y-42439D01*
X-126428Y-42381D01*
X-126378Y-42330D01*
X-126343Y-42267D01*
X-126324Y-42241D01*
X-126317Y-42219D01*
X-126297Y-42183D01*
X-124999Y-39051D01*
X-121449Y-35501D01*
X-116810Y-33579D01*
X-111790Y-33579D01*
X-107151Y-35501D01*
X-103601Y-39051D01*
X-101679Y-43690D01*
X-101679Y-45168D01*
X-101668Y-45239D01*
X-101666Y-45311D01*
X-101648Y-45360D01*
X-101640Y-45411D01*
X-101606Y-45475D01*
X-101581Y-45542D01*
X-101549Y-45583D01*
X-101524Y-45629D01*
X-101472Y-45678D01*
X-101428Y-45734D01*
X-101384Y-45762D01*
X-101346Y-45798D01*
X-101281Y-45828D01*
X-101221Y-45867D01*
X-101170Y-45880D01*
X-101123Y-45902D01*
X-101052Y-45909D01*
X-100982Y-45927D01*
X-100930Y-45923D01*
X-100879Y-45929D01*
X-100808Y-45913D01*
X-100737Y-45908D01*
X-100689Y-45888D01*
X-100638Y-45876D01*
X-100577Y-45840D01*
X-100511Y-45812D01*
X-100455Y-45767D01*
X-100427Y-45750D01*
X-100412Y-45732D01*
X-100380Y-45707D01*
X-87406Y-32733D01*
X-85079Y-31769D01*
X128259Y-31769D01*
X130586Y-32733D01*
X139567Y-41714D01*
X139641Y-41767D01*
X139711Y-41827D01*
X139741Y-41839D01*
X139767Y-41858D01*
X139854Y-41885D01*
X139939Y-41919D01*
X139980Y-41923D01*
X140002Y-41930D01*
X140034Y-41929D01*
X140106Y-41937D01*
X141463Y-41937D01*
X144720Y-43287D01*
X147213Y-45780D01*
X148563Y-49037D01*
X148563Y-52563D01*
X147213Y-55820D01*
X144720Y-58313D01*
X141463Y-59663D01*
X137937Y-59663D01*
X134680Y-58313D01*
X132187Y-55820D01*
X130837Y-52563D01*
X130837Y-51206D01*
X130823Y-51116D01*
X130815Y-51025D01*
X130803Y-50995D01*
X130798Y-50963D01*
X130755Y-50882D01*
X130719Y-50798D01*
X130693Y-50766D01*
X130682Y-50745D01*
X130659Y-50723D01*
X130614Y-50667D01*
X124601Y-44654D01*
X124527Y-44601D01*
X124457Y-44541D01*
X124427Y-44529D01*
X124401Y-44510D01*
X124314Y-44483D01*
X124229Y-44449D01*
X124188Y-44445D01*
X124166Y-44438D01*
X124134Y-44439D01*
X124062Y-44431D01*
X-80882Y-44431D01*
X-80972Y-44445D01*
X-81063Y-44453D01*
X-81093Y-44465D01*
X-81125Y-44470D01*
X-81206Y-44513D01*
X-81290Y-44549D01*
X-81322Y-44575D01*
X-81343Y-44586D01*
X-81365Y-44609D01*
X-81421Y-44654D01*
X-99173Y-62406D01*
X-99199Y-62443D01*
X-99233Y-62474D01*
X-99271Y-62542D01*
X-99316Y-62605D01*
X-99330Y-62649D01*
X-99352Y-62689D01*
X-99366Y-62766D01*
X-99388Y-62840D01*
X-99387Y-62886D01*
X-99395Y-62931D01*
X-99384Y-63009D01*
X-99382Y-63086D01*
X-99366Y-63129D01*
X-99360Y-63175D01*
X-99324Y-63244D01*
X-99298Y-63317D01*
X-99269Y-63353D01*
X-99248Y-63394D01*
X-99193Y-63449D01*
X-99144Y-63509D01*
X-99105Y-63534D01*
X-99073Y-63566D01*
X-98953Y-63632D01*
X-98937Y-63642D01*
X-98932Y-63644D01*
X-98926Y-63647D01*
X-94451Y-65501D01*
X-90901Y-69051D01*
X-89603Y-72183D01*
X-89566Y-72244D01*
X-89536Y-72309D01*
X-89501Y-72348D01*
X-89474Y-72392D01*
X-89419Y-72438D01*
X-89370Y-72491D01*
X-89324Y-72516D01*
X-89284Y-72549D01*
X-89217Y-72575D01*
X-89154Y-72609D01*
X-89103Y-72618D01*
X-89055Y-72637D01*
X-88983Y-72640D01*
X-88912Y-72653D01*
X-88861Y-72645D01*
X-88809Y-72647D01*
X-88740Y-72628D01*
X-88669Y-72617D01*
X-88623Y-72593D01*
X-88573Y-72579D01*
X-88514Y-72538D01*
X-88450Y-72506D01*
X-88413Y-72468D01*
X-88371Y-72439D01*
X-88328Y-72381D01*
X-88278Y-72330D01*
X-88243Y-72267D01*
X-88224Y-72241D01*
X-88217Y-72219D01*
X-88197Y-72183D01*
X-86899Y-69051D01*
X-83349Y-65501D01*
X-78710Y-63579D01*
X-73690Y-63579D01*
X-69051Y-65501D01*
X-65501Y-69051D01*
X-64203Y-72183D01*
X-64166Y-72244D01*
X-64136Y-72309D01*
X-64101Y-72348D01*
X-64074Y-72392D01*
X-64019Y-72438D01*
X-63970Y-72491D01*
X-63924Y-72516D01*
X-63884Y-72549D01*
X-63817Y-72575D01*
X-63754Y-72609D01*
X-63703Y-72618D01*
X-63655Y-72637D01*
X-63583Y-72640D01*
X-63512Y-72653D01*
X-63461Y-72645D01*
X-63409Y-72647D01*
X-63340Y-72628D01*
X-63269Y-72617D01*
X-63223Y-72593D01*
X-63173Y-72579D01*
X-63114Y-72538D01*
X-63050Y-72506D01*
X-63013Y-72468D01*
X-62971Y-72439D01*
X-62928Y-72381D01*
X-62878Y-72330D01*
X-62843Y-72267D01*
X-62824Y-72241D01*
X-62817Y-72219D01*
X-62797Y-72183D01*
X-61499Y-69051D01*
X-57949Y-65501D01*
X-53310Y-63579D01*
X-48290Y-63579D01*
X-43651Y-65501D01*
X-40101Y-69051D01*
X-38803Y-72183D01*
X-38766Y-72244D01*
X-38736Y-72309D01*
X-38701Y-72348D01*
X-38674Y-72392D01*
X-38619Y-72438D01*
X-38570Y-72491D01*
X-38524Y-72516D01*
X-38484Y-72549D01*
X-38417Y-72575D01*
X-38354Y-72609D01*
X-38303Y-72618D01*
X-38255Y-72637D01*
X-38183Y-72640D01*
X-38112Y-72653D01*
X-38061Y-72645D01*
X-38009Y-72647D01*
X-37940Y-72628D01*
X-37869Y-72617D01*
X-37823Y-72593D01*
X-37773Y-72579D01*
X-37714Y-72538D01*
X-37650Y-72506D01*
X-37613Y-72468D01*
X-37571Y-72439D01*
X-37528Y-72381D01*
X-37478Y-72330D01*
X-37443Y-72267D01*
X-37424Y-72241D01*
X-37417Y-72219D01*
X-37397Y-72183D01*
X-36099Y-69051D01*
X-32549Y-65501D01*
X-27910Y-63579D01*
X-22890Y-63579D01*
X-18251Y-65501D01*
X-14701Y-69051D01*
X-13403Y-72183D01*
X-13365Y-72244D01*
X-13336Y-72309D01*
X-13301Y-72348D01*
X-13274Y-72392D01*
X-13218Y-72438D01*
X-13170Y-72491D01*
X-13124Y-72516D01*
X-13084Y-72549D01*
X-13017Y-72575D01*
X-12954Y-72609D01*
X-12903Y-72618D01*
X-12855Y-72637D01*
X-12783Y-72640D01*
X-12712Y-72653D01*
X-12661Y-72645D01*
X-12609Y-72648D01*
X-12540Y-72628D01*
X-12469Y-72617D01*
X-12423Y-72593D01*
X-12373Y-72579D01*
X-12314Y-72538D01*
X-12250Y-72506D01*
X-12213Y-72468D01*
X-12171Y-72439D01*
X-12128Y-72381D01*
X-12078Y-72330D01*
X-12043Y-72267D01*
X-12024Y-72241D01*
X-12017Y-72219D01*
X-11997Y-72183D01*
X-10699Y-69051D01*
X-7149Y-65501D01*
X-2510Y-63579D01*
X2510Y-63579D01*
X7149Y-65501D01*
X10699Y-69051D01*
X11997Y-72183D01*
X12035Y-72244D01*
X12064Y-72309D01*
X12099Y-72348D01*
X12126Y-72392D01*
X12182Y-72438D01*
X12230Y-72491D01*
X12276Y-72516D01*
X12316Y-72549D01*
X12383Y-72575D01*
X12446Y-72609D01*
X12497Y-72618D01*
X12545Y-72637D01*
X12617Y-72640D01*
X12688Y-72653D01*
X12739Y-72645D01*
X12791Y-72648D01*
X12860Y-72628D01*
X12931Y-72617D01*
X12977Y-72593D01*
X13027Y-72579D01*
X13086Y-72538D01*
X13150Y-72506D01*
X13187Y-72468D01*
X13229Y-72439D01*
X13272Y-72381D01*
X13322Y-72330D01*
X13357Y-72267D01*
X13376Y-72241D01*
X13383Y-72219D01*
X13403Y-72183D01*
X14701Y-69051D01*
X18251Y-65501D01*
X22890Y-63579D01*
X27910Y-63579D01*
X32549Y-65501D01*
X36099Y-69051D01*
X37397Y-72183D01*
X37435Y-72244D01*
X37464Y-72309D01*
X37499Y-72348D01*
X37526Y-72392D01*
X37582Y-72438D01*
X37630Y-72491D01*
X37676Y-72516D01*
X37716Y-72549D01*
X37783Y-72575D01*
X37846Y-72609D01*
X37897Y-72618D01*
X37945Y-72637D01*
X38017Y-72640D01*
X38088Y-72653D01*
X38139Y-72645D01*
X38191Y-72648D01*
X38260Y-72628D01*
X38331Y-72617D01*
X38377Y-72593D01*
X38427Y-72579D01*
X38486Y-72538D01*
X38550Y-72506D01*
X38587Y-72468D01*
X38629Y-72439D01*
X38672Y-72381D01*
X38722Y-72330D01*
X38757Y-72267D01*
X38776Y-72241D01*
X38783Y-72219D01*
X38803Y-72183D01*
X40101Y-69051D01*
X43651Y-65501D01*
X48290Y-63579D01*
X53310Y-63579D01*
X57949Y-65501D01*
X61499Y-69051D01*
X62235Y-70828D01*
X62259Y-70867D01*
X62275Y-70910D01*
X62324Y-70971D01*
X62365Y-71037D01*
X62400Y-71066D01*
X62429Y-71102D01*
X62494Y-71144D01*
X62554Y-71194D01*
X62597Y-71210D01*
X62636Y-71235D01*
X62711Y-71254D01*
X62784Y-71282D01*
X62830Y-71284D01*
X62874Y-71295D01*
X62952Y-71289D01*
X63030Y-71292D01*
X63074Y-71279D01*
X63120Y-71276D01*
X63191Y-71245D01*
X63266Y-71224D01*
X63304Y-71197D01*
X63346Y-71180D01*
X63453Y-71094D01*
X63468Y-71083D01*
X63471Y-71079D01*
X63477Y-71075D01*
X70972Y-63579D01*
X81428Y-63579D01*
X88923Y-71075D01*
X88960Y-71102D01*
X88991Y-71135D01*
X89060Y-71173D01*
X89123Y-71218D01*
X89167Y-71232D01*
X89207Y-71254D01*
X89284Y-71268D01*
X89358Y-71291D01*
X89404Y-71289D01*
X89449Y-71298D01*
X89526Y-71286D01*
X89604Y-71284D01*
X89647Y-71269D01*
X89692Y-71262D01*
X89762Y-71227D01*
X89835Y-71200D01*
X89871Y-71171D01*
X89912Y-71150D01*
X89966Y-71095D01*
X90027Y-71046D01*
X90052Y-71008D01*
X90084Y-70975D01*
X90150Y-70855D01*
X90160Y-70839D01*
X90161Y-70834D01*
X90165Y-70828D01*
X90901Y-69051D01*
X94451Y-65501D01*
X99090Y-63579D01*
X104110Y-63579D01*
X108749Y-65501D01*
X112299Y-69051D01*
X113597Y-72183D01*
X113635Y-72244D01*
X113664Y-72309D01*
X113699Y-72348D01*
X113726Y-72392D01*
X113782Y-72438D01*
X113830Y-72491D01*
X113876Y-72516D01*
X113916Y-72549D01*
X113983Y-72575D01*
X114046Y-72609D01*
X114097Y-72618D01*
X114145Y-72637D01*
X114217Y-72640D01*
X114288Y-72653D01*
X114339Y-72645D01*
X114391Y-72648D01*
X114460Y-72628D01*
X114531Y-72617D01*
X114577Y-72593D01*
X114627Y-72579D01*
X114686Y-72538D01*
X114750Y-72506D01*
X114787Y-72468D01*
X114829Y-72439D01*
X114872Y-72381D01*
X114922Y-72330D01*
X114957Y-72267D01*
X114976Y-72241D01*
X114983Y-72219D01*
X115003Y-72183D01*
X116301Y-69051D01*
X119851Y-65501D01*
X124490Y-63579D01*
X129510Y-63579D01*
X134149Y-65501D01*
X137699Y-69051D01*
X138997Y-72183D01*
X139035Y-72244D01*
X139064Y-72309D01*
X139099Y-72348D01*
X139126Y-72392D01*
X139182Y-72438D01*
X139230Y-72491D01*
X139276Y-72516D01*
X139316Y-72549D01*
X139383Y-72575D01*
X139446Y-72609D01*
X139497Y-72618D01*
X139545Y-72637D01*
X139617Y-72640D01*
X139688Y-72653D01*
X139739Y-72645D01*
X139791Y-72648D01*
X139860Y-72628D01*
X139931Y-72617D01*
X139977Y-72593D01*
X140027Y-72579D01*
X140086Y-72538D01*
X140150Y-72506D01*
X140187Y-72468D01*
X140229Y-72439D01*
X140272Y-72381D01*
X140322Y-72330D01*
X140357Y-72267D01*
X140376Y-72241D01*
X140383Y-72219D01*
X140403Y-72183D01*
X141701Y-69051D01*
X145251Y-65501D01*
X149890Y-63579D01*
X154910Y-63579D01*
X159549Y-65501D01*
X163099Y-69051D01*
X164397Y-72183D01*
X164435Y-72244D01*
X164464Y-72309D01*
X164499Y-72348D01*
X164526Y-72392D01*
X164582Y-72438D01*
X164630Y-72491D01*
X164676Y-72516D01*
X164716Y-72549D01*
X164783Y-72575D01*
X164846Y-72609D01*
X164897Y-72618D01*
X164945Y-72637D01*
X165017Y-72640D01*
X165088Y-72653D01*
X165139Y-72645D01*
X165191Y-72648D01*
X165260Y-72628D01*
X165331Y-72617D01*
X165377Y-72593D01*
X165427Y-72579D01*
X165486Y-72538D01*
X165550Y-72506D01*
X165587Y-72468D01*
X165629Y-72439D01*
X165672Y-72381D01*
X165722Y-72330D01*
X165757Y-72267D01*
X165776Y-72241D01*
X165783Y-72219D01*
X165803Y-72183D01*
X167101Y-69051D01*
X170651Y-65501D01*
X173783Y-64203D01*
X173844Y-64165D01*
X173909Y-64136D01*
X173948Y-64101D01*
X173992Y-64074D01*
X174038Y-64018D01*
X174091Y-63970D01*
X174116Y-63924D01*
X174149Y-63884D01*
X174175Y-63817D01*
X174209Y-63754D01*
X174218Y-63703D01*
X174237Y-63655D01*
X174240Y-63583D01*
X174253Y-63512D01*
X174245Y-63461D01*
X174248Y-63409D01*
X174228Y-63340D01*
X174217Y-63269D01*
X174193Y-63223D01*
X174179Y-63173D01*
X174138Y-63114D01*
X174106Y-63050D01*
X174068Y-63013D01*
X174039Y-62971D01*
X173981Y-62928D01*
X173930Y-62878D01*
X173867Y-62843D01*
X173841Y-62824D01*
X173819Y-62817D01*
X173783Y-62797D01*
X170651Y-61499D01*
X167101Y-57949D01*
X165179Y-53310D01*
X165179Y-48290D01*
X167101Y-43651D01*
X170651Y-40101D01*
X172428Y-39365D01*
X172467Y-39341D01*
X172510Y-39325D01*
X172571Y-39276D01*
X172637Y-39235D01*
X172666Y-39200D01*
X172702Y-39171D01*
X172744Y-39106D01*
X172794Y-39046D01*
X172810Y-39003D01*
X172835Y-38964D01*
X172854Y-38889D01*
X172882Y-38816D01*
X172884Y-38770D01*
X172895Y-38726D01*
X172889Y-38648D01*
X172892Y-38570D01*
X172879Y-38526D01*
X172876Y-38480D01*
X172845Y-38409D01*
X172824Y-38334D01*
X172797Y-38296D01*
X172780Y-38254D01*
X172694Y-38147D01*
X172683Y-38132D01*
X172679Y-38129D01*
X172675Y-38123D01*
X165179Y-30628D01*
X165179Y-20172D01*
X171431Y-13920D01*
X171473Y-13862D01*
X171523Y-13810D01*
X171545Y-13763D01*
X171575Y-13721D01*
X171596Y-13652D01*
X171626Y-13587D01*
X171632Y-13535D01*
X171647Y-13485D01*
X171645Y-13414D01*
X171653Y-13343D01*
X171642Y-13292D01*
X171641Y-13240D01*
X171616Y-13172D01*
X171601Y-13102D01*
X171574Y-13057D01*
X171556Y-13009D01*
X171512Y-12953D01*
X171475Y-12891D01*
X171435Y-12857D01*
X171403Y-12817D01*
X171342Y-12778D01*
X171288Y-12731D01*
X171240Y-12712D01*
X171196Y-12684D01*
X171126Y-12666D01*
X171060Y-12639D01*
X170988Y-12631D01*
X170957Y-12623D01*
X170934Y-12625D01*
X170893Y-12621D01*
X168155Y-12621D01*
X165179Y-9645D01*
X165179Y9645D01*
X168155Y12621D01*
X171845Y12621D01*
X171941Y12636D01*
X172038Y12646D01*
X172062Y12656D01*
X172088Y12660D01*
X172174Y12706D01*
X172263Y12746D01*
X172282Y12763D01*
X172305Y12776D01*
X172372Y12846D01*
X172444Y12912D01*
X172457Y12935D01*
X172475Y12954D01*
X172516Y13042D01*
X172563Y13128D01*
X172567Y13153D01*
X172578Y13177D01*
X172589Y13274D01*
X172606Y13370D01*
X172603Y13396D01*
X172606Y13421D01*
X172585Y13517D01*
X172571Y13613D01*
X172559Y13636D01*
X172553Y13662D01*
X172503Y13745D01*
X172459Y13832D01*
X172440Y13851D01*
X172427Y13873D01*
X172353Y13936D01*
X172284Y14004D01*
X172255Y14020D01*
X172240Y14033D01*
X172209Y14045D01*
X172137Y14085D01*
X170651Y14701D01*
X167101Y18251D01*
X165179Y22890D01*
X165179Y27910D01*
X167101Y32549D01*
X170651Y36099D01*
X173783Y37397D01*
X173844Y37434D01*
X173909Y37464D01*
X173948Y37499D01*
X173992Y37526D01*
X174038Y37581D01*
X174091Y37630D01*
X174116Y37676D01*
X174149Y37716D01*
X174175Y37783D01*
X174209Y37846D01*
X174218Y37897D01*
X174237Y37945D01*
X174240Y38017D01*
X174253Y38088D01*
X174245Y38139D01*
X174247Y38191D01*
X174228Y38260D01*
X174217Y38331D01*
X174193Y38377D01*
X174179Y38427D01*
X174138Y38486D01*
X174106Y38550D01*
X174068Y38587D01*
X174039Y38629D01*
X173981Y38672D01*
X173930Y38722D01*
X173867Y38757D01*
X173841Y38776D01*
X173819Y38783D01*
X173783Y38803D01*
X170651Y40101D01*
X167101Y43651D01*
X165179Y48290D01*
X165179Y53310D01*
X167101Y57949D01*
X170651Y61499D01*
X173783Y62797D01*
X173844Y62834D01*
X173909Y62864D01*
X173948Y62899D01*
X173992Y62926D01*
X174038Y62981D01*
X174091Y63030D01*
X174116Y63076D01*
X174149Y63116D01*
X174175Y63183D01*
X174209Y63246D01*
X174218Y63297D01*
X174237Y63345D01*
X174240Y63417D01*
X174253Y63488D01*
X174245Y63539D01*
X174247Y63591D01*
X174228Y63660D01*
X174217Y63731D01*
X174193Y63777D01*
X174179Y63827D01*
X174138Y63886D01*
X174106Y63950D01*
X174068Y63987D01*
X174039Y64029D01*
X173981Y64072D01*
X173930Y64122D01*
X173867Y64157D01*
X173841Y64176D01*
X173819Y64183D01*
X173783Y64203D01*
X170651Y65501D01*
X167101Y69051D01*
X165803Y72183D01*
X165765Y72244D01*
X165736Y72309D01*
X165701Y72348D01*
X165674Y72392D01*
X165618Y72438D01*
X165570Y72491D01*
X165524Y72516D01*
X165484Y72549D01*
X165417Y72575D01*
X165354Y72609D01*
X165303Y72618D01*
X165255Y72637D01*
X165183Y72640D01*
X165112Y72653D01*
X165061Y72645D01*
X165009Y72647D01*
X164940Y72628D01*
X164869Y72617D01*
X164823Y72593D01*
X164773Y72579D01*
X164714Y72538D01*
X164650Y72506D01*
X164613Y72468D01*
X164571Y72439D01*
X164528Y72381D01*
X164478Y72330D01*
X164443Y72267D01*
X164424Y72241D01*
X164417Y72219D01*
X164397Y72183D01*
X163099Y69051D01*
X159549Y65501D01*
X154910Y63579D01*
X149890Y63579D01*
X145251Y65501D01*
X141701Y69051D01*
X140403Y72183D01*
X140365Y72244D01*
X140336Y72309D01*
X140301Y72348D01*
X140274Y72392D01*
X140218Y72438D01*
X140170Y72491D01*
X140124Y72516D01*
X140084Y72549D01*
X140017Y72575D01*
X139954Y72609D01*
X139903Y72618D01*
X139855Y72637D01*
X139783Y72640D01*
X139712Y72653D01*
X139661Y72645D01*
X139609Y72647D01*
X139540Y72628D01*
X139469Y72617D01*
X139423Y72593D01*
X139373Y72579D01*
X139314Y72538D01*
X139250Y72506D01*
X139213Y72468D01*
X139171Y72439D01*
X139128Y72381D01*
X139078Y72330D01*
X139043Y72267D01*
X139024Y72241D01*
X139017Y72219D01*
X138997Y72183D01*
X137699Y69051D01*
X134149Y65501D01*
X129510Y63579D01*
X124490Y63579D01*
X119851Y65501D01*
X116301Y69051D01*
X115003Y72183D01*
X114965Y72244D01*
X114936Y72309D01*
X114901Y72348D01*
X114874Y72392D01*
X114818Y72438D01*
X114770Y72491D01*
X114724Y72516D01*
X114684Y72549D01*
X114617Y72575D01*
X114554Y72609D01*
X114503Y72618D01*
X114455Y72637D01*
X114383Y72640D01*
X114312Y72653D01*
X114261Y72645D01*
X114209Y72647D01*
X114140Y72628D01*
X114069Y72617D01*
X114023Y72593D01*
X113973Y72579D01*
X113914Y72538D01*
X113850Y72506D01*
X113813Y72468D01*
X113771Y72439D01*
X113728Y72381D01*
X113678Y72330D01*
X113643Y72267D01*
X113624Y72241D01*
X113617Y72219D01*
X113597Y72183D01*
X112299Y69051D01*
X108749Y65501D01*
X104110Y63579D01*
X99090Y63579D01*
X94451Y65501D01*
X90901Y69051D01*
X90285Y70537D01*
X90234Y70620D01*
X90188Y70705D01*
X90170Y70723D01*
X90156Y70746D01*
X90080Y70808D01*
X90010Y70875D01*
X89986Y70886D01*
X89966Y70902D01*
X89875Y70937D01*
X89787Y70978D01*
X89761Y70981D01*
X89737Y70991D01*
X89639Y70995D01*
X89543Y71006D01*
X89517Y71000D01*
X89491Y71001D01*
X89397Y70974D01*
X89302Y70953D01*
X89280Y70940D01*
X89255Y70933D01*
X89175Y70877D01*
X89091Y70827D01*
X89074Y70807D01*
X89053Y70792D01*
X88994Y70714D01*
X88931Y70640D01*
X88921Y70616D01*
X88906Y70595D01*
X88876Y70502D01*
X88839Y70412D01*
X88836Y70380D01*
X88830Y70361D01*
X88830Y70328D01*
X88821Y70245D01*
X88821Y66555D01*
X85845Y63579D01*
X66555Y63579D01*
X63579Y66555D01*
X63579Y70245D01*
X63564Y70341D01*
X63554Y70438D01*
X63544Y70462D01*
X63540Y70488D01*
X63494Y70574D01*
X63454Y70663D01*
X63437Y70682D01*
X63424Y70705D01*
X63354Y70772D01*
X63288Y70844D01*
X63265Y70857D01*
X63246Y70875D01*
X63158Y70916D01*
X63072Y70963D01*
X63047Y70967D01*
X63023Y70978D01*
X62926Y70989D01*
X62830Y71006D01*
X62804Y71003D01*
X62779Y71006D01*
X62683Y70985D01*
X62587Y70971D01*
X62564Y70959D01*
X62538Y70953D01*
X62455Y70903D01*
X62368Y70859D01*
X62349Y70840D01*
X62327Y70827D01*
X62264Y70753D01*
X62196Y70684D01*
X62180Y70655D01*
X62167Y70640D01*
X62155Y70609D01*
X62115Y70537D01*
X61499Y69051D01*
X57949Y65501D01*
X53310Y63579D01*
X48290Y63579D01*
X43651Y65501D01*
X40101Y69051D01*
X38803Y72183D01*
X38765Y72244D01*
X38736Y72309D01*
X38701Y72348D01*
X38674Y72392D01*
X38618Y72438D01*
X38570Y72491D01*
X38524Y72516D01*
X38484Y72549D01*
X38417Y72575D01*
X38354Y72609D01*
X38303Y72618D01*
X38255Y72637D01*
X38183Y72640D01*
X38112Y72653D01*
X38061Y72645D01*
X38009Y72648D01*
X37940Y72628D01*
X37869Y72617D01*
X37823Y72593D01*
X37773Y72579D01*
X37714Y72538D01*
X37650Y72506D01*
X37613Y72468D01*
X37571Y72439D01*
X37528Y72381D01*
X37478Y72330D01*
X37443Y72267D01*
X37424Y72241D01*
X37417Y72219D01*
X37397Y72183D01*
X36099Y69051D01*
X32549Y65501D01*
X27910Y63579D01*
X22890Y63579D01*
X18251Y65501D01*
X14701Y69051D01*
X13403Y72183D01*
X13365Y72244D01*
X13336Y72309D01*
X13301Y72348D01*
X13274Y72392D01*
X13218Y72438D01*
X13170Y72491D01*
X13124Y72516D01*
X13084Y72549D01*
X13017Y72575D01*
X12954Y72609D01*
X12903Y72618D01*
X12855Y72637D01*
X12783Y72640D01*
X12712Y72653D01*
X12661Y72645D01*
X12609Y72648D01*
X12540Y72628D01*
X12469Y72617D01*
X12423Y72593D01*
X12373Y72579D01*
X12314Y72538D01*
X12250Y72506D01*
X12213Y72468D01*
X12171Y72439D01*
X12128Y72381D01*
X12078Y72330D01*
X12043Y72267D01*
X12024Y72241D01*
X12017Y72219D01*
X11997Y72183D01*
X10699Y69051D01*
X7149Y65501D01*
X2510Y63579D01*
X-2510Y63579D01*
X-7149Y65501D01*
X-10699Y69051D01*
X-11997Y72183D01*
X-12035Y72244D01*
X-12064Y72309D01*
X-12099Y72348D01*
X-12126Y72392D01*
X-12182Y72438D01*
X-12230Y72491D01*
X-12276Y72516D01*
X-12316Y72549D01*
X-12383Y72575D01*
X-12446Y72609D01*
X-12497Y72618D01*
X-12545Y72637D01*
X-12617Y72640D01*
X-12688Y72653D01*
X-12739Y72645D01*
X-12791Y72648D01*
X-12860Y72628D01*
X-12931Y72617D01*
X-12977Y72593D01*
X-13027Y72579D01*
X-13086Y72538D01*
X-13150Y72506D01*
X-13187Y72468D01*
X-13229Y72439D01*
X-13272Y72381D01*
X-13322Y72330D01*
X-13357Y72267D01*
X-13376Y72241D01*
X-13383Y72219D01*
X-13403Y72183D01*
X-14701Y69051D01*
X-18251Y65501D01*
X-22890Y63579D01*
X-27910Y63579D01*
X-32549Y65501D01*
X-36099Y69051D01*
X-37397Y72183D01*
X-37435Y72244D01*
X-37464Y72309D01*
X-37499Y72348D01*
X-37526Y72392D01*
X-37582Y72438D01*
X-37630Y72491D01*
X-37676Y72516D01*
X-37716Y72549D01*
X-37783Y72575D01*
X-37846Y72609D01*
X-37897Y72618D01*
X-37945Y72637D01*
X-38017Y72640D01*
X-38088Y72653D01*
X-38139Y72645D01*
X-38191Y72648D01*
X-38260Y72628D01*
X-38331Y72617D01*
X-38377Y72593D01*
X-38427Y72579D01*
X-38486Y72538D01*
X-38550Y72506D01*
X-38587Y72468D01*
X-38629Y72439D01*
X-38672Y72381D01*
X-38722Y72330D01*
X-38757Y72267D01*
X-38776Y72241D01*
X-38783Y72219D01*
X-38803Y72183D01*
X-40101Y69051D01*
X-43651Y65501D01*
X-48290Y63579D01*
X-53310Y63579D01*
X-57949Y65501D01*
X-61499Y69051D01*
X-62797Y72183D01*
X-62835Y72244D01*
X-62864Y72309D01*
X-62899Y72348D01*
X-62926Y72392D01*
X-62982Y72438D01*
X-63030Y72491D01*
X-63076Y72516D01*
X-63116Y72549D01*
X-63183Y72575D01*
X-63246Y72609D01*
X-63297Y72618D01*
X-63345Y72637D01*
X-63417Y72640D01*
X-63488Y72653D01*
X-63539Y72645D01*
X-63591Y72648D01*
X-63660Y72628D01*
X-63731Y72617D01*
X-63777Y72593D01*
X-63827Y72579D01*
X-63886Y72538D01*
X-63950Y72506D01*
X-63987Y72468D01*
X-64029Y72439D01*
X-64072Y72381D01*
X-64122Y72330D01*
X-64157Y72267D01*
X-64176Y72241D01*
X-64183Y72219D01*
X-64203Y72183D01*
X-65501Y69051D01*
X-69051Y65501D01*
X-73690Y63579D01*
X-78710Y63579D01*
X-83349Y65501D01*
X-86899Y69051D01*
X-88197Y72183D01*
X-88235Y72244D01*
X-88264Y72309D01*
X-88299Y72348D01*
X-88326Y72392D01*
X-88382Y72438D01*
X-88430Y72491D01*
X-88476Y72516D01*
X-88516Y72549D01*
X-88583Y72575D01*
X-88646Y72609D01*
X-88697Y72618D01*
X-88745Y72637D01*
X-88817Y72640D01*
X-88888Y72653D01*
X-88939Y72645D01*
X-88991Y72648D01*
X-89060Y72628D01*
X-89131Y72617D01*
X-89177Y72593D01*
X-89227Y72579D01*
X-89286Y72538D01*
X-89350Y72506D01*
X-89387Y72468D01*
X-89429Y72439D01*
X-89472Y72381D01*
X-89522Y72330D01*
X-89557Y72267D01*
X-89576Y72241D01*
X-89583Y72219D01*
X-89603Y72183D01*
X-90901Y69051D01*
X-94451Y65501D01*
X-99090Y63579D01*
X-104110Y63579D01*
X-108749Y65501D01*
X-112299Y69051D01*
X-113597Y72183D01*
X-113635Y72244D01*
X-113664Y72309D01*
X-113699Y72348D01*
X-113726Y72392D01*
X-113782Y72438D01*
X-113830Y72491D01*
X-113876Y72516D01*
X-113916Y72549D01*
X-113983Y72575D01*
X-114046Y72609D01*
X-114097Y72618D01*
X-114145Y72637D01*
X-114217Y72640D01*
X-114288Y72653D01*
X-114339Y72645D01*
X-114391Y72648D01*
X-114460Y72628D01*
X-114531Y72617D01*
X-114577Y72593D01*
X-114627Y72579D01*
X-114686Y72538D01*
X-114750Y72506D01*
X-114787Y72468D01*
X-114829Y72439D01*
X-114872Y72381D01*
X-114922Y72330D01*
X-114957Y72267D01*
X-114976Y72241D01*
X-114983Y72219D01*
X-115003Y72183D01*
X-116301Y69051D01*
X-119851Y65501D01*
X-124490Y63579D01*
X-129510Y63579D01*
X-134149Y65501D01*
X-137699Y69051D01*
X-138997Y72183D01*
X-139035Y72244D01*
X-139064Y72309D01*
X-139099Y72348D01*
X-139126Y72392D01*
X-139182Y72438D01*
X-139230Y72491D01*
X-139276Y72516D01*
X-139316Y72549D01*
X-139383Y72575D01*
X-139446Y72609D01*
X-139497Y72618D01*
X-139545Y72637D01*
X-139617Y72640D01*
X-139688Y72653D01*
X-139739Y72645D01*
X-139791Y72648D01*
X-139860Y72628D01*
X-139931Y72617D01*
X-139977Y72593D01*
X-140027Y72579D01*
X-140086Y72538D01*
X-140150Y72506D01*
X-140187Y72468D01*
X-140229Y72439D01*
X-140272Y72381D01*
X-140322Y72330D01*
X-140357Y72267D01*
X-140376Y72241D01*
X-140383Y72219D01*
X-140403Y72183D01*
X-141701Y69051D01*
X-145251Y65501D01*
X-149890Y63579D01*
X-154910Y63579D01*
X-159549Y65501D01*
X-163099Y69051D01*
X-164397Y72183D01*
X-164435Y72244D01*
X-164464Y72309D01*
X-164499Y72348D01*
X-164526Y72392D01*
X-164582Y72438D01*
X-164630Y72491D01*
X-164676Y72516D01*
X-164716Y72549D01*
X-164783Y72575D01*
X-164846Y72609D01*
X-164897Y72618D01*
X-164945Y72637D01*
X-165017Y72640D01*
X-165088Y72653D01*
X-165139Y72645D01*
X-165191Y72648D01*
X-165260Y72628D01*
X-165331Y72617D01*
X-165377Y72593D01*
X-165427Y72579D01*
X-165486Y72538D01*
X-165550Y72506D01*
X-165587Y72468D01*
X-165629Y72439D01*
X-165672Y72381D01*
X-165722Y72330D01*
X-165757Y72267D01*
X-165776Y72241D01*
X-165783Y72219D01*
X-165803Y72183D01*
X-167101Y69051D01*
X-170651Y65501D01*
X-175290Y63579D01*
X-180310Y63579D01*
X-184949Y65501D01*
X-188499Y69051D01*
X-189797Y72183D01*
X-189835Y72244D01*
X-189864Y72309D01*
X-189899Y72348D01*
X-189926Y72392D01*
X-189982Y72438D01*
X-190030Y72491D01*
X-190076Y72516D01*
X-190116Y72549D01*
X-190183Y72575D01*
X-190246Y72609D01*
X-190297Y72618D01*
X-190345Y72637D01*
X-190417Y72640D01*
X-190488Y72653D01*
X-190539Y72645D01*
X-190591Y72648D01*
X-190660Y72628D01*
X-190731Y72617D01*
X-190777Y72593D01*
X-190827Y72579D01*
X-190886Y72538D01*
X-190950Y72506D01*
X-190987Y72468D01*
X-191029Y72439D01*
X-191072Y72381D01*
X-191122Y72330D01*
X-191157Y72267D01*
X-191176Y72241D01*
X-191183Y72219D01*
X-191203Y72183D01*
X-192501Y69051D01*
X-196051Y65501D01*
X-200690Y63579D01*
X-205710Y63579D01*
X-210349Y65501D01*
X-213899Y69051D01*
X-214635Y70828D01*
X-214659Y70867D01*
X-214675Y70910D01*
X-214724Y70971D01*
X-214765Y71037D01*
X-214800Y71066D01*
X-214829Y71102D01*
X-214894Y71144D01*
X-214954Y71194D01*
X-214997Y71210D01*
X-215036Y71235D01*
X-215111Y71254D01*
X-215184Y71282D01*
X-215230Y71284D01*
X-215274Y71295D01*
X-215352Y71289D01*
X-215430Y71292D01*
X-215474Y71279D01*
X-215520Y71276D01*
X-215591Y71245D01*
X-215666Y71224D01*
X-215704Y71197D01*
X-215746Y71180D01*
X-215853Y71094D01*
X-215868Y71083D01*
X-215871Y71079D01*
X-215877Y71075D01*
X-223372Y63579D01*
X-233828Y63579D01*
X-241221Y70972D01*
X-241221Y81428D01*
X-233828Y88821D01*
X-223372Y88821D01*
X-215877Y81325D01*
X-215840Y81299D01*
X-215809Y81265D01*
X-215740Y81227D01*
X-215677Y81182D01*
X-215633Y81168D01*
X-215593Y81146D01*
X-215516Y81132D01*
X-215442Y81109D01*
X-215396Y81111D01*
X-215351Y81102D01*
X-215274Y81114D01*
X-215196Y81116D01*
X-215153Y81132D01*
X-215108Y81138D01*
X-215038Y81173D01*
X-214965Y81200D01*
X-214929Y81229D01*
X-214888Y81250D01*
X-214834Y81305D01*
X-214773Y81354D01*
X-214748Y81393D01*
X-214716Y81425D01*
X-214650Y81545D01*
X-214640Y81561D01*
X-214639Y81566D01*
X-214635Y81572D01*
X-213899Y83349D01*
X-210349Y86899D01*
X-205710Y88821D01*
X-200690Y88821D01*
X-196051Y86899D01*
X-192501Y83349D01*
X-191203Y80217D01*
X-191165Y80156D01*
X-191136Y80091D01*
X-191101Y80052D01*
X-191074Y80008D01*
X-191018Y79962D01*
X-190970Y79909D01*
X-190924Y79884D01*
X-190884Y79851D01*
X-190817Y79825D01*
X-190754Y79791D01*
X-190703Y79782D01*
X-190655Y79763D01*
X-190583Y79760D01*
X-190512Y79747D01*
X-190461Y79755D01*
X-190409Y79752D01*
X-190340Y79772D01*
X-190269Y79783D01*
X-190223Y79807D01*
X-190173Y79821D01*
X-190114Y79862D01*
X-190050Y79894D01*
X-190013Y79932D01*
X-189971Y79961D01*
X-189928Y80019D01*
X-189878Y80070D01*
X-189843Y80133D01*
X-189824Y80159D01*
X-189817Y80181D01*
X-189797Y80217D01*
X-188499Y83349D01*
X-184949Y86899D01*
X-180310Y88821D01*
X-175290Y88821D01*
X-170651Y86899D01*
X-167101Y83349D01*
X-165803Y80217D01*
X-165765Y80156D01*
X-165736Y80091D01*
X-165701Y80052D01*
X-165674Y80008D01*
X-165618Y79962D01*
X-165570Y79909D01*
X-165524Y79884D01*
X-165484Y79851D01*
X-165417Y79825D01*
X-165354Y79791D01*
X-165303Y79782D01*
X-165255Y79763D01*
X-165183Y79760D01*
X-165112Y79747D01*
X-165061Y79755D01*
X-165009Y79752D01*
X-164940Y79772D01*
X-164869Y79783D01*
X-164823Y79807D01*
X-164773Y79821D01*
X-164714Y79862D01*
X-164650Y79894D01*
X-164613Y79932D01*
X-164571Y79961D01*
X-164528Y80019D01*
X-164478Y80070D01*
X-164443Y80133D01*
X-164424Y80159D01*
X-164417Y80181D01*
X-164397Y80217D01*
X-163099Y83349D01*
X-159549Y86899D01*
X-154910Y88821D01*
X-149890Y88821D01*
X-145251Y86899D01*
X-141701Y83349D01*
X-140403Y80217D01*
X-140365Y80156D01*
X-140336Y80091D01*
X-140301Y80052D01*
X-140274Y80008D01*
X-140218Y79962D01*
X-140170Y79909D01*
X-140124Y79884D01*
X-140084Y79851D01*
X-140017Y79825D01*
X-139954Y79791D01*
X-139903Y79782D01*
X-139855Y79763D01*
X-139783Y79760D01*
X-139712Y79747D01*
X-139661Y79755D01*
X-139609Y79752D01*
X-139540Y79772D01*
X-139469Y79783D01*
X-139423Y79807D01*
X-139373Y79821D01*
X-139314Y79862D01*
X-139250Y79894D01*
X-139213Y79932D01*
X-139171Y79961D01*
X-139128Y80019D01*
X-139078Y80070D01*
X-139043Y80133D01*
X-139024Y80159D01*
X-139017Y80181D01*
X-138997Y80217D01*
X-137699Y83349D01*
X-134149Y86899D01*
X-129510Y88821D01*
X-124490Y88821D01*
X-119851Y86899D01*
X-116301Y83349D01*
X-115003Y80217D01*
X-114965Y80156D01*
X-114936Y80091D01*
X-114901Y80052D01*
X-114874Y80008D01*
X-114818Y79962D01*
X-114770Y79909D01*
X-114724Y79884D01*
X-114684Y79851D01*
X-114617Y79825D01*
X-114554Y79791D01*
X-114503Y79782D01*
X-114455Y79763D01*
X-114383Y79760D01*
X-114312Y79747D01*
X-114261Y79755D01*
X-114209Y79752D01*
X-114140Y79772D01*
X-114069Y79783D01*
X-114023Y79807D01*
X-113973Y79821D01*
X-113914Y79862D01*
X-113850Y79894D01*
X-113813Y79932D01*
X-113771Y79961D01*
X-113728Y80019D01*
X-113678Y80070D01*
X-113643Y80133D01*
X-113624Y80159D01*
X-113617Y80181D01*
X-113597Y80217D01*
X-112299Y83349D01*
X-108749Y86899D01*
X-107131Y87570D01*
X-107031Y87631D01*
X-106931Y87691D01*
X-106927Y87696D01*
X-106922Y87699D01*
X-106847Y87789D01*
X-106771Y87878D01*
X-106769Y87884D01*
X-106765Y87889D01*
X-106723Y87997D01*
X-106679Y88106D01*
X-106678Y88114D01*
X-106677Y88118D01*
X-106676Y88137D01*
X-106661Y88273D01*
X-106661Y115643D01*
X-106680Y115757D01*
X-106697Y115874D01*
X-106699Y115879D01*
X-106700Y115886D01*
X-106755Y115988D01*
X-106808Y116093D01*
X-106813Y116097D01*
X-106816Y116103D01*
X-106900Y116183D01*
X-106984Y116265D01*
X-106990Y116269D01*
X-106994Y116272D01*
X-107011Y116280D01*
X-107131Y116346D01*
X-108244Y116807D01*
X-112174Y120737D01*
X-112327Y121106D01*
X-112365Y121167D01*
X-112394Y121233D01*
X-112429Y121271D01*
X-112456Y121315D01*
X-112512Y121361D01*
X-112560Y121414D01*
X-112606Y121439D01*
X-112646Y121472D01*
X-112713Y121498D01*
X-112776Y121532D01*
X-112827Y121542D01*
X-112875Y121560D01*
X-112947Y121563D01*
X-113018Y121576D01*
X-113069Y121569D01*
X-113121Y121571D01*
X-113190Y121551D01*
X-113261Y121540D01*
X-113308Y121517D01*
X-113357Y121502D01*
X-113416Y121461D01*
X-113480Y121429D01*
X-113517Y121392D01*
X-113559Y121362D01*
X-113602Y121304D01*
X-113652Y121253D01*
X-113687Y121191D01*
X-113706Y121165D01*
X-113714Y121142D01*
X-113733Y121106D01*
X-113886Y120737D01*
X-117816Y116807D01*
X-122951Y114680D01*
X-128509Y114680D01*
X-133644Y116807D01*
X-137574Y120737D01*
X-137727Y121106D01*
X-137765Y121167D01*
X-137794Y121233D01*
X-137829Y121271D01*
X-137856Y121315D01*
X-137912Y121361D01*
X-137960Y121414D01*
X-138006Y121439D01*
X-138046Y121472D01*
X-138113Y121498D01*
X-138176Y121532D01*
X-138227Y121542D01*
X-138275Y121560D01*
X-138347Y121563D01*
X-138418Y121576D01*
X-138469Y121569D01*
X-138521Y121571D01*
X-138590Y121551D01*
X-138661Y121540D01*
X-138708Y121517D01*
X-138757Y121502D01*
X-138816Y121461D01*
X-138880Y121429D01*
X-138917Y121392D01*
X-138959Y121362D01*
X-139002Y121304D01*
X-139052Y121253D01*
X-139087Y121191D01*
X-139106Y121165D01*
X-139114Y121142D01*
X-139133Y121106D01*
X-139286Y120737D01*
X-143216Y116807D01*
X-148351Y114680D01*
X-153909Y114680D01*
X-159044Y116807D01*
X-162974Y120737D01*
X-163127Y121106D01*
X-163165Y121167D01*
X-163194Y121233D01*
X-163229Y121271D01*
X-163256Y121315D01*
X-163312Y121361D01*
X-163360Y121414D01*
X-163406Y121439D01*
X-163446Y121472D01*
X-163513Y121498D01*
X-163576Y121532D01*
X-163627Y121542D01*
X-163675Y121560D01*
X-163747Y121563D01*
X-163818Y121576D01*
X-163869Y121569D01*
X-163921Y121571D01*
X-163990Y121551D01*
X-164061Y121540D01*
X-164108Y121517D01*
X-164157Y121502D01*
X-164216Y121461D01*
X-164280Y121429D01*
X-164317Y121392D01*
X-164359Y121362D01*
X-164402Y121304D01*
X-164452Y121253D01*
X-164487Y121191D01*
X-164506Y121165D01*
X-164514Y121142D01*
X-164533Y121106D01*
X-164686Y120737D01*
X-168616Y116807D01*
X-173751Y114680D01*
X-179309Y114680D01*
X-184444Y116807D01*
X-188374Y120737D01*
X-189887Y124389D01*
X-189940Y124476D01*
X-189988Y124565D01*
X-190005Y124580D01*
X-190016Y124599D01*
X-190094Y124663D01*
X-190169Y124732D01*
X-190189Y124741D01*
X-190206Y124755D01*
X-190300Y124792D01*
X-190393Y124833D01*
X-190415Y124836D01*
X-190435Y124844D01*
X-190537Y124848D01*
X-190637Y124858D01*
X-190659Y124853D01*
X-190681Y124854D01*
X-190779Y124826D01*
X-190877Y124803D01*
X-190896Y124792D01*
X-190917Y124785D01*
X-191001Y124728D01*
X-191087Y124675D01*
X-191101Y124658D01*
X-191119Y124645D01*
X-191180Y124564D01*
X-191245Y124486D01*
X-191256Y124461D01*
X-191266Y124448D01*
X-191276Y124417D01*
X-191314Y124333D01*
X-191337Y124263D01*
X-192154Y122660D01*
X-193211Y121204D01*
X-194483Y119932D01*
X-195939Y118875D01*
X-197542Y118058D01*
X-199253Y117502D01*
X-200407Y117319D01*
X-200407Y127889D01*
X-200410Y127909D01*
X-200408Y127928D01*
X-200430Y128030D01*
X-200447Y128132D01*
X-200456Y128149D01*
X-200460Y128169D01*
X-200513Y128258D01*
X-200562Y128349D01*
X-200576Y128363D01*
X-200586Y128380D01*
X-200665Y128447D01*
X-200740Y128518D01*
X-200758Y128527D01*
X-200773Y128540D01*
X-200869Y128578D01*
X-200963Y128622D01*
X-200983Y128624D01*
X-201001Y128632D01*
X-201168Y128650D01*
X-202692Y128650D01*
X-202712Y128647D01*
X-202731Y128649D01*
X-202833Y128627D01*
X-202935Y128610D01*
X-202952Y128601D01*
X-202972Y128597D01*
X-203061Y128544D01*
X-203152Y128495D01*
X-203166Y128481D01*
X-203183Y128471D01*
X-203250Y128392D01*
X-203321Y128317D01*
X-203330Y128299D01*
X-203343Y128284D01*
X-203382Y128188D01*
X-203425Y128094D01*
X-203427Y128074D01*
X-203435Y128056D01*
X-203453Y127889D01*
X-203453Y117319D01*
X-204607Y117502D01*
X-206318Y118058D01*
X-207921Y118875D01*
X-209377Y119932D01*
X-210649Y121204D01*
X-211706Y122660D01*
X-211920Y123079D01*
X-211960Y123133D01*
X-211992Y123193D01*
X-212032Y123232D01*
X-212065Y123277D01*
X-212121Y123316D01*
X-212170Y123363D01*
X-212221Y123386D01*
X-212267Y123418D01*
X-212332Y123438D01*
X-212393Y123466D01*
X-212449Y123472D01*
X-212502Y123488D01*
X-212570Y123486D01*
X-212637Y123493D01*
X-212692Y123481D01*
X-212748Y123479D01*
X-212812Y123455D01*
X-212878Y123441D01*
X-212926Y123412D01*
X-212978Y123393D01*
X-213031Y123350D01*
X-213089Y123315D01*
X-213125Y123272D01*
X-213169Y123237D01*
X-213205Y123180D01*
X-213249Y123128D01*
X-213270Y123076D01*
X-213300Y123029D01*
X-213315Y122963D01*
X-213341Y122900D01*
X-213349Y122821D01*
X-213357Y122789D01*
X-213355Y122769D01*
X-213359Y122733D01*
X-213359Y117656D01*
X-216335Y114680D01*
X-238325Y114680D01*
X-241301Y117656D01*
X-241301Y139646D01*
X-238325Y142622D01*
X-216335Y142622D01*
X-213359Y139646D01*
X-213359Y134569D01*
X-213348Y134502D01*
X-213347Y134434D01*
X-213329Y134381D01*
X-213320Y134326D01*
X-213288Y134266D01*
X-213265Y134202D01*
X-213231Y134158D01*
X-213204Y134109D01*
X-213155Y134062D01*
X-213113Y134009D01*
X-213067Y133978D01*
X-213026Y133939D01*
X-212965Y133911D01*
X-212908Y133874D01*
X-212854Y133859D01*
X-212803Y133836D01*
X-212736Y133828D01*
X-212670Y133811D01*
X-212614Y133815D01*
X-212559Y133809D01*
X-212492Y133823D01*
X-212425Y133828D01*
X-212373Y133849D01*
X-212318Y133861D01*
X-212260Y133896D01*
X-212197Y133922D01*
X-212155Y133958D01*
X-212107Y133987D01*
X-212063Y134039D01*
X-212012Y134083D01*
X-211969Y134149D01*
X-211947Y134174D01*
X-211939Y134194D01*
X-211920Y134223D01*
X-211706Y134642D01*
X-210649Y136098D01*
X-209377Y137370D01*
X-207921Y138427D01*
X-206318Y139244D01*
X-204607Y139800D01*
X-203453Y139983D01*
X-203453Y129413D01*
X-203450Y129393D01*
X-203452Y129374D01*
X-203430Y129272D01*
X-203413Y129170D01*
X-203404Y129153D01*
X-203400Y129133D01*
X-203347Y129044D01*
X-203298Y128953D01*
X-203284Y128939D01*
X-203274Y128922D01*
X-203195Y128855D01*
X-203120Y128784D01*
X-203102Y128775D01*
X-203087Y128762D01*
X-202991Y128724D01*
X-202897Y128680D01*
X-202877Y128678D01*
X-202859Y128670D01*
X-202692Y128652D01*
X-201168Y128652D01*
X-201148Y128655D01*
X-201129Y128653D01*
X-201027Y128675D01*
X-200925Y128692D01*
X-200908Y128701D01*
X-200888Y128705D01*
X-200799Y128758D01*
X-200708Y128807D01*
X-200694Y128821D01*
X-200677Y128831D01*
X-200610Y128910D01*
X-200539Y128985D01*
X-200530Y129003D01*
X-200517Y129018D01*
X-200478Y129114D01*
X-200435Y129208D01*
X-200433Y129228D01*
X-200425Y129246D01*
X-200407Y129413D01*
X-200407Y139983D01*
X-199253Y139800D01*
X-197542Y139244D01*
X-195939Y138427D01*
X-194483Y137370D01*
X-193211Y136098D01*
X-192154Y134642D01*
X-191337Y133039D01*
X-191314Y132969D01*
X-191267Y132879D01*
X-191226Y132786D01*
X-191211Y132770D01*
X-191201Y132750D01*
X-191129Y132680D01*
X-191060Y132605D01*
X-191040Y132594D01*
X-191025Y132579D01*
X-190933Y132535D01*
X-190844Y132486D01*
X-190823Y132482D01*
X-190803Y132473D01*
X-190702Y132461D01*
X-190602Y132443D01*
X-190580Y132446D01*
X-190559Y132443D01*
X-190459Y132464D01*
X-190359Y132478D01*
X-190339Y132489D01*
X-190318Y132493D01*
X-190230Y132544D01*
X-190140Y132590D01*
X-190124Y132606D01*
X-190105Y132617D01*
X-190039Y132693D01*
X-189967Y132766D01*
X-189954Y132790D01*
X-189943Y132802D01*
X-189931Y132832D01*
X-189887Y132913D01*
X-188374Y136565D01*
X-184444Y140495D01*
X-179309Y142622D01*
X-173751Y142622D01*
X-168616Y140495D01*
X-164686Y136565D01*
X-164533Y136196D01*
X-164496Y136135D01*
X-164466Y136069D01*
X-164431Y136031D01*
X-164404Y135987D01*
X-164348Y135941D01*
X-164300Y135888D01*
X-164254Y135863D01*
X-164214Y135830D01*
X-164147Y135804D01*
X-164084Y135770D01*
X-164033Y135760D01*
X-163985Y135742D01*
X-163913Y135739D01*
X-163842Y135726D01*
X-163791Y135733D01*
X-163739Y135731D01*
X-163670Y135751D01*
X-163599Y135762D01*
X-163553Y135785D01*
X-163503Y135800D01*
X-163444Y135841D01*
X-163380Y135873D01*
X-163343Y135910D01*
X-163301Y135940D01*
X-163258Y135997D01*
X-163208Y136049D01*
X-163173Y136112D01*
X-163154Y136137D01*
X-163147Y136160D01*
X-163127Y136196D01*
X-162974Y136565D01*
X-159044Y140495D01*
X-153909Y142622D01*
X-148351Y142622D01*
X-143216Y140495D01*
X-139286Y136565D01*
X-139133Y136196D01*
X-139096Y136135D01*
X-139066Y136069D01*
X-139031Y136031D01*
X-139004Y135987D01*
X-138948Y135941D01*
X-138900Y135888D01*
X-138854Y135863D01*
X-138814Y135830D01*
X-138747Y135804D01*
X-138684Y135770D01*
X-138633Y135760D01*
X-138585Y135742D01*
X-138513Y135739D01*
X-138442Y135726D01*
X-138391Y135733D01*
X-138339Y135731D01*
X-138270Y135751D01*
X-138199Y135762D01*
X-138153Y135785D01*
X-138103Y135800D01*
X-138044Y135841D01*
X-137980Y135873D01*
X-137943Y135910D01*
X-137901Y135940D01*
X-137858Y135997D01*
X-137808Y136049D01*
X-137773Y136112D01*
X-137754Y136137D01*
X-137747Y136160D01*
X-137727Y136196D01*
X-137574Y136565D01*
X-133644Y140495D01*
X-128509Y142622D01*
X-122951Y142622D01*
X-117816Y140495D01*
X-113886Y136565D01*
X-113733Y136196D01*
X-113696Y136135D01*
X-113666Y136069D01*
X-113631Y136031D01*
X-113604Y135987D01*
X-113548Y135941D01*
X-113500Y135888D01*
X-113454Y135863D01*
X-113414Y135830D01*
X-113347Y135804D01*
X-113284Y135770D01*
X-113233Y135760D01*
X-113185Y135742D01*
X-113113Y135739D01*
X-113042Y135726D01*
X-112991Y135733D01*
X-112939Y135731D01*
X-112870Y135751D01*
X-112799Y135762D01*
X-112753Y135785D01*
X-112703Y135800D01*
X-112644Y135841D01*
X-112580Y135873D01*
X-112543Y135910D01*
X-112501Y135940D01*
X-112458Y135997D01*
X-112408Y136049D01*
X-112373Y136112D01*
X-112354Y136137D01*
X-112347Y136160D01*
X-112327Y136196D01*
X-112174Y136565D01*
X-108244Y140495D01*
X-103109Y142622D01*
X-97551Y142622D01*
X-96438Y142161D01*
X-96324Y142134D01*
X-96211Y142105D01*
X-96205Y142106D01*
X-96198Y142104D01*
X-96082Y142115D01*
X-95966Y142125D01*
X-95960Y142127D01*
X-95954Y142128D01*
X-95846Y142175D01*
X-95739Y142221D01*
X-95733Y142226D01*
X-95729Y142228D01*
X-95715Y142240D01*
X-95608Y142326D01*
X-69355Y168579D01*
X-67467Y170467D01*
X-65140Y171431D01*
X102859Y171431D01*
X105186Y170467D01*
X139479Y136174D01*
X140443Y133847D01*
X140443Y130334D01*
X140462Y130219D01*
X140479Y130103D01*
X140481Y130097D01*
X140482Y130091D01*
X140537Y129988D01*
X140590Y129884D01*
X140595Y129879D01*
X140598Y129874D01*
X140682Y129794D01*
X140766Y129711D01*
X140772Y129708D01*
X140776Y129704D01*
X140793Y129697D01*
X140913Y129631D01*
X142745Y128871D01*
X146274Y125343D01*
X146290Y125331D01*
X146302Y125316D01*
X146390Y125260D01*
X146473Y125199D01*
X146492Y125194D01*
X146509Y125183D01*
X146610Y125157D01*
X146709Y125127D01*
X146728Y125128D01*
X146748Y125123D01*
X146851Y125131D01*
X146954Y125133D01*
X146973Y125140D01*
X146993Y125142D01*
X147088Y125182D01*
X147185Y125218D01*
X147201Y125230D01*
X147219Y125238D01*
X147350Y125343D01*
X150879Y128871D01*
X156480Y131192D01*
X162544Y131192D01*
X168145Y128871D01*
X172432Y124584D01*
X174753Y118983D01*
X174753Y112919D01*
X172432Y107318D01*
X168145Y103031D01*
X162544Y100710D01*
X156480Y100710D01*
X150879Y103031D01*
X147350Y106559D01*
X147334Y106571D01*
X147322Y106586D01*
X147234Y106642D01*
X147151Y106703D01*
X147132Y106708D01*
X147115Y106719D01*
X147014Y106745D01*
X146915Y106775D01*
X146896Y106774D01*
X146876Y106779D01*
X146773Y106771D01*
X146670Y106769D01*
X146651Y106762D01*
X146631Y106760D01*
X146536Y106720D01*
X146439Y106684D01*
X146423Y106672D01*
X146405Y106664D01*
X146274Y106559D01*
X142745Y103031D01*
X137144Y100710D01*
X131080Y100710D01*
X125479Y103031D01*
X121950Y106559D01*
X121934Y106571D01*
X121922Y106586D01*
X121834Y106642D01*
X121751Y106703D01*
X121732Y106708D01*
X121715Y106719D01*
X121614Y106745D01*
X121515Y106775D01*
X121496Y106774D01*
X121476Y106779D01*
X121373Y106771D01*
X121270Y106769D01*
X121251Y106762D01*
X121231Y106760D01*
X121136Y106720D01*
X121039Y106684D01*
X121023Y106672D01*
X121005Y106664D01*
X120874Y106559D01*
X117345Y103031D01*
X111744Y100710D01*
X105680Y100710D01*
X100079Y103031D01*
X95792Y107318D01*
X95203Y108738D01*
X95148Y108828D01*
X95097Y108919D01*
X95083Y108932D01*
X95074Y108947D01*
X94992Y109014D01*
X94915Y109085D01*
X94898Y109092D01*
X94884Y109104D01*
X94786Y109142D01*
X94690Y109184D01*
X94671Y109186D01*
X94654Y109192D01*
X94550Y109197D01*
X94445Y109206D01*
X94427Y109202D01*
X94409Y109203D01*
X94308Y109173D01*
X94205Y109149D01*
X94190Y109139D01*
X94173Y109134D01*
X94086Y109074D01*
X93997Y109018D01*
X93982Y109002D01*
X93970Y108994D01*
X93952Y108969D01*
X93884Y108894D01*
X92999Y107677D01*
X91586Y106264D01*
X89969Y105088D01*
X88187Y104181D01*
X86286Y103563D01*
X84835Y103333D01*
X84835Y115189D01*
X84832Y115209D01*
X84834Y115228D01*
X84812Y115330D01*
X84795Y115432D01*
X84786Y115449D01*
X84782Y115469D01*
X84729Y115558D01*
X84680Y115649D01*
X84666Y115663D01*
X84656Y115680D01*
X84577Y115747D01*
X84502Y115818D01*
X84484Y115827D01*
X84469Y115840D01*
X84373Y115878D01*
X84279Y115922D01*
X84259Y115924D01*
X84241Y115932D01*
X84074Y115950D01*
X82550Y115950D01*
X82530Y115947D01*
X82511Y115949D01*
X82409Y115927D01*
X82307Y115910D01*
X82290Y115901D01*
X82270Y115897D01*
X82181Y115844D01*
X82090Y115795D01*
X82076Y115781D01*
X82059Y115771D01*
X81992Y115692D01*
X81921Y115617D01*
X81912Y115599D01*
X81899Y115584D01*
X81860Y115488D01*
X81817Y115394D01*
X81815Y115374D01*
X81807Y115356D01*
X81789Y115189D01*
X81789Y103333D01*
X80338Y103563D01*
X78437Y104181D01*
X76655Y105088D01*
X75038Y106264D01*
X73625Y107677D01*
X72740Y108894D01*
X72665Y108969D01*
X72594Y109046D01*
X72578Y109055D01*
X72565Y109067D01*
X72471Y109114D01*
X72379Y109164D01*
X72361Y109168D01*
X72344Y109176D01*
X72240Y109189D01*
X72137Y109208D01*
X72118Y109205D01*
X72100Y109208D01*
X71998Y109188D01*
X71893Y109172D01*
X71877Y109164D01*
X71859Y109160D01*
X71768Y109109D01*
X71674Y109061D01*
X71661Y109048D01*
X71645Y109039D01*
X71575Y108960D01*
X71502Y108885D01*
X71491Y108866D01*
X71482Y108855D01*
X71469Y108826D01*
X71421Y108738D01*
X70832Y107318D01*
X66545Y103031D01*
X60944Y100710D01*
X54880Y100710D01*
X49279Y103031D01*
X45750Y106559D01*
X45734Y106571D01*
X45722Y106586D01*
X45634Y106642D01*
X45551Y106703D01*
X45532Y106708D01*
X45515Y106719D01*
X45414Y106745D01*
X45315Y106775D01*
X45296Y106774D01*
X45276Y106779D01*
X45173Y106771D01*
X45070Y106769D01*
X45051Y106762D01*
X45031Y106760D01*
X44936Y106720D01*
X44839Y106684D01*
X44823Y106672D01*
X44805Y106664D01*
X44674Y106559D01*
X41145Y103031D01*
X35544Y100710D01*
X29480Y100710D01*
X23879Y103031D01*
X19592Y107318D01*
X17271Y112919D01*
X17271Y118983D01*
X19592Y124584D01*
X23879Y128871D01*
X29480Y131192D01*
X35544Y131192D01*
X41145Y128871D01*
X44674Y125343D01*
X44690Y125331D01*
X44702Y125316D01*
X44790Y125260D01*
X44873Y125199D01*
X44892Y125194D01*
X44909Y125183D01*
X45010Y125157D01*
X45109Y125127D01*
X45128Y125128D01*
X45148Y125123D01*
X45251Y125131D01*
X45354Y125133D01*
X45373Y125140D01*
X45393Y125142D01*
X45488Y125182D01*
X45585Y125218D01*
X45601Y125230D01*
X45619Y125238D01*
X45750Y125343D01*
X49279Y128871D01*
X54880Y131192D01*
X60944Y131192D01*
X66545Y128871D01*
X70832Y124584D01*
X71421Y123164D01*
X71476Y123074D01*
X71527Y122983D01*
X71541Y122970D01*
X71550Y122955D01*
X71632Y122888D01*
X71709Y122817D01*
X71726Y122810D01*
X71740Y122798D01*
X71838Y122760D01*
X71934Y122718D01*
X71953Y122716D01*
X71970Y122710D01*
X72074Y122705D01*
X72179Y122696D01*
X72197Y122700D01*
X72215Y122699D01*
X72316Y122729D01*
X72419Y122753D01*
X72434Y122763D01*
X72451Y122768D01*
X72538Y122828D01*
X72627Y122884D01*
X72642Y122900D01*
X72654Y122908D01*
X72672Y122933D01*
X72740Y123008D01*
X73625Y124225D01*
X75038Y125638D01*
X76655Y126814D01*
X78437Y127721D01*
X80338Y128339D01*
X81789Y128569D01*
X81789Y116713D01*
X81791Y116700D01*
X81790Y116689D01*
X81791Y116684D01*
X81790Y116674D01*
X81812Y116572D01*
X81829Y116470D01*
X81838Y116453D01*
X81842Y116433D01*
X81895Y116344D01*
X81944Y116253D01*
X81958Y116239D01*
X81968Y116222D01*
X82047Y116155D01*
X82122Y116084D01*
X82140Y116075D01*
X82155Y116062D01*
X82251Y116024D01*
X82345Y115980D01*
X82365Y115978D01*
X82383Y115970D01*
X82550Y115952D01*
X84074Y115952D01*
X84094Y115955D01*
X84113Y115953D01*
X84215Y115975D01*
X84317Y115992D01*
X84334Y116001D01*
X84354Y116005D01*
X84443Y116058D01*
X84534Y116107D01*
X84548Y116121D01*
X84565Y116131D01*
X84632Y116210D01*
X84703Y116285D01*
X84712Y116303D01*
X84725Y116318D01*
X84764Y116414D01*
X84807Y116508D01*
X84809Y116528D01*
X84817Y116546D01*
X84835Y116713D01*
X84835Y128569D01*
X85261Y128501D01*
X85269Y128501D01*
X85277Y128499D01*
X85392Y128502D01*
X85507Y128503D01*
X85515Y128505D01*
X85523Y128505D01*
X85631Y128545D01*
X85740Y128582D01*
X85746Y128587D01*
X85754Y128590D01*
X85844Y128662D01*
X85935Y128732D01*
X85939Y128739D01*
X85946Y128744D01*
X86008Y128841D01*
X86072Y128936D01*
X86074Y128944D01*
X86079Y128950D01*
X86107Y129062D01*
X86137Y129173D01*
X86137Y129181D01*
X86139Y129189D01*
X86130Y129303D01*
X86123Y129419D01*
X86120Y129426D01*
X86120Y129434D01*
X86075Y129539D01*
X86032Y129647D01*
X86026Y129653D01*
X86023Y129661D01*
X85918Y129791D01*
X69864Y145846D01*
X69790Y145899D01*
X69720Y145959D01*
X69690Y145971D01*
X69664Y145990D01*
X69577Y146017D01*
X69492Y146051D01*
X69451Y146055D01*
X69429Y146062D01*
X69397Y146061D01*
X69325Y146069D01*
X-48243Y146069D01*
X-48333Y146055D01*
X-48424Y146047D01*
X-48454Y146035D01*
X-48486Y146030D01*
X-48567Y145987D01*
X-48651Y145951D01*
X-48683Y145925D01*
X-48704Y145914D01*
X-48726Y145891D01*
X-48782Y145846D01*
X-61255Y133373D01*
X-61324Y133278D01*
X-61393Y133184D01*
X-61395Y133178D01*
X-61399Y133173D01*
X-61433Y133062D01*
X-61469Y132950D01*
X-61469Y132944D01*
X-61471Y132938D01*
X-61468Y132821D01*
X-61467Y132704D01*
X-61465Y132697D01*
X-61465Y132692D01*
X-61458Y132675D01*
X-61420Y132543D01*
X-60959Y131430D01*
X-60959Y125872D01*
X-63086Y120737D01*
X-67016Y116807D01*
X-68129Y116346D01*
X-68229Y116284D01*
X-68329Y116225D01*
X-68333Y116220D01*
X-68338Y116217D01*
X-68413Y116126D01*
X-68489Y116038D01*
X-68491Y116032D01*
X-68495Y116027D01*
X-68537Y115919D01*
X-68581Y115810D01*
X-68582Y115802D01*
X-68583Y115797D01*
X-68584Y115779D01*
X-68599Y115643D01*
X-68599Y86763D01*
X-68585Y86673D01*
X-68577Y86582D01*
X-68565Y86552D01*
X-68560Y86520D01*
X-68517Y86440D01*
X-68481Y86356D01*
X-68455Y86323D01*
X-68444Y86303D01*
X-68421Y86281D01*
X-68376Y86225D01*
X-65501Y83349D01*
X-64203Y80217D01*
X-64165Y80156D01*
X-64136Y80091D01*
X-64101Y80052D01*
X-64074Y80008D01*
X-64018Y79962D01*
X-63970Y79909D01*
X-63924Y79884D01*
X-63884Y79851D01*
X-63817Y79825D01*
X-63754Y79791D01*
X-63703Y79782D01*
X-63655Y79763D01*
X-63583Y79760D01*
X-63512Y79747D01*
X-63461Y79755D01*
X-63409Y79752D01*
X-63340Y79772D01*
X-63269Y79783D01*
X-63223Y79807D01*
X-63173Y79821D01*
X-63114Y79862D01*
X-63050Y79894D01*
X-63013Y79932D01*
X-62971Y79961D01*
X-62928Y80019D01*
X-62878Y80070D01*
X-62843Y80133D01*
X-62824Y80159D01*
X-62817Y80181D01*
X-62797Y80217D01*
X-61499Y83349D01*
X-57949Y86899D01*
X-53310Y88821D01*
X-48290Y88821D01*
X-43651Y86899D01*
X-40101Y83349D01*
X-38803Y80217D01*
X-38765Y80156D01*
X-38736Y80091D01*
X-38701Y80052D01*
X-38674Y80008D01*
X-38618Y79962D01*
X-38570Y79909D01*
X-38524Y79884D01*
X-38484Y79851D01*
X-38417Y79825D01*
X-38354Y79791D01*
X-38303Y79782D01*
X-38255Y79763D01*
X-38183Y79760D01*
X-38112Y79747D01*
X-38061Y79755D01*
X-38009Y79752D01*
X-37940Y79772D01*
X-37869Y79783D01*
X-37823Y79807D01*
X-37773Y79821D01*
X-37714Y79862D01*
X-37650Y79894D01*
X-37613Y79932D01*
X-37571Y79961D01*
X-37528Y80019D01*
X-37478Y80070D01*
X-37443Y80133D01*
X-37424Y80159D01*
X-37417Y80181D01*
X-37397Y80217D01*
X-36099Y83349D01*
X-32549Y86899D01*
X-27910Y88821D01*
X-22890Y88821D01*
X-18251Y86899D01*
X-14701Y83349D01*
X-13403Y80217D01*
X-13365Y80156D01*
X-13336Y80091D01*
X-13301Y80052D01*
X-13274Y80008D01*
X-13218Y79962D01*
X-13170Y79909D01*
X-13124Y79884D01*
X-13084Y79851D01*
X-13017Y79825D01*
X-12954Y79791D01*
X-12903Y79782D01*
X-12855Y79763D01*
X-12783Y79760D01*
X-12712Y79747D01*
X-12661Y79755D01*
X-12609Y79752D01*
X-12540Y79772D01*
X-12469Y79783D01*
X-12423Y79807D01*
X-12373Y79821D01*
X-12314Y79862D01*
X-12250Y79894D01*
X-12213Y79932D01*
X-12171Y79961D01*
X-12128Y80019D01*
X-12078Y80070D01*
X-12043Y80133D01*
X-12024Y80159D01*
X-12017Y80181D01*
X-11997Y80217D01*
X-10699Y83349D01*
X-7149Y86899D01*
X-2510Y88821D01*
X2510Y88821D01*
X7149Y86899D01*
X10699Y83349D01*
X11997Y80217D01*
X12035Y80156D01*
X12064Y80091D01*
X12099Y80052D01*
X12126Y80008D01*
X12182Y79962D01*
X12230Y79909D01*
X12276Y79884D01*
X12316Y79851D01*
X12383Y79825D01*
X12446Y79791D01*
X12497Y79782D01*
X12545Y79763D01*
X12617Y79760D01*
X12688Y79747D01*
X12739Y79755D01*
X12791Y79752D01*
X12860Y79772D01*
X12931Y79783D01*
X12977Y79807D01*
X13027Y79821D01*
X13086Y79862D01*
X13150Y79894D01*
X13187Y79932D01*
X13229Y79961D01*
X13272Y80019D01*
X13322Y80070D01*
X13357Y80133D01*
X13376Y80159D01*
X13383Y80181D01*
X13403Y80217D01*
X14701Y83349D01*
X18251Y86899D01*
X22890Y88821D01*
X27910Y88821D01*
X32549Y86899D01*
X36099Y83349D01*
X37397Y80217D01*
X37435Y80156D01*
X37464Y80091D01*
X37499Y80052D01*
X37526Y80008D01*
X37582Y79962D01*
X37630Y79909D01*
X37676Y79884D01*
X37716Y79851D01*
X37783Y79825D01*
X37846Y79791D01*
X37897Y79782D01*
X37945Y79763D01*
X38017Y79760D01*
X38088Y79747D01*
X38139Y79755D01*
X38191Y79752D01*
X38260Y79772D01*
X38331Y79783D01*
X38377Y79807D01*
X38427Y79821D01*
X38486Y79862D01*
X38550Y79894D01*
X38587Y79932D01*
X38629Y79961D01*
X38672Y80019D01*
X38722Y80070D01*
X38757Y80133D01*
X38776Y80159D01*
X38783Y80181D01*
X38803Y80217D01*
X40101Y83349D01*
X43651Y86899D01*
X48290Y88821D01*
X53310Y88821D01*
X57949Y86899D01*
X61499Y83349D01*
X62115Y81863D01*
X62166Y81780D01*
X62212Y81695D01*
X62230Y81677D01*
X62244Y81654D01*
X62320Y81592D01*
X62390Y81525D01*
X62414Y81514D01*
X62434Y81498D01*
X62525Y81463D01*
X62613Y81422D01*
X62639Y81419D01*
X62663Y81409D01*
X62761Y81405D01*
X62857Y81394D01*
X62883Y81400D01*
X62909Y81399D01*
X63003Y81426D01*
X63098Y81447D01*
X63120Y81460D01*
X63145Y81467D01*
X63225Y81523D01*
X63309Y81573D01*
X63326Y81593D01*
X63347Y81608D01*
X63406Y81686D01*
X63469Y81760D01*
X63479Y81784D01*
X63494Y81805D01*
X63524Y81898D01*
X63561Y81988D01*
X63564Y82020D01*
X63570Y82039D01*
X63570Y82072D01*
X63579Y82155D01*
X63579Y85845D01*
X66555Y88821D01*
X85845Y88821D01*
X88821Y85845D01*
X88821Y82155D01*
X88836Y82059D01*
X88846Y81962D01*
X88856Y81938D01*
X88860Y81912D01*
X88906Y81826D01*
X88946Y81737D01*
X88963Y81718D01*
X88976Y81695D01*
X89046Y81628D01*
X89112Y81556D01*
X89135Y81543D01*
X89154Y81525D01*
X89242Y81484D01*
X89328Y81437D01*
X89353Y81433D01*
X89377Y81422D01*
X89474Y81411D01*
X89570Y81394D01*
X89596Y81397D01*
X89621Y81394D01*
X89717Y81415D01*
X89813Y81429D01*
X89836Y81441D01*
X89862Y81447D01*
X89945Y81497D01*
X90032Y81541D01*
X90051Y81560D01*
X90073Y81573D01*
X90136Y81647D01*
X90204Y81716D01*
X90220Y81745D01*
X90233Y81760D01*
X90245Y81791D01*
X90285Y81863D01*
X90901Y83349D01*
X94451Y86899D01*
X99090Y88821D01*
X104110Y88821D01*
X108749Y86899D01*
X112299Y83349D01*
X113597Y80217D01*
X113634Y80156D01*
X113664Y80091D01*
X113699Y80052D01*
X113726Y80008D01*
X113781Y79962D01*
X113830Y79909D01*
X113876Y79884D01*
X113916Y79851D01*
X113983Y79825D01*
X114046Y79791D01*
X114097Y79782D01*
X114145Y79763D01*
X114217Y79760D01*
X114288Y79747D01*
X114339Y79755D01*
X114391Y79753D01*
X114460Y79772D01*
X114531Y79783D01*
X114577Y79807D01*
X114627Y79821D01*
X114686Y79862D01*
X114750Y79894D01*
X114787Y79932D01*
X114829Y79961D01*
X114872Y80019D01*
X114922Y80070D01*
X114957Y80133D01*
X114976Y80159D01*
X114983Y80181D01*
X115003Y80217D01*
X116301Y83349D01*
X119851Y86899D01*
X124490Y88821D01*
X129510Y88821D01*
X134149Y86899D01*
X137699Y83349D01*
X138997Y80217D01*
X139034Y80156D01*
X139064Y80091D01*
X139099Y80052D01*
X139126Y80008D01*
X139181Y79962D01*
X139230Y79909D01*
X139276Y79884D01*
X139316Y79851D01*
X139383Y79825D01*
X139446Y79791D01*
X139497Y79782D01*
X139545Y79763D01*
X139617Y79760D01*
X139688Y79747D01*
X139739Y79755D01*
X139791Y79753D01*
X139860Y79772D01*
X139931Y79783D01*
X139977Y79807D01*
X140027Y79821D01*
X140086Y79862D01*
X140150Y79894D01*
X140187Y79932D01*
X140229Y79961D01*
X140272Y80019D01*
X140322Y80070D01*
X140357Y80133D01*
X140376Y80159D01*
X140383Y80181D01*
X140403Y80217D01*
X141701Y83349D01*
X145251Y86899D01*
X149890Y88821D01*
X154910Y88821D01*
X159549Y86899D01*
X163099Y83349D01*
X164397Y80217D01*
X164434Y80156D01*
X164464Y80091D01*
X164499Y80052D01*
X164526Y80008D01*
X164581Y79962D01*
X164630Y79909D01*
X164676Y79884D01*
X164716Y79851D01*
X164783Y79825D01*
X164846Y79791D01*
X164897Y79782D01*
X164945Y79763D01*
X165017Y79760D01*
X165088Y79747D01*
X165139Y79755D01*
X165191Y79753D01*
X165260Y79772D01*
X165331Y79783D01*
X165377Y79807D01*
X165427Y79821D01*
X165486Y79862D01*
X165550Y79894D01*
X165587Y79932D01*
X165629Y79961D01*
X165672Y80019D01*
X165722Y80070D01*
X165757Y80133D01*
X165776Y80159D01*
X165783Y80181D01*
X165803Y80217D01*
X167101Y83349D01*
X170651Y86899D01*
X175290Y88821D01*
X180310Y88821D01*
X184949Y86899D01*
X188499Y83349D01*
X189797Y80217D01*
X189834Y80156D01*
X189864Y80091D01*
X189899Y80052D01*
X189926Y80008D01*
X189981Y79962D01*
X190030Y79909D01*
X190076Y79884D01*
X190116Y79851D01*
X190183Y79825D01*
X190246Y79791D01*
X190297Y79782D01*
X190345Y79763D01*
X190417Y79760D01*
X190488Y79747D01*
X190539Y79755D01*
X190591Y79753D01*
X190660Y79772D01*
X190731Y79783D01*
X190777Y79807D01*
X190827Y79821D01*
X190886Y79862D01*
X190950Y79894D01*
X190987Y79932D01*
X191029Y79961D01*
X191072Y80019D01*
X191122Y80070D01*
X191157Y80133D01*
X191176Y80159D01*
X191183Y80181D01*
X191203Y80217D01*
X192501Y83349D01*
X196051Y86899D01*
X200690Y88821D01*
X205710Y88821D01*
X210349Y86899D01*
X213899Y83349D01*
X215197Y80217D01*
X215234Y80156D01*
X215264Y80091D01*
X215299Y80052D01*
X215326Y80008D01*
X215381Y79962D01*
X215430Y79909D01*
X215476Y79884D01*
X215516Y79851D01*
X215583Y79825D01*
X215646Y79791D01*
X215697Y79782D01*
X215745Y79763D01*
X215817Y79760D01*
X215888Y79747D01*
X215939Y79755D01*
X215991Y79753D01*
X216060Y79772D01*
X216131Y79783D01*
X216177Y79807D01*
X216227Y79821D01*
X216286Y79862D01*
X216350Y79894D01*
X216387Y79932D01*
X216429Y79961D01*
X216472Y80019D01*
X216522Y80070D01*
X216557Y80133D01*
X216576Y80159D01*
X216583Y80181D01*
X216603Y80217D01*
X217901Y83349D01*
X221451Y86899D01*
X226090Y88821D01*
X231110Y88821D01*
X235749Y86899D01*
X239299Y83349D01*
X240597Y80217D01*
X240634Y80156D01*
X240664Y80091D01*
X240699Y80052D01*
X240726Y80008D01*
X240781Y79962D01*
X240830Y79909D01*
X240876Y79884D01*
X240916Y79851D01*
X240983Y79825D01*
X241046Y79791D01*
X241097Y79782D01*
X241145Y79763D01*
X241217Y79760D01*
X241288Y79747D01*
X241339Y79755D01*
X241391Y79753D01*
X241460Y79772D01*
X241531Y79783D01*
X241577Y79807D01*
X241627Y79821D01*
X241686Y79862D01*
X241750Y79894D01*
X241787Y79932D01*
X241829Y79961D01*
X241872Y80019D01*
X241922Y80070D01*
X241957Y80133D01*
X241976Y80159D01*
X241983Y80181D01*
X242003Y80217D01*
X243301Y83349D01*
X246851Y86899D01*
X251490Y88821D01*
X256510Y88821D01*
X261149Y86899D01*
X264699Y83349D01*
X265997Y80217D01*
X266034Y80156D01*
X266064Y80091D01*
X266099Y80052D01*
X266126Y80008D01*
X266181Y79962D01*
X266230Y79909D01*
X266276Y79884D01*
X266316Y79851D01*
X266383Y79825D01*
X266446Y79791D01*
X266497Y79782D01*
X266545Y79763D01*
X266617Y79760D01*
X266688Y79747D01*
X266739Y79755D01*
X266791Y79753D01*
X266860Y79772D01*
X266931Y79783D01*
X266977Y79807D01*
X267027Y79821D01*
X267086Y79862D01*
X267150Y79894D01*
X267187Y79932D01*
X267229Y79961D01*
X267272Y80019D01*
X267322Y80070D01*
X267357Y80133D01*
X267376Y80159D01*
X267383Y80181D01*
X267403Y80217D01*
X268701Y83349D01*
X272251Y86899D01*
X276890Y88821D01*
X281910Y88821D01*
X286549Y86899D01*
X290099Y83349D01*
X291397Y80217D01*
X291434Y80156D01*
X291464Y80091D01*
X291499Y80052D01*
X291526Y80008D01*
X291581Y79962D01*
X291630Y79909D01*
X291676Y79884D01*
X291716Y79851D01*
X291783Y79825D01*
X291846Y79791D01*
X291897Y79782D01*
X291945Y79763D01*
X292017Y79760D01*
X292088Y79747D01*
X292139Y79755D01*
X292191Y79753D01*
X292260Y79772D01*
X292331Y79783D01*
X292377Y79807D01*
X292427Y79821D01*
X292486Y79862D01*
X292550Y79894D01*
X292587Y79932D01*
X292629Y79961D01*
X292672Y80019D01*
X292722Y80070D01*
X292757Y80133D01*
X292776Y80159D01*
X292783Y80181D01*
X292803Y80217D01*
X294101Y83349D01*
X297651Y86899D01*
X302290Y88821D01*
X307310Y88821D01*
X311949Y86899D01*
X315499Y83349D01*
X317421Y78710D01*
X317421Y73690D01*
X315499Y69051D01*
X311949Y65501D01*
X307310Y63579D01*
X302290Y63579D01*
X297651Y65501D01*
X294101Y69051D01*
X292803Y72183D01*
X292765Y72244D01*
X292736Y72309D01*
X292701Y72348D01*
X292674Y72392D01*
X292618Y72438D01*
X292570Y72491D01*
X292524Y72516D01*
X292484Y72549D01*
X292417Y72575D01*
X292354Y72609D01*
X292303Y72618D01*
X292255Y72637D01*
X292183Y72640D01*
X292112Y72653D01*
X292061Y72645D01*
X292009Y72647D01*
X291940Y72628D01*
X291869Y72617D01*
X291823Y72593D01*
X291773Y72579D01*
X291714Y72538D01*
X291650Y72506D01*
X291613Y72468D01*
X291571Y72439D01*
X291528Y72381D01*
X291478Y72330D01*
X291443Y72267D01*
X291424Y72241D01*
X291417Y72219D01*
X291397Y72183D01*
X290099Y69051D01*
X286549Y65501D01*
X281910Y63579D01*
X276890Y63579D01*
X272251Y65501D01*
X268701Y69051D01*
X267403Y72183D01*
X267365Y72244D01*
X267336Y72309D01*
X267301Y72348D01*
X267274Y72392D01*
X267218Y72438D01*
X267170Y72491D01*
X267124Y72516D01*
X267084Y72549D01*
X267017Y72575D01*
X266954Y72609D01*
X266903Y72618D01*
X266855Y72637D01*
X266783Y72640D01*
X266712Y72653D01*
X266661Y72645D01*
X266609Y72647D01*
X266540Y72628D01*
X266469Y72617D01*
X266423Y72593D01*
X266373Y72579D01*
X266314Y72538D01*
X266250Y72506D01*
X266213Y72468D01*
X266171Y72439D01*
X266128Y72381D01*
X266078Y72330D01*
X266043Y72267D01*
X266024Y72241D01*
X266017Y72219D01*
X265997Y72183D01*
X264699Y69051D01*
X261149Y65501D01*
X256510Y63579D01*
X251490Y63579D01*
X246851Y65501D01*
X243301Y69051D01*
X242003Y72183D01*
X241965Y72244D01*
X241936Y72309D01*
X241901Y72348D01*
X241874Y72392D01*
X241818Y72438D01*
X241770Y72491D01*
X241724Y72516D01*
X241684Y72549D01*
X241617Y72575D01*
X241554Y72609D01*
X241503Y72618D01*
X241455Y72637D01*
X241383Y72640D01*
X241312Y72653D01*
X241261Y72645D01*
X241209Y72647D01*
X241140Y72628D01*
X241069Y72617D01*
X241023Y72593D01*
X240973Y72579D01*
X240914Y72538D01*
X240850Y72506D01*
X240813Y72468D01*
X240771Y72439D01*
X240728Y72381D01*
X240678Y72330D01*
X240643Y72267D01*
X240624Y72241D01*
X240617Y72219D01*
X240597Y72183D01*
X239299Y69051D01*
X235749Y65501D01*
X231110Y63579D01*
X226090Y63579D01*
X221451Y65501D01*
X217901Y69051D01*
X216603Y72183D01*
X216565Y72244D01*
X216536Y72309D01*
X216501Y72348D01*
X216474Y72392D01*
X216418Y72438D01*
X216370Y72491D01*
X216324Y72516D01*
X216284Y72549D01*
X216217Y72575D01*
X216154Y72609D01*
X216103Y72618D01*
X216055Y72637D01*
X215983Y72640D01*
X215912Y72653D01*
X215861Y72645D01*
X215809Y72647D01*
X215740Y72628D01*
X215669Y72617D01*
X215623Y72593D01*
X215573Y72579D01*
X215514Y72538D01*
X215450Y72506D01*
X215413Y72468D01*
X215371Y72439D01*
X215328Y72381D01*
X215278Y72330D01*
X215243Y72267D01*
X215224Y72241D01*
X215217Y72219D01*
X215197Y72183D01*
X213899Y69051D01*
X210349Y65501D01*
X205710Y63579D01*
X200690Y63579D01*
X196051Y65501D01*
X192501Y69051D01*
X191203Y72183D01*
X191165Y72244D01*
X191136Y72309D01*
X191101Y72348D01*
X191074Y72392D01*
X191018Y72438D01*
X190970Y72491D01*
X190924Y72516D01*
X190884Y72549D01*
X190817Y72575D01*
X190754Y72609D01*
X190703Y72618D01*
X190655Y72637D01*
X190583Y72640D01*
X190512Y72653D01*
X190461Y72645D01*
X190409Y72647D01*
X190340Y72628D01*
X190269Y72617D01*
X190223Y72593D01*
X190173Y72579D01*
X190114Y72538D01*
X190050Y72506D01*
X190013Y72468D01*
X189971Y72439D01*
X189928Y72381D01*
X189878Y72330D01*
X189843Y72267D01*
X189824Y72241D01*
X189817Y72219D01*
X189797Y72183D01*
X188499Y69051D01*
X184949Y65501D01*
X181817Y64203D01*
X181756Y64165D01*
X181691Y64136D01*
X181652Y64101D01*
X181608Y64074D01*
X181562Y64018D01*
X181509Y63970D01*
X181484Y63924D01*
X181451Y63884D01*
X181425Y63817D01*
X181391Y63754D01*
X181382Y63703D01*
X181363Y63655D01*
X181360Y63583D01*
X181347Y63512D01*
X181355Y63461D01*
X181353Y63409D01*
X181372Y63340D01*
X181383Y63269D01*
X181407Y63223D01*
X181421Y63173D01*
X181462Y63114D01*
X181494Y63050D01*
X181532Y63013D01*
X181561Y62971D01*
X181619Y62928D01*
X181670Y62878D01*
X181733Y62843D01*
X181759Y62824D01*
X181781Y62817D01*
X181817Y62797D01*
X184949Y61499D01*
X188499Y57949D01*
X190421Y53310D01*
X190421Y48290D01*
X188499Y43651D01*
X184949Y40101D01*
X181817Y38803D01*
X181756Y38765D01*
X181691Y38736D01*
X181652Y38701D01*
X181608Y38674D01*
X181562Y38618D01*
X181509Y38570D01*
X181484Y38524D01*
X181451Y38484D01*
X181425Y38417D01*
X181391Y38354D01*
X181382Y38303D01*
X181363Y38255D01*
X181360Y38183D01*
X181347Y38112D01*
X181355Y38061D01*
X181353Y38009D01*
X181372Y37940D01*
X181383Y37869D01*
X181407Y37823D01*
X181421Y37773D01*
X181462Y37714D01*
X181494Y37650D01*
X181532Y37613D01*
X181561Y37571D01*
X181619Y37528D01*
X181670Y37478D01*
X181733Y37443D01*
X181759Y37424D01*
X181781Y37417D01*
X181817Y37397D01*
X184949Y36099D01*
X188499Y32549D01*
X190421Y27910D01*
X190421Y22890D01*
X188499Y18251D01*
X184949Y14701D01*
X183463Y14085D01*
X183380Y14034D01*
X183295Y13988D01*
X183277Y13970D01*
X183254Y13956D01*
X183192Y13880D01*
X183125Y13810D01*
X183114Y13786D01*
X183098Y13766D01*
X183063Y13675D01*
X183022Y13587D01*
X183019Y13561D01*
X183009Y13537D01*
X183005Y13439D01*
X182994Y13343D01*
X183000Y13317D01*
X182999Y13291D01*
X183026Y13197D01*
X183047Y13102D01*
X183060Y13080D01*
X183067Y13055D01*
X183123Y12975D01*
X183173Y12891D01*
X183193Y12874D01*
X183208Y12853D01*
X183286Y12794D01*
X183360Y12731D01*
X183384Y12721D01*
X183405Y12706D01*
X183498Y12676D01*
X183588Y12639D01*
X183620Y12636D01*
X183639Y12630D01*
X183672Y12630D01*
X183755Y12621D01*
X187445Y12621D01*
X190421Y9645D01*
X190421Y-9645D01*
X187445Y-12621D01*
X184707Y-12621D01*
X184636Y-12632D01*
X184564Y-12634D01*
X184516Y-12652D01*
X184464Y-12660D01*
X184401Y-12694D01*
X184333Y-12719D01*
X184293Y-12751D01*
X184247Y-12776D01*
X184197Y-12828D01*
X184141Y-12872D01*
X184113Y-12916D01*
X184077Y-12954D01*
X184047Y-13019D01*
X184008Y-13079D01*
X183996Y-13130D01*
X183974Y-13177D01*
X183966Y-13248D01*
X183948Y-13318D01*
X183952Y-13370D01*
X183947Y-13421D01*
X183962Y-13492D01*
X183968Y-13563D01*
X183988Y-13611D01*
X183999Y-13662D01*
X184036Y-13723D01*
X184064Y-13789D01*
X184109Y-13845D01*
X184125Y-13873D01*
X184143Y-13888D01*
X184169Y-13920D01*
X190421Y-20172D01*
X190421Y-30628D01*
X182925Y-38123D01*
X182899Y-38160D01*
X182865Y-38191D01*
X182827Y-38260D01*
X182782Y-38323D01*
X182768Y-38367D01*
X182746Y-38407D01*
X182732Y-38484D01*
X182709Y-38558D01*
X182711Y-38604D01*
X182702Y-38649D01*
X182714Y-38726D01*
X182716Y-38804D01*
X182732Y-38847D01*
X182738Y-38892D01*
X182773Y-38962D01*
X182800Y-39035D01*
X182829Y-39071D01*
X182850Y-39112D01*
X182905Y-39166D01*
X182954Y-39227D01*
X182993Y-39252D01*
X183025Y-39284D01*
X183145Y-39350D01*
X183161Y-39360D01*
X183166Y-39361D01*
X183172Y-39365D01*
X184949Y-40101D01*
X188499Y-43651D01*
X190421Y-48290D01*
X190421Y-53310D01*
X188499Y-57949D01*
X184949Y-61499D01*
X181817Y-62797D01*
X181756Y-62835D01*
X181691Y-62864D01*
X181652Y-62899D01*
X181608Y-62926D01*
X181562Y-62982D01*
X181509Y-63030D01*
X181484Y-63076D01*
X181451Y-63116D01*
X181425Y-63183D01*
X181391Y-63246D01*
X181382Y-63297D01*
X181363Y-63345D01*
X181360Y-63417D01*
X181347Y-63488D01*
X181355Y-63539D01*
X181352Y-63591D01*
X181372Y-63660D01*
X181383Y-63731D01*
X181407Y-63777D01*
X181421Y-63827D01*
X181462Y-63886D01*
X181494Y-63950D01*
X181532Y-63987D01*
X181561Y-64029D01*
X181619Y-64072D01*
X181670Y-64122D01*
X181733Y-64157D01*
X181759Y-64176D01*
X181781Y-64183D01*
X181817Y-64203D01*
X184949Y-65501D01*
X188499Y-69051D01*
X189797Y-72183D01*
X189835Y-72244D01*
X189864Y-72309D01*
X189899Y-72348D01*
X189926Y-72392D01*
X189982Y-72438D01*
X190030Y-72491D01*
X190076Y-72516D01*
X190116Y-72549D01*
X190183Y-72575D01*
X190246Y-72609D01*
X190297Y-72618D01*
X190345Y-72637D01*
X190417Y-72640D01*
X190488Y-72653D01*
X190539Y-72645D01*
X190591Y-72648D01*
X190660Y-72628D01*
X190731Y-72617D01*
X190777Y-72593D01*
X190827Y-72579D01*
X190886Y-72538D01*
X190950Y-72506D01*
X190987Y-72468D01*
X191029Y-72439D01*
X191072Y-72381D01*
X191122Y-72330D01*
X191157Y-72267D01*
X191176Y-72241D01*
X191183Y-72219D01*
X191203Y-72183D01*
X192501Y-69051D01*
X196051Y-65501D01*
X200690Y-63579D01*
X205710Y-63579D01*
X210349Y-65501D01*
X213899Y-69051D01*
X215197Y-72183D01*
X215235Y-72244D01*
X215264Y-72309D01*
X215299Y-72348D01*
X215326Y-72392D01*
X215382Y-72438D01*
X215430Y-72491D01*
X215476Y-72516D01*
X215516Y-72549D01*
X215583Y-72575D01*
X215646Y-72609D01*
X215697Y-72618D01*
X215745Y-72637D01*
X215817Y-72640D01*
X215888Y-72653D01*
X215939Y-72645D01*
X215991Y-72648D01*
X216060Y-72628D01*
X216131Y-72617D01*
X216177Y-72593D01*
X216227Y-72579D01*
X216286Y-72538D01*
X216350Y-72506D01*
X216387Y-72468D01*
X216429Y-72439D01*
X216472Y-72381D01*
X216522Y-72330D01*
X216557Y-72267D01*
X216576Y-72241D01*
X216583Y-72219D01*
X216603Y-72183D01*
X217901Y-69051D01*
X221451Y-65501D01*
X226090Y-63579D01*
X231110Y-63579D01*
X235749Y-65501D01*
X239299Y-69051D01*
X240597Y-72183D01*
X240635Y-72244D01*
X240664Y-72309D01*
X240699Y-72348D01*
X240726Y-72392D01*
X240782Y-72438D01*
X240830Y-72491D01*
X240876Y-72516D01*
X240916Y-72549D01*
X240983Y-72575D01*
X241046Y-72609D01*
X241097Y-72618D01*
X241145Y-72637D01*
X241217Y-72640D01*
X241288Y-72653D01*
X241339Y-72645D01*
X241391Y-72648D01*
X241460Y-72628D01*
X241531Y-72617D01*
X241577Y-72593D01*
X241627Y-72579D01*
X241686Y-72538D01*
X241750Y-72506D01*
X241787Y-72468D01*
X241829Y-72439D01*
X241872Y-72381D01*
X241922Y-72330D01*
X241957Y-72267D01*
X241976Y-72241D01*
X241983Y-72219D01*
X242003Y-72183D01*
X243301Y-69051D01*
X246851Y-65501D01*
X251490Y-63579D01*
X256510Y-63579D01*
X261149Y-65501D01*
X264699Y-69051D01*
X265997Y-72183D01*
X266034Y-72244D01*
X266064Y-72309D01*
X266099Y-72348D01*
X266126Y-72392D01*
X266181Y-72438D01*
X266230Y-72491D01*
X266276Y-72516D01*
X266316Y-72549D01*
X266383Y-72575D01*
X266446Y-72609D01*
X266497Y-72618D01*
X266545Y-72637D01*
X266617Y-72640D01*
X266688Y-72653D01*
X266739Y-72645D01*
X266791Y-72647D01*
X266860Y-72628D01*
X266931Y-72617D01*
X266977Y-72593D01*
X267027Y-72579D01*
X267086Y-72538D01*
X267150Y-72506D01*
X267187Y-72468D01*
X267229Y-72439D01*
X267272Y-72381D01*
X267322Y-72330D01*
X267357Y-72267D01*
X267376Y-72241D01*
X267383Y-72219D01*
X267403Y-72183D01*
X268701Y-69051D01*
X272251Y-65501D01*
X276890Y-63579D01*
X281910Y-63579D01*
X286549Y-65501D01*
X290099Y-69051D01*
X291397Y-72183D01*
X291434Y-72244D01*
X291464Y-72309D01*
X291499Y-72348D01*
X291526Y-72392D01*
X291581Y-72438D01*
X291630Y-72491D01*
X291676Y-72516D01*
X291716Y-72549D01*
X291783Y-72575D01*
X291846Y-72609D01*
X291897Y-72618D01*
X291945Y-72637D01*
X292017Y-72640D01*
X292088Y-72653D01*
X292139Y-72645D01*
X292191Y-72647D01*
X292260Y-72628D01*
X292331Y-72617D01*
X292377Y-72593D01*
X292427Y-72579D01*
X292486Y-72538D01*
X292550Y-72506D01*
X292587Y-72468D01*
X292629Y-72439D01*
X292672Y-72381D01*
X292722Y-72330D01*
X292757Y-72267D01*
X292776Y-72241D01*
X292783Y-72219D01*
X292803Y-72183D01*
X294101Y-69051D01*
X297651Y-65501D01*
X302290Y-63579D01*
X307310Y-63579D01*
X311949Y-65501D01*
X315499Y-69051D01*
X317421Y-73690D01*
X317421Y-78710D01*
X315499Y-83349D01*
X311949Y-86899D01*
X307310Y-88821D01*
X302290Y-88821D01*
X297651Y-86899D01*
X294101Y-83349D01*
X292803Y-80217D01*
X292765Y-80156D01*
X292736Y-80091D01*
X292701Y-80052D01*
X292674Y-80008D01*
X292618Y-79962D01*
X292570Y-79909D01*
X292524Y-79884D01*
X292484Y-79851D01*
X292417Y-79825D01*
X292354Y-79791D01*
X292303Y-79782D01*
X292255Y-79763D01*
X292183Y-79760D01*
X292112Y-79747D01*
X292061Y-79755D01*
X292009Y-79753D01*
X291940Y-79772D01*
X291869Y-79783D01*
X291823Y-79807D01*
X291773Y-79821D01*
X291714Y-79862D01*
X291650Y-79894D01*
X291613Y-79932D01*
X291571Y-79961D01*
X291528Y-80019D01*
X291478Y-80070D01*
X291443Y-80133D01*
X291424Y-80159D01*
X291417Y-80181D01*
X291397Y-80217D01*
X290099Y-83349D01*
X286549Y-86899D01*
X281910Y-88821D01*
X276890Y-88821D01*
X272251Y-86899D01*
X268701Y-83349D01*
X267403Y-80217D01*
X267365Y-80156D01*
X267336Y-80091D01*
X267301Y-80052D01*
X267274Y-80008D01*
X267218Y-79962D01*
X267170Y-79909D01*
X267124Y-79884D01*
X267084Y-79851D01*
X267017Y-79825D01*
X266954Y-79791D01*
X266903Y-79782D01*
X266855Y-79763D01*
X266783Y-79760D01*
X266712Y-79747D01*
X266661Y-79755D01*
X266609Y-79753D01*
X266540Y-79772D01*
X266469Y-79783D01*
X266423Y-79807D01*
X266373Y-79821D01*
X266314Y-79862D01*
X266250Y-79894D01*
X266213Y-79932D01*
X266171Y-79961D01*
X266128Y-80019D01*
X266078Y-80070D01*
X266043Y-80133D01*
X266024Y-80159D01*
X266017Y-80181D01*
X265997Y-80217D01*
X264699Y-83349D01*
X261149Y-86899D01*
X256510Y-88821D01*
X251490Y-88821D01*
X246851Y-86899D01*
X243301Y-83349D01*
X242003Y-80217D01*
X241965Y-80156D01*
X241936Y-80091D01*
X241901Y-80052D01*
X241874Y-80008D01*
X241818Y-79962D01*
X241770Y-79909D01*
X241724Y-79884D01*
X241684Y-79851D01*
X241617Y-79825D01*
X241554Y-79791D01*
X241503Y-79782D01*
X241455Y-79763D01*
X241383Y-79760D01*
X241312Y-79747D01*
X241261Y-79755D01*
X241209Y-79752D01*
X241140Y-79772D01*
X241069Y-79783D01*
X241023Y-79807D01*
X240973Y-79821D01*
X240914Y-79862D01*
X240850Y-79894D01*
X240813Y-79932D01*
X240771Y-79961D01*
X240728Y-80019D01*
X240678Y-80070D01*
X240643Y-80133D01*
X240624Y-80159D01*
X240617Y-80181D01*
X240597Y-80217D01*
X239299Y-83349D01*
X235749Y-86899D01*
X231110Y-88821D01*
X226090Y-88821D01*
X221451Y-86899D01*
X217901Y-83349D01*
X216603Y-80217D01*
X216565Y-80156D01*
X216536Y-80091D01*
X216501Y-80052D01*
X216474Y-80008D01*
X216418Y-79962D01*
X216370Y-79909D01*
X216324Y-79884D01*
X216284Y-79851D01*
X216217Y-79825D01*
X216154Y-79791D01*
X216103Y-79782D01*
X216055Y-79763D01*
X215983Y-79760D01*
X215912Y-79747D01*
X215861Y-79755D01*
X215809Y-79752D01*
X215740Y-79772D01*
X215669Y-79783D01*
X215623Y-79807D01*
X215573Y-79821D01*
X215514Y-79862D01*
X215450Y-79894D01*
X215413Y-79932D01*
X215371Y-79961D01*
X215328Y-80019D01*
X215278Y-80070D01*
X215243Y-80133D01*
X215224Y-80159D01*
X215217Y-80181D01*
X215197Y-80217D01*
X213899Y-83349D01*
X210349Y-86899D01*
X205710Y-88821D01*
X200690Y-88821D01*
X196051Y-86899D01*
X192501Y-83349D01*
X191203Y-80217D01*
X191165Y-80156D01*
X191136Y-80091D01*
X191101Y-80052D01*
X191074Y-80008D01*
X191018Y-79962D01*
X190970Y-79909D01*
X190924Y-79884D01*
X190884Y-79851D01*
X190817Y-79825D01*
X190754Y-79791D01*
X190703Y-79782D01*
X190655Y-79763D01*
X190583Y-79760D01*
X190512Y-79747D01*
X190461Y-79755D01*
X190409Y-79752D01*
X190340Y-79772D01*
X190269Y-79783D01*
X190223Y-79807D01*
X190173Y-79821D01*
X190114Y-79862D01*
X190050Y-79894D01*
X190013Y-79932D01*
X189971Y-79961D01*
X189928Y-80019D01*
X189878Y-80070D01*
X189843Y-80133D01*
X189824Y-80159D01*
X189817Y-80181D01*
X189797Y-80217D01*
X188499Y-83349D01*
X184949Y-86899D01*
X180310Y-88821D01*
X175290Y-88821D01*
X170651Y-86899D01*
X167101Y-83349D01*
X165803Y-80217D01*
X165765Y-80156D01*
X165736Y-80091D01*
X165701Y-80052D01*
X165674Y-80008D01*
X165618Y-79962D01*
X165570Y-79909D01*
X165524Y-79884D01*
X165484Y-79851D01*
X165417Y-79825D01*
X165354Y-79791D01*
X165303Y-79782D01*
X165255Y-79763D01*
X165183Y-79760D01*
X165112Y-79747D01*
X165061Y-79755D01*
X165009Y-79752D01*
X164940Y-79772D01*
X164869Y-79783D01*
X164823Y-79807D01*
X164773Y-79821D01*
X164714Y-79862D01*
X164650Y-79894D01*
X164613Y-79932D01*
X164571Y-79961D01*
X164528Y-80019D01*
X164478Y-80070D01*
X164443Y-80133D01*
X164424Y-80159D01*
X164417Y-80181D01*
X164397Y-80217D01*
X163099Y-83349D01*
X159549Y-86899D01*
X154910Y-88821D01*
X149890Y-88821D01*
X145251Y-86899D01*
X141701Y-83349D01*
X140403Y-80217D01*
X140365Y-80156D01*
X140336Y-80091D01*
X140301Y-80052D01*
X140274Y-80008D01*
X140218Y-79962D01*
X140170Y-79909D01*
X140124Y-79884D01*
X140084Y-79851D01*
X140017Y-79825D01*
X139954Y-79791D01*
X139903Y-79782D01*
X139855Y-79763D01*
X139783Y-79760D01*
X139712Y-79747D01*
X139661Y-79755D01*
X139609Y-79752D01*
X139540Y-79772D01*
X139469Y-79783D01*
X139423Y-79807D01*
X139373Y-79821D01*
X139314Y-79862D01*
X139250Y-79894D01*
X139213Y-79932D01*
X139171Y-79961D01*
X139128Y-80019D01*
X139078Y-80070D01*
X139043Y-80133D01*
X139024Y-80159D01*
X139017Y-80181D01*
X138997Y-80217D01*
X137699Y-83349D01*
X134149Y-86899D01*
X129510Y-88821D01*
X124490Y-88821D01*
X119851Y-86899D01*
X116301Y-83349D01*
X115003Y-80217D01*
X114965Y-80156D01*
X114936Y-80091D01*
X114901Y-80052D01*
X114874Y-80008D01*
X114818Y-79962D01*
X114770Y-79909D01*
X114724Y-79884D01*
X114684Y-79851D01*
X114617Y-79825D01*
X114554Y-79791D01*
X114503Y-79782D01*
X114455Y-79763D01*
X114383Y-79760D01*
X114312Y-79747D01*
X114261Y-79755D01*
X114209Y-79752D01*
X114140Y-79772D01*
X114069Y-79783D01*
X114023Y-79807D01*
X113973Y-79821D01*
X113914Y-79862D01*
X113850Y-79894D01*
X113813Y-79932D01*
X113771Y-79961D01*
X113728Y-80019D01*
X113678Y-80070D01*
X113643Y-80133D01*
X113624Y-80159D01*
X113617Y-80181D01*
X113597Y-80217D01*
X112299Y-83349D01*
X108749Y-86899D01*
X104110Y-88821D01*
X99090Y-88821D01*
X94451Y-86899D01*
X90901Y-83349D01*
X90165Y-81572D01*
X90140Y-81533D01*
X90125Y-81490D01*
X90076Y-81429D01*
X90035Y-81363D01*
X90000Y-81334D01*
X89971Y-81298D01*
X89906Y-81256D01*
X89846Y-81206D01*
X89803Y-81190D01*
X89764Y-81165D01*
X89689Y-81146D01*
X89616Y-81118D01*
X89570Y-81116D01*
X89526Y-81105D01*
X89448Y-81111D01*
X89370Y-81108D01*
X89326Y-81121D01*
X89280Y-81124D01*
X89209Y-81155D01*
X89134Y-81176D01*
X89096Y-81202D01*
X89054Y-81220D01*
X88947Y-81306D01*
X88932Y-81317D01*
X88929Y-81321D01*
X88923Y-81325D01*
X81428Y-88821D01*
X70972Y-88821D01*
X63477Y-81325D01*
X63440Y-81299D01*
X63409Y-81265D01*
X63340Y-81227D01*
X63277Y-81182D01*
X63233Y-81168D01*
X63193Y-81146D01*
X63116Y-81132D01*
X63042Y-81109D01*
X62996Y-81111D01*
X62951Y-81102D01*
X62874Y-81114D01*
X62796Y-81116D01*
X62753Y-81132D01*
X62708Y-81138D01*
X62638Y-81173D01*
X62565Y-81200D01*
X62529Y-81229D01*
X62488Y-81250D01*
X62434Y-81305D01*
X62373Y-81354D01*
X62348Y-81393D01*
X62316Y-81425D01*
X62250Y-81545D01*
X62240Y-81561D01*
X62239Y-81566D01*
X62235Y-81572D01*
X61499Y-83349D01*
X57949Y-86899D01*
X53310Y-88821D01*
X48290Y-88821D01*
X43651Y-86899D01*
X40101Y-83349D01*
X38803Y-80217D01*
X38765Y-80156D01*
X38736Y-80091D01*
X38701Y-80052D01*
X38674Y-80008D01*
X38618Y-79962D01*
X38570Y-79909D01*
X38524Y-79884D01*
X38484Y-79851D01*
X38417Y-79825D01*
X38354Y-79791D01*
X38303Y-79782D01*
X38255Y-79763D01*
X38183Y-79760D01*
X38112Y-79747D01*
X38061Y-79755D01*
X38009Y-79752D01*
X37940Y-79772D01*
X37869Y-79783D01*
X37823Y-79807D01*
X37773Y-79821D01*
X37714Y-79862D01*
X37650Y-79894D01*
X37613Y-79932D01*
X37571Y-79961D01*
X37528Y-80019D01*
X37478Y-80070D01*
X37443Y-80133D01*
X37424Y-80159D01*
X37417Y-80181D01*
X37397Y-80217D01*
X36099Y-83349D01*
X32989Y-86459D01*
X32977Y-86476D01*
X32962Y-86488D01*
X32906Y-86575D01*
X32845Y-86659D01*
X32840Y-86678D01*
X32829Y-86695D01*
X32803Y-86796D01*
X32773Y-86894D01*
X32774Y-86914D01*
X32769Y-86933D01*
X32777Y-87036D01*
X32779Y-87140D01*
X32786Y-87159D01*
X32788Y-87179D01*
X32828Y-87274D01*
X32864Y-87371D01*
X32876Y-87387D01*
X32884Y-87405D01*
X32989Y-87536D01*
X40499Y-95046D01*
X40573Y-95099D01*
X40643Y-95159D01*
X40673Y-95171D01*
X40699Y-95190D01*
X40786Y-95217D01*
X40871Y-95251D01*
X40912Y-95255D01*
X40934Y-95262D01*
X40966Y-95261D01*
X41038Y-95269D01*
X95082Y-95269D01*
X95172Y-95255D01*
X95263Y-95247D01*
X95292Y-95235D01*
X95324Y-95230D01*
X95405Y-95187D01*
X95489Y-95151D01*
X95521Y-95125D01*
X95542Y-95114D01*
X95564Y-95091D01*
X95620Y-95046D01*
X96580Y-94087D01*
X99837Y-92737D01*
X103363Y-92737D01*
X106620Y-94087D01*
X109113Y-96580D01*
X110463Y-99837D01*
X110463Y-103363D01*
X109113Y-106620D01*
X106620Y-109113D01*
X103363Y-110463D01*
X99837Y-110463D01*
X96580Y-109113D01*
X95620Y-108154D01*
X95546Y-108101D01*
X95476Y-108041D01*
X95446Y-108029D01*
X95420Y-108010D01*
X95333Y-107983D01*
X95248Y-107949D01*
X95207Y-107945D01*
X95185Y-107938D01*
X95153Y-107939D01*
X95082Y-107931D01*
X36841Y-107931D01*
X34514Y-106967D01*
X20033Y-92486D01*
X19069Y-90159D01*
X19069Y-87747D01*
X19051Y-87632D01*
X19033Y-87516D01*
X19031Y-87510D01*
X19030Y-87504D01*
X18975Y-87401D01*
X18922Y-87297D01*
X18917Y-87292D01*
X18914Y-87287D01*
X18830Y-87206D01*
X18746Y-87125D01*
X18740Y-87121D01*
X18736Y-87117D01*
X18719Y-87110D01*
X18599Y-87044D01*
X18251Y-86899D01*
X14701Y-83349D01*
X13403Y-80217D01*
X13365Y-80156D01*
X13336Y-80091D01*
X13301Y-80052D01*
X13274Y-80008D01*
X13218Y-79962D01*
X13170Y-79909D01*
X13124Y-79884D01*
X13084Y-79851D01*
X13017Y-79825D01*
X12954Y-79791D01*
X12903Y-79782D01*
X12855Y-79763D01*
X12783Y-79760D01*
X12712Y-79747D01*
X12661Y-79755D01*
X12609Y-79752D01*
X12540Y-79772D01*
X12469Y-79783D01*
X12423Y-79807D01*
X12373Y-79821D01*
X12314Y-79862D01*
X12250Y-79894D01*
X12213Y-79932D01*
X12171Y-79961D01*
X12128Y-80019D01*
X12078Y-80070D01*
X12043Y-80133D01*
X12024Y-80159D01*
X12017Y-80181D01*
X11997Y-80217D01*
X10699Y-83349D01*
X7149Y-86899D01*
X2510Y-88821D01*
X-1988Y-88821D01*
X-2059Y-88832D01*
X-2131Y-88834D01*
X-2180Y-88852D01*
X-2231Y-88860D01*
X-2294Y-88894D01*
X-2362Y-88919D01*
X-2403Y-88951D01*
X-2449Y-88976D01*
X-2498Y-89027D01*
X-2554Y-89072D01*
X-2582Y-89116D01*
X-2618Y-89154D01*
X-2648Y-89219D01*
X-2687Y-89279D01*
X-2700Y-89330D01*
X-2722Y-89377D01*
X-2729Y-89448D01*
X-2747Y-89518D01*
X-2743Y-89570D01*
X-2749Y-89621D01*
X-2733Y-89692D01*
X-2728Y-89763D01*
X-2708Y-89811D01*
X-2696Y-89862D01*
X-2660Y-89923D01*
X-2632Y-89989D01*
X-2587Y-90045D01*
X-2570Y-90073D01*
X-2552Y-90088D01*
X-2527Y-90120D01*
X83933Y-176580D01*
X84007Y-176633D01*
X84077Y-176693D01*
X84107Y-176705D01*
X84133Y-176724D01*
X84220Y-176751D01*
X84305Y-176785D01*
X84346Y-176789D01*
X84368Y-176796D01*
X84400Y-176795D01*
X84472Y-176803D01*
X253523Y-176803D01*
X253638Y-176784D01*
X253754Y-176767D01*
X253760Y-176765D01*
X253766Y-176764D01*
X253868Y-176709D01*
X253973Y-176656D01*
X253978Y-176651D01*
X253983Y-176648D01*
X254063Y-176564D01*
X254145Y-176480D01*
X254149Y-176474D01*
X254152Y-176470D01*
X254160Y-176453D01*
X254226Y-176333D01*
X254807Y-174932D01*
X258879Y-170860D01*
X264201Y-168655D01*
X269961Y-168655D01*
X275283Y-170860D01*
X278817Y-174394D01*
X278833Y-174406D01*
X278846Y-174421D01*
X278933Y-174477D01*
X279017Y-174538D01*
X279036Y-174543D01*
X279053Y-174554D01*
X279153Y-174579D01*
X279252Y-174610D01*
X279272Y-174609D01*
X279291Y-174614D01*
X279394Y-174606D01*
X279498Y-174604D01*
X279516Y-174597D01*
X279536Y-174595D01*
X279631Y-174555D01*
X279729Y-174519D01*
X279744Y-174507D01*
X279763Y-174499D01*
X279894Y-174394D01*
X283938Y-170349D01*
X289481Y-168053D01*
X295481Y-168053D01*
X301024Y-170349D01*
X305266Y-174591D01*
X306234Y-176929D01*
X306256Y-176965D01*
X306270Y-177004D01*
X306321Y-177069D01*
X306364Y-177138D01*
X306396Y-177165D01*
X306422Y-177198D01*
X306490Y-177243D01*
X306553Y-177295D01*
X306592Y-177310D01*
X306627Y-177333D01*
X306707Y-177354D01*
X306783Y-177383D01*
X306825Y-177385D01*
X306865Y-177396D01*
X306947Y-177390D01*
X307029Y-177394D01*
X307069Y-177382D01*
X307111Y-177379D01*
X307186Y-177348D01*
X307265Y-177325D01*
X307299Y-177301D01*
X307338Y-177285D01*
X307400Y-177231D01*
X307467Y-177185D01*
X307492Y-177151D01*
X307524Y-177124D01*
X307608Y-176994D01*
X307614Y-176987D01*
X307614Y-176986D01*
X307616Y-176983D01*
X307670Y-176877D01*
X308775Y-175356D01*
X310103Y-174028D01*
X311624Y-172923D01*
X313298Y-172070D01*
X315085Y-171489D01*
X316358Y-171288D01*
X316358Y-182372D01*
X316361Y-182392D01*
X316359Y-182411D01*
X316381Y-182513D01*
X316398Y-182615D01*
X316407Y-182632D01*
X316411Y-182652D01*
X316464Y-182741D01*
X316513Y-182832D01*
X316527Y-182846D01*
X316537Y-182863D01*
X316616Y-182930D01*
X316691Y-183001D01*
X316709Y-183010D01*
X316724Y-183023D01*
X316820Y-183061D01*
X316914Y-183105D01*
X316934Y-183107D01*
X316952Y-183115D01*
X317119Y-183133D01*
X317882Y-183133D01*
X317882Y-183135D01*
X317119Y-183135D01*
X317099Y-183138D01*
X317080Y-183136D01*
X316978Y-183158D01*
X316876Y-183175D01*
X316859Y-183184D01*
X316839Y-183188D01*
X316750Y-183241D01*
X316659Y-183290D01*
X316645Y-183304D01*
X316628Y-183314D01*
X316561Y-183393D01*
X316490Y-183468D01*
X316481Y-183486D01*
X316468Y-183501D01*
X316429Y-183597D01*
X316386Y-183691D01*
X316384Y-183711D01*
X316376Y-183729D01*
X316358Y-183896D01*
X316358Y-194980D01*
X315085Y-194779D01*
X313298Y-194198D01*
X311624Y-193345D01*
X310103Y-192240D01*
X308861Y-190998D01*
X308803Y-190956D01*
X308751Y-190907D01*
X308704Y-190885D01*
X308662Y-190855D01*
X308593Y-190834D01*
X308528Y-190803D01*
X308476Y-190798D01*
X308426Y-190782D01*
X308355Y-190784D01*
X308284Y-190776D01*
X308233Y-190787D01*
X308181Y-190789D01*
X308113Y-190813D01*
X308043Y-190828D01*
X307998Y-190855D01*
X307950Y-190873D01*
X307894Y-190918D01*
X307832Y-190955D01*
X307798Y-190994D01*
X307758Y-191027D01*
X307719Y-191087D01*
X307672Y-191142D01*
X307653Y-191190D01*
X307625Y-191234D01*
X307607Y-191303D01*
X307580Y-191370D01*
X307572Y-191441D01*
X307564Y-191472D01*
X307566Y-191496D01*
X307562Y-191536D01*
X307562Y-216487D01*
X305266Y-222030D01*
X273973Y-253323D01*
X268430Y-255619D01*
X130895Y-255619D01*
X130805Y-255633D01*
X130714Y-255641D01*
X130684Y-255653D01*
X130652Y-255658D01*
X130572Y-255701D01*
X130488Y-255737D01*
X130456Y-255763D01*
X130435Y-255774D01*
X130413Y-255797D01*
X130357Y-255842D01*
X92562Y-293637D01*
X92509Y-293711D01*
X92449Y-293780D01*
X92437Y-293810D01*
X92418Y-293836D01*
X92391Y-293923D01*
X92357Y-294008D01*
X92353Y-294049D01*
X92346Y-294072D01*
X92347Y-294104D01*
X92339Y-294175D01*
X92339Y-297141D01*
X92353Y-297232D01*
X92361Y-297322D01*
X92373Y-297352D01*
X92378Y-297384D01*
X92421Y-297465D01*
X92457Y-297549D01*
X92483Y-297581D01*
X92494Y-297602D01*
X92517Y-297624D01*
X92562Y-297680D01*
X100119Y-305237D01*
X100119Y-324175D01*
X86727Y-337567D01*
X67789Y-337567D01*
G37*
%LPD*%
%LPC*%
G36*
X54880Y278510D02*
X54880Y278510D01*
X49279Y280831D01*
X44992Y285118D01*
X42671Y290719D01*
X42671Y296783D01*
X44992Y302384D01*
X49279Y306671D01*
X54880Y308992D01*
X60944Y308992D01*
X66545Y306671D01*
X70074Y303143D01*
X70090Y303131D01*
X70102Y303116D01*
X70190Y303060D01*
X70273Y302999D01*
X70292Y302994D01*
X70309Y302983D01*
X70410Y302957D01*
X70509Y302927D01*
X70528Y302928D01*
X70548Y302923D01*
X70651Y302931D01*
X70754Y302933D01*
X70773Y302940D01*
X70793Y302942D01*
X70888Y302982D01*
X70985Y303018D01*
X71001Y303030D01*
X71019Y303038D01*
X71150Y303143D01*
X74679Y306671D01*
X80280Y308992D01*
X86344Y308992D01*
X91945Y306671D01*
X95474Y303143D01*
X95490Y303131D01*
X95502Y303116D01*
X95590Y303060D01*
X95673Y302999D01*
X95692Y302994D01*
X95709Y302983D01*
X95810Y302957D01*
X95909Y302927D01*
X95928Y302928D01*
X95948Y302923D01*
X96051Y302931D01*
X96154Y302933D01*
X96173Y302940D01*
X96193Y302942D01*
X96288Y302982D01*
X96385Y303018D01*
X96401Y303030D01*
X96419Y303038D01*
X96550Y303143D01*
X100079Y306671D01*
X105680Y308992D01*
X111744Y308992D01*
X117345Y306671D01*
X120874Y303143D01*
X120890Y303131D01*
X120902Y303116D01*
X120990Y303060D01*
X121073Y302999D01*
X121092Y302994D01*
X121109Y302983D01*
X121210Y302957D01*
X121309Y302927D01*
X121328Y302928D01*
X121348Y302923D01*
X121451Y302931D01*
X121554Y302933D01*
X121573Y302940D01*
X121593Y302942D01*
X121688Y302982D01*
X121785Y303018D01*
X121801Y303030D01*
X121819Y303038D01*
X121950Y303143D01*
X125479Y306671D01*
X131080Y308992D01*
X137144Y308992D01*
X142745Y306671D01*
X147032Y302384D01*
X149353Y296783D01*
X149353Y290719D01*
X147032Y285118D01*
X142745Y280831D01*
X137144Y278510D01*
X131080Y278510D01*
X125479Y280831D01*
X121950Y284359D01*
X121934Y284371D01*
X121922Y284386D01*
X121834Y284442D01*
X121751Y284503D01*
X121732Y284508D01*
X121715Y284519D01*
X121614Y284545D01*
X121515Y284575D01*
X121496Y284574D01*
X121476Y284579D01*
X121373Y284571D01*
X121270Y284569D01*
X121251Y284562D01*
X121231Y284560D01*
X121136Y284520D01*
X121039Y284484D01*
X121023Y284472D01*
X121005Y284464D01*
X120874Y284359D01*
X117345Y280831D01*
X111744Y278510D01*
X105680Y278510D01*
X100079Y280831D01*
X96550Y284359D01*
X96534Y284371D01*
X96522Y284386D01*
X96434Y284442D01*
X96351Y284503D01*
X96332Y284508D01*
X96315Y284519D01*
X96214Y284545D01*
X96115Y284575D01*
X96096Y284574D01*
X96076Y284579D01*
X95973Y284571D01*
X95870Y284569D01*
X95851Y284562D01*
X95831Y284560D01*
X95736Y284520D01*
X95639Y284484D01*
X95623Y284472D01*
X95605Y284464D01*
X95474Y284359D01*
X91945Y280831D01*
X86344Y278510D01*
X80280Y278510D01*
X74679Y280831D01*
X71150Y284359D01*
X71134Y284371D01*
X71122Y284386D01*
X71034Y284442D01*
X70951Y284503D01*
X70932Y284508D01*
X70915Y284519D01*
X70814Y284545D01*
X70715Y284575D01*
X70696Y284574D01*
X70676Y284579D01*
X70573Y284571D01*
X70470Y284569D01*
X70451Y284562D01*
X70431Y284560D01*
X70336Y284520D01*
X70239Y284484D01*
X70223Y284472D01*
X70205Y284464D01*
X70074Y284359D01*
X66545Y280831D01*
X60944Y278510D01*
X54880Y278510D01*
G37*
%LPD*%
%LPC*%
G36*
X364531Y-30709D02*
X364531Y-30709D01*
X357496Y-28824D01*
X351189Y-25182D01*
X346039Y-20032D01*
X342397Y-13725D01*
X340512Y-6690D01*
X340512Y594D01*
X342397Y7629D01*
X346039Y13936D01*
X351189Y19086D01*
X357496Y22728D01*
X364531Y24613D01*
X371815Y24613D01*
X378850Y22728D01*
X385157Y19086D01*
X390307Y13936D01*
X393949Y7629D01*
X395834Y594D01*
X395834Y-6690D01*
X393949Y-13725D01*
X390307Y-20032D01*
X385157Y-25182D01*
X378850Y-28824D01*
X371815Y-30709D01*
X364531Y-30709D01*
G37*
%LPD*%
%LPC*%
G36*
X263285Y-136272D02*
X263285Y-136272D01*
X258384Y-134241D01*
X254633Y-130490D01*
X252602Y-125589D01*
X252602Y-125449D01*
X252592Y-125386D01*
X252592Y-125322D01*
X252572Y-125265D01*
X252563Y-125206D01*
X252533Y-125150D01*
X252512Y-125089D01*
X252475Y-125042D01*
X252447Y-124989D01*
X252401Y-124945D01*
X252362Y-124894D01*
X252313Y-124861D01*
X252269Y-124819D01*
X252211Y-124793D01*
X252158Y-124757D01*
X252100Y-124741D01*
X252046Y-124716D01*
X251983Y-124709D01*
X251921Y-124692D01*
X251861Y-124695D01*
X251802Y-124689D01*
X251739Y-124702D01*
X251675Y-124706D01*
X251620Y-124728D01*
X251561Y-124741D01*
X251506Y-124774D01*
X251447Y-124798D01*
X251401Y-124836D01*
X251350Y-124867D01*
X251309Y-124916D01*
X251260Y-124957D01*
X251229Y-125009D01*
X251190Y-125054D01*
X251166Y-125113D01*
X251133Y-125168D01*
X251111Y-125251D01*
X251098Y-125282D01*
X251096Y-125307D01*
X251089Y-125330D01*
X251068Y-125464D01*
X250543Y-127080D01*
X249771Y-128594D01*
X248772Y-129969D01*
X247571Y-131170D01*
X246196Y-132169D01*
X244682Y-132941D01*
X243066Y-133466D01*
X242061Y-133625D01*
X242061Y-123698D01*
X242058Y-123678D01*
X242060Y-123659D01*
X242038Y-123557D01*
X242021Y-123455D01*
X242012Y-123438D01*
X242008Y-123418D01*
X241955Y-123329D01*
X241906Y-123238D01*
X241892Y-123224D01*
X241882Y-123207D01*
X241803Y-123140D01*
X241728Y-123069D01*
X241710Y-123060D01*
X241695Y-123047D01*
X241599Y-123009D01*
X241505Y-122965D01*
X241485Y-122963D01*
X241467Y-122955D01*
X241300Y-122937D01*
X240537Y-122937D01*
X240537Y-122935D01*
X241300Y-122935D01*
X241320Y-122932D01*
X241339Y-122934D01*
X241441Y-122912D01*
X241543Y-122895D01*
X241560Y-122886D01*
X241580Y-122882D01*
X241669Y-122829D01*
X241760Y-122780D01*
X241774Y-122766D01*
X241791Y-122756D01*
X241858Y-122677D01*
X241929Y-122602D01*
X241938Y-122584D01*
X241951Y-122569D01*
X241990Y-122473D01*
X242033Y-122379D01*
X242035Y-122359D01*
X242043Y-122341D01*
X242061Y-122174D01*
X242061Y-112247D01*
X243066Y-112406D01*
X244682Y-112931D01*
X246196Y-113703D01*
X247571Y-114702D01*
X248772Y-115903D01*
X249771Y-117278D01*
X250543Y-118792D01*
X251068Y-120408D01*
X251089Y-120542D01*
X251109Y-120603D01*
X251120Y-120666D01*
X251148Y-120719D01*
X251166Y-120776D01*
X251205Y-120827D01*
X251235Y-120883D01*
X251278Y-120924D01*
X251314Y-120972D01*
X251367Y-121009D01*
X251413Y-121053D01*
X251467Y-121078D01*
X251517Y-121112D01*
X251578Y-121129D01*
X251636Y-121156D01*
X251696Y-121163D01*
X251753Y-121179D01*
X251817Y-121176D01*
X251880Y-121183D01*
X251939Y-121171D01*
X251999Y-121168D01*
X252058Y-121145D01*
X252121Y-121131D01*
X252172Y-121100D01*
X252228Y-121079D01*
X252277Y-121038D01*
X252332Y-121005D01*
X252371Y-120959D01*
X252417Y-120921D01*
X252450Y-120866D01*
X252492Y-120818D01*
X252514Y-120762D01*
X252546Y-120711D01*
X252560Y-120649D01*
X252584Y-120590D01*
X252593Y-120504D01*
X252601Y-120472D01*
X252600Y-120447D01*
X252602Y-120423D01*
X252602Y-120283D01*
X254633Y-115382D01*
X258384Y-111631D01*
X263285Y-109600D01*
X268591Y-109600D01*
X273492Y-111631D01*
X277243Y-115382D01*
X279274Y-120283D01*
X279274Y-125589D01*
X277243Y-130490D01*
X273492Y-134241D01*
X268591Y-136272D01*
X263285Y-136272D01*
G37*
%LPD*%
%LPC*%
G36*
X-256510Y38179D02*
X-256510Y38179D01*
X-261149Y40101D01*
X-264699Y43651D01*
X-266621Y48290D01*
X-266621Y53310D01*
X-264699Y57949D01*
X-261149Y61499D01*
X-256510Y63421D01*
X-251490Y63421D01*
X-246851Y61499D01*
X-243301Y57949D01*
X-241379Y53310D01*
X-241379Y48290D01*
X-243301Y43651D01*
X-246851Y40101D01*
X-251490Y38179D01*
X-256510Y38179D01*
G37*
%LPD*%
%LPC*%
G36*
X174181Y-335027D02*
X174181Y-335027D01*
X174181Y-316229D01*
X192979Y-316229D01*
X192979Y-323123D01*
X181075Y-335027D01*
X174181Y-335027D01*
G37*
%LPD*%
%LPC*%
G36*
X152337Y-323123D02*
X152337Y-323123D01*
X152337Y-316229D01*
X171135Y-316229D01*
X171135Y-335027D01*
X164241Y-335027D01*
X152337Y-323123D01*
G37*
%LPD*%
%LPC*%
G36*
X174181Y-313183D02*
X174181Y-313183D01*
X174181Y-294385D01*
X181075Y-294385D01*
X192979Y-306289D01*
X192979Y-313183D01*
X174181Y-313183D01*
G37*
%LPD*%
%LPC*%
G36*
X152337Y-313183D02*
X152337Y-313183D01*
X152337Y-306289D01*
X164241Y-294385D01*
X171135Y-294385D01*
X171135Y-313183D01*
X152337Y-313183D01*
G37*
%LPD*%
%LPC*%
G36*
X319404Y-184657D02*
X319404Y-184657D01*
X329727Y-184657D01*
X329526Y-185930D01*
X328945Y-187717D01*
X328092Y-189391D01*
X326987Y-190912D01*
X325659Y-192240D01*
X324138Y-193345D01*
X322464Y-194198D01*
X320677Y-194779D01*
X319404Y-194980D01*
X319404Y-184657D01*
G37*
%LPD*%
%LPC*%
G36*
X319404Y-181611D02*
X319404Y-181611D01*
X319404Y-171288D01*
X320677Y-171489D01*
X322464Y-172070D01*
X324138Y-172923D01*
X325659Y-174028D01*
X326987Y-175356D01*
X328092Y-176877D01*
X328945Y-178551D01*
X329526Y-180338D01*
X329727Y-181611D01*
X319404Y-181611D01*
G37*
%LPD*%
%LPC*%
G36*
X-264081Y77723D02*
X-264081Y77723D01*
X-264081Y84074D01*
X-263908Y84721D01*
X-263573Y85300D01*
X-263100Y85773D01*
X-262521Y86108D01*
X-261874Y86281D01*
X-255523Y86281D01*
X-255523Y77723D01*
X-264081Y77723D01*
G37*
%LPD*%
%LPC*%
G36*
X-261874Y66119D02*
X-261874Y66119D01*
X-262521Y66292D01*
X-263100Y66627D01*
X-263573Y67100D01*
X-263908Y67679D01*
X-264081Y68326D01*
X-264081Y74677D01*
X-255523Y74677D01*
X-255523Y66119D01*
X-261874Y66119D01*
G37*
%LPD*%
%LPC*%
G36*
X-252477Y77723D02*
X-252477Y77723D01*
X-252477Y86281D01*
X-246126Y86281D01*
X-245479Y86108D01*
X-244900Y85773D01*
X-244427Y85300D01*
X-244092Y84721D01*
X-243919Y84074D01*
X-243919Y77723D01*
X-252477Y77723D01*
G37*
%LPD*%
%LPC*%
G36*
X-252477Y66119D02*
X-252477Y66119D01*
X-252477Y74677D01*
X-243919Y74677D01*
X-243919Y68326D01*
X-244092Y67679D01*
X-244427Y67100D01*
X-244900Y66627D01*
X-245479Y66292D01*
X-246126Y66119D01*
X-252477Y66119D01*
G37*
%LPD*%
%LPC*%
G36*
X34023Y-179323D02*
X34023Y-179323D01*
X43832Y-179323D01*
X43649Y-180477D01*
X43093Y-182188D01*
X42276Y-183791D01*
X41219Y-185247D01*
X39947Y-186519D01*
X38491Y-187576D01*
X36888Y-188393D01*
X35177Y-188949D01*
X34023Y-189132D01*
X34023Y-179323D01*
G37*
%LPD*%
%LPC*%
G36*
X34023Y-176277D02*
X34023Y-176277D01*
X34023Y-166468D01*
X35177Y-166651D01*
X36888Y-167207D01*
X38491Y-168024D01*
X39947Y-169081D01*
X41219Y-170353D01*
X42276Y-171809D01*
X43093Y-173412D01*
X43649Y-175123D01*
X43832Y-176277D01*
X34023Y-176277D01*
G37*
%LPD*%
%LPC*%
G36*
X29823Y-188949D02*
X29823Y-188949D01*
X28112Y-188393D01*
X26509Y-187576D01*
X25053Y-186519D01*
X23781Y-185247D01*
X22724Y-183791D01*
X21907Y-182188D01*
X21351Y-180477D01*
X21168Y-179323D01*
X30977Y-179323D01*
X30977Y-189132D01*
X29823Y-188949D01*
G37*
%LPD*%
%LPC*%
G36*
X21168Y-176277D02*
X21168Y-176277D01*
X21351Y-175123D01*
X21907Y-173412D01*
X22724Y-171809D01*
X23781Y-170353D01*
X25053Y-169081D01*
X26509Y-168024D01*
X28112Y-167207D01*
X29823Y-166651D01*
X30977Y-166468D01*
X30977Y-176277D01*
X21168Y-176277D01*
G37*
%LPD*%
%LPC*%
G36*
X238010Y-133466D02*
X238010Y-133466D01*
X236394Y-132941D01*
X234880Y-132169D01*
X233505Y-131170D01*
X232304Y-129969D01*
X231305Y-128594D01*
X230533Y-127080D01*
X230008Y-125464D01*
X229849Y-124459D01*
X239015Y-124459D01*
X239015Y-133625D01*
X238010Y-133466D01*
G37*
%LPD*%
%LPC*%
G36*
X229849Y-121413D02*
X229849Y-121413D01*
X230008Y-120408D01*
X230533Y-118792D01*
X231305Y-117278D01*
X232304Y-115903D01*
X233505Y-114702D01*
X234880Y-113703D01*
X236394Y-112931D01*
X238010Y-112406D01*
X239015Y-112247D01*
X239015Y-121413D01*
X229849Y-121413D01*
G37*
%LPD*%
%LPC*%
G36*
X-106269Y-301669D02*
X-106269Y-301669D01*
X-107967Y-300966D01*
X-109495Y-299945D01*
X-110795Y-298645D01*
X-111816Y-297117D01*
X-112519Y-295419D01*
X-112758Y-294220D01*
X-105070Y-294220D01*
X-105070Y-301908D01*
X-106269Y-301669D01*
G37*
%LPD*%
%LPC*%
G36*
X-112758Y-291174D02*
X-112758Y-291174D01*
X-112519Y-289975D01*
X-111816Y-288277D01*
X-110795Y-286749D01*
X-109495Y-285449D01*
X-107967Y-284428D01*
X-106269Y-283725D01*
X-105070Y-283486D01*
X-105070Y-291174D01*
X-112758Y-291174D01*
G37*
%LPD*%
%LPC*%
G36*
X172657Y-314707D02*
X172657Y-314707D01*
X172657Y-314705D01*
X172659Y-314705D01*
X172659Y-314707D01*
X172657Y-314707D01*
G37*
%LPD*%
%LPC*%
G36*
X-254001Y76199D02*
X-254001Y76199D01*
X-254001Y76201D01*
X-253999Y76201D01*
X-253999Y76199D01*
X-254001Y76199D01*
G37*
%LPD*%
%LPC*%
G36*
X32499Y-177801D02*
X32499Y-177801D01*
X32499Y-177799D01*
X32501Y-177799D01*
X32501Y-177801D01*
X32499Y-177801D01*
G37*
%LPD*%
D10*
X240538Y-122936D03*
X265938Y-122936D03*
D11*
X-32500Y-177800D03*
X32500Y-177800D03*
D12*
X267081Y-183134D03*
X292481Y-183134D03*
X317881Y-183134D03*
D13*
X-78147Y-292697D03*
X-103547Y-292697D03*
X-128947Y-292697D03*
D14*
X57912Y115951D03*
X83312Y115951D03*
X108712Y115951D03*
X134112Y115951D03*
X32512Y115951D03*
X159512Y115951D03*
X57912Y293751D03*
X83312Y293751D03*
X108712Y293751D03*
X134112Y293751D03*
D15*
X-227330Y128651D03*
D11*
X-201930Y128651D03*
X-176530Y128651D03*
X-151130Y128651D03*
X-125730Y128651D03*
X-100330Y128651D03*
X-74930Y128651D03*
D16*
X-279400Y-76200D03*
X177800Y0D03*
X-254000Y76200D03*
D17*
X-279400Y76200D03*
D18*
X-228600Y76200D03*
X177800Y-25400D03*
D19*
X177800Y-50800D03*
X177800Y25400D03*
X177800Y50800D03*
X50800Y76200D03*
X50800Y-76200D03*
X-254000Y-76200D03*
X-228600Y-76200D03*
X-203200Y-76200D03*
X-177800Y-76200D03*
X-152400Y-76200D03*
X-127000Y-76200D03*
X-101600Y-76200D03*
X-76200Y-76200D03*
X-50800Y-76200D03*
X-25400Y-76200D03*
X0Y-76200D03*
X25400Y-76200D03*
X-254000Y50800D03*
X25400Y76200D03*
X0Y76200D03*
X-25400Y76200D03*
X-50800Y76200D03*
X-76200Y76200D03*
X-101600Y76200D03*
X-127000Y76200D03*
X-152400Y76200D03*
X-177800Y76200D03*
X-203200Y76200D03*
D18*
X76200Y-76200D03*
D19*
X127000Y-76200D03*
X152400Y-76200D03*
X177800Y-76200D03*
X203200Y-76200D03*
X228600Y-76200D03*
X254000Y-76200D03*
X279400Y-76200D03*
X304800Y-76200D03*
X101600Y76200D03*
X127000Y76200D03*
X152400Y76200D03*
X177800Y76200D03*
X203200Y76200D03*
X228600Y76200D03*
X254000Y76200D03*
X279400Y76200D03*
X304800Y76200D03*
X-215900Y-46200D03*
X-190500Y-46200D03*
X-165100Y-46200D03*
X-139700Y-46200D03*
X-114300Y-46200D03*
X101600Y-76200D03*
D16*
X76200Y76200D03*
D20*
X-104521Y-125095D03*
X-129921Y-125095D03*
X-155321Y-125095D03*
X-180721Y-125095D03*
X-206121Y-125095D03*
X-231521Y-125095D03*
D21*
X77258Y-314706D03*
X172658Y-314706D03*
D22*
X124333Y-240538D02*
X265430Y-240538D01*
X292481Y-213487D01*
X292481Y-183134D01*
X77258Y-287613D02*
X77258Y-314706D01*
X77258Y-287613D02*
X124333Y-240538D01*
X-6769Y-292697D02*
X-78147Y-292697D01*
X-6769Y-292697D02*
X16383Y-315849D01*
X76115Y-315849D01*
X77258Y-314706D01*
D23*
X-128947Y-292697D02*
X-129201Y-292951D01*
X-135170Y-292951D01*
X-201168Y-226953D01*
X-206121Y-222000D01*
X-206121Y-125095D01*
X-201168Y-226572D02*
X-201168Y-226953D01*
X-201168Y-226572D02*
X-332867Y-94873D01*
X-332867Y60833D01*
X-317500Y76200D01*
X-279400Y76200D01*
D24*
X-25400Y-76200D02*
X81534Y-183134D01*
X267081Y-183134D02*
X267462Y-183134D01*
X267081Y-183134D02*
X81534Y-183134D01*
X-32500Y-145300D02*
X-101600Y-76200D01*
X-32500Y-145300D02*
X-32500Y-177800D01*
X-129921Y-125095D02*
X-155956Y-99060D01*
X-215900Y-99060D02*
X-228600Y-86360D01*
X-228600Y-76200D01*
X-215900Y-99060D02*
X-155956Y-99060D01*
X-172466Y-107950D02*
X-155321Y-125095D01*
X-254000Y-88900D02*
X-254000Y-76200D01*
X-234950Y-107950D02*
X-172466Y-107950D01*
X-234950Y-107950D02*
X-254000Y-88900D01*
X-74930Y77470D02*
X-74930Y128651D01*
X-74930Y77470D02*
X-76200Y76200D01*
X72263Y152400D02*
X108712Y115951D01*
X-51181Y152400D02*
X-74930Y128651D01*
X-51181Y152400D02*
X72263Y152400D01*
X-100330Y128651D02*
X-100330Y77470D01*
X-101600Y76200D01*
X-100330Y128651D02*
X-63881Y165100D01*
X101600Y165100D01*
X134112Y132588D01*
X134112Y115951D01*
D25*
X101600Y-101600D03*
D24*
X38100Y-101600D01*
X25400Y-88900D01*
X25400Y-76200D01*
D25*
X139700Y-50800D03*
D24*
X127000Y-38100D01*
X-83820Y-38100D01*
X-121920Y-76200D02*
X-127000Y-76200D01*
X-121920Y-76200D02*
X-83820Y-38100D01*
M02*
