G04 EAGLE Gerber RS-274X export*
G75*
%MOMM*%
%FSLAX34Y34*%
%LPD*%
%IN*%
%IPPOS*%
%AMOC8*
5,1,8,0,0,1.08239X$1,22.5*%
G01*
%ADD10C,0.254000*%


D10*
X412750Y-5065D02*
X412750Y5065D01*
X412501Y15193D01*
X412004Y25312D01*
X411259Y35416D01*
X410266Y45498D01*
X409026Y55552D01*
X407539Y65574D01*
X405807Y75555D01*
X403831Y85492D01*
X401611Y95376D01*
X399150Y105204D01*
X396448Y114968D01*
X393507Y124662D01*
X390329Y134282D01*
X386916Y143821D01*
X383270Y153273D01*
X379393Y162632D01*
X375287Y171894D01*
X370956Y181053D01*
X366401Y190102D01*
X361625Y199036D01*
X356632Y207851D01*
X351423Y216541D01*
X346003Y225100D01*
X340375Y233523D01*
X334541Y241806D01*
X328506Y249944D01*
X322274Y257930D01*
X315847Y265761D01*
X309229Y273433D01*
X302426Y280939D01*
X295440Y288277D01*
X288277Y295440D01*
X280939Y302426D01*
X273433Y309229D01*
X265761Y315847D01*
X257930Y322274D01*
X249944Y328506D01*
X241806Y334541D01*
X233523Y340375D01*
X225100Y346003D01*
X216541Y351423D01*
X207851Y356632D01*
X199036Y361625D01*
X190102Y366401D01*
X181053Y370956D01*
X171894Y375287D01*
X162632Y379393D01*
X153273Y383270D01*
X143821Y386916D01*
X134282Y390329D01*
X124662Y393507D01*
X114968Y396448D01*
X105204Y399150D01*
X95376Y401611D01*
X85492Y403831D01*
X75555Y405807D01*
X65574Y407539D01*
X55552Y409026D01*
X45498Y410266D01*
X35416Y411259D01*
X25312Y412004D01*
X15193Y412501D01*
X5065Y412750D01*
X-5065Y412750D01*
X-15193Y412501D01*
X-25312Y412004D01*
X-35416Y411259D01*
X-45498Y410266D01*
X-55552Y409026D01*
X-65574Y407539D01*
X-75555Y405807D01*
X-85492Y403831D01*
X-95376Y401611D01*
X-105204Y399150D01*
X-114968Y396448D01*
X-124662Y393507D01*
X-134282Y390329D01*
X-143821Y386916D01*
X-153273Y383270D01*
X-162632Y379393D01*
X-171894Y375287D01*
X-181053Y370956D01*
X-190102Y366401D01*
X-199036Y361625D01*
X-207851Y356632D01*
X-216541Y351423D01*
X-225100Y346003D01*
X-233523Y340375D01*
X-241806Y334541D01*
X-249944Y328506D01*
X-257930Y322274D01*
X-265761Y315847D01*
X-273433Y309229D01*
X-280939Y302426D01*
X-288277Y295440D01*
X-295440Y288277D01*
X-302426Y280939D01*
X-309229Y273433D01*
X-315847Y265761D01*
X-322274Y257930D01*
X-328506Y249944D01*
X-334541Y241806D01*
X-340375Y233523D01*
X-346003Y225100D01*
X-351423Y216541D01*
X-356632Y207851D01*
X-361625Y199036D01*
X-366401Y190102D01*
X-370956Y181053D01*
X-375287Y171894D01*
X-379393Y162632D01*
X-383270Y153273D01*
X-386916Y143821D01*
X-390329Y134282D01*
X-393507Y124662D01*
X-396448Y114968D01*
X-399150Y105204D01*
X-401611Y95376D01*
X-403831Y85492D01*
X-405807Y75555D01*
X-407539Y65574D01*
X-409026Y55552D01*
X-410266Y45498D01*
X-411259Y35416D01*
X-412004Y25312D01*
X-412501Y15193D01*
X-412750Y5065D01*
X-412750Y-5065D01*
X-412501Y-15193D01*
X-412004Y-25312D01*
X-411259Y-35416D01*
X-410266Y-45498D01*
X-409026Y-55552D01*
X-407539Y-65574D01*
X-405807Y-75555D01*
X-403831Y-85492D01*
X-401611Y-95376D01*
X-399150Y-105204D01*
X-396448Y-114968D01*
X-393507Y-124662D01*
X-390329Y-134282D01*
X-386916Y-143821D01*
X-383270Y-153273D01*
X-379393Y-162632D01*
X-375287Y-171894D01*
X-370956Y-181053D01*
X-366401Y-190102D01*
X-361625Y-199036D01*
X-356632Y-207851D01*
X-351423Y-216541D01*
X-346003Y-225100D01*
X-340375Y-233523D01*
X-334541Y-241806D01*
X-328506Y-249944D01*
X-322274Y-257930D01*
X-315847Y-265761D01*
X-309229Y-273433D01*
X-302426Y-280939D01*
X-295440Y-288277D01*
X-288277Y-295440D01*
X-280939Y-302426D01*
X-273433Y-309229D01*
X-265761Y-315847D01*
X-257930Y-322274D01*
X-249944Y-328506D01*
X-241806Y-334541D01*
X-233523Y-340375D01*
X-225100Y-346003D01*
X-216541Y-351423D01*
X-207851Y-356632D01*
X-199036Y-361625D01*
X-190102Y-366401D01*
X-181053Y-370956D01*
X-171894Y-375287D01*
X-162632Y-379393D01*
X-153273Y-383270D01*
X-143821Y-386916D01*
X-134282Y-390329D01*
X-124662Y-393507D01*
X-114968Y-396448D01*
X-105204Y-399150D01*
X-95376Y-401611D01*
X-85492Y-403831D01*
X-75555Y-405807D01*
X-65574Y-407539D01*
X-55552Y-409026D01*
X-45498Y-410266D01*
X-35416Y-411259D01*
X-25312Y-412004D01*
X-15193Y-412501D01*
X-5065Y-412750D01*
X5065Y-412750D01*
X15193Y-412501D01*
X25312Y-412004D01*
X35416Y-411259D01*
X45498Y-410266D01*
X55552Y-409026D01*
X65574Y-407539D01*
X75555Y-405807D01*
X85492Y-403831D01*
X95376Y-401611D01*
X105204Y-399150D01*
X114968Y-396448D01*
X124662Y-393507D01*
X134282Y-390329D01*
X143821Y-386916D01*
X153273Y-383270D01*
X162632Y-379393D01*
X171894Y-375287D01*
X181053Y-370956D01*
X190102Y-366401D01*
X199036Y-361625D01*
X207851Y-356632D01*
X216541Y-351423D01*
X225100Y-346003D01*
X233523Y-340375D01*
X241806Y-334541D01*
X249944Y-328506D01*
X257930Y-322274D01*
X265761Y-315847D01*
X273433Y-309229D01*
X280939Y-302426D01*
X288277Y-295440D01*
X295440Y-288277D01*
X302426Y-280939D01*
X309229Y-273433D01*
X315847Y-265761D01*
X322274Y-257930D01*
X328506Y-249944D01*
X334541Y-241806D01*
X340375Y-233523D01*
X346003Y-225100D01*
X351423Y-216541D01*
X356632Y-207851D01*
X361625Y-199036D01*
X366401Y-190102D01*
X370956Y-181053D01*
X375287Y-171894D01*
X379393Y-162632D01*
X383270Y-153273D01*
X386916Y-143821D01*
X390329Y-134282D01*
X393507Y-124662D01*
X396448Y-114968D01*
X399150Y-105204D01*
X401611Y-95376D01*
X403831Y-85492D01*
X405807Y-75555D01*
X407539Y-65574D01*
X409026Y-55552D01*
X410266Y-45498D01*
X411259Y-35416D01*
X412004Y-25312D01*
X412501Y-15193D01*
X412750Y-5065D01*
X18643Y-374461D02*
X18568Y-375604D01*
X18419Y-376740D01*
X18195Y-377864D01*
X17898Y-378971D01*
X17530Y-380056D01*
X17092Y-381114D01*
X16585Y-382142D01*
X16012Y-383134D01*
X15375Y-384087D01*
X14678Y-384996D01*
X13922Y-385857D01*
X13112Y-386667D01*
X12251Y-387423D01*
X11342Y-388120D01*
X10389Y-388757D01*
X9397Y-389330D01*
X8369Y-389837D01*
X7311Y-390275D01*
X6226Y-390643D01*
X5119Y-390940D01*
X3995Y-391164D01*
X2859Y-391313D01*
X1716Y-391388D01*
X570Y-391388D01*
X-573Y-391313D01*
X-1709Y-391164D01*
X-2833Y-390940D01*
X-3940Y-390643D01*
X-5025Y-390275D01*
X-6083Y-389837D01*
X-7111Y-389330D01*
X-8103Y-388757D01*
X-9056Y-388120D01*
X-9965Y-387423D01*
X-10826Y-386667D01*
X-11636Y-385857D01*
X-12392Y-384996D01*
X-13089Y-384087D01*
X-13726Y-383134D01*
X-14299Y-382142D01*
X-14806Y-381114D01*
X-15244Y-380056D01*
X-15612Y-378971D01*
X-15909Y-377864D01*
X-16133Y-376740D01*
X-16282Y-375604D01*
X-16357Y-374461D01*
X-16357Y-373315D01*
X-16282Y-372172D01*
X-16133Y-371036D01*
X-15909Y-369912D01*
X-15612Y-368805D01*
X-15244Y-367720D01*
X-14806Y-366662D01*
X-14299Y-365634D01*
X-13726Y-364642D01*
X-13089Y-363689D01*
X-12392Y-362780D01*
X-11636Y-361919D01*
X-10826Y-361109D01*
X-9965Y-360353D01*
X-9056Y-359656D01*
X-8103Y-359019D01*
X-7111Y-358446D01*
X-6083Y-357939D01*
X-5025Y-357501D01*
X-3940Y-357133D01*
X-2833Y-356836D01*
X-1709Y-356613D01*
X-573Y-356463D01*
X570Y-356388D01*
X1716Y-356388D01*
X2859Y-356463D01*
X3995Y-356613D01*
X5119Y-356836D01*
X6226Y-357133D01*
X7311Y-357501D01*
X8369Y-357939D01*
X9397Y-358446D01*
X10389Y-359019D01*
X11342Y-359656D01*
X12251Y-360353D01*
X13112Y-361109D01*
X13922Y-361919D01*
X14678Y-362780D01*
X15375Y-363689D01*
X16012Y-364642D01*
X16585Y-365634D01*
X17092Y-366662D01*
X17530Y-367720D01*
X17898Y-368805D01*
X18195Y-369912D01*
X18419Y-371036D01*
X18568Y-372172D01*
X18643Y-373315D01*
X18643Y-374461D01*
X-357531Y-573D02*
X-357606Y-1716D01*
X-357756Y-2852D01*
X-357979Y-3976D01*
X-358276Y-5083D01*
X-358644Y-6168D01*
X-359082Y-7226D01*
X-359589Y-8254D01*
X-360162Y-9246D01*
X-360799Y-10199D01*
X-361496Y-11108D01*
X-362252Y-11969D01*
X-363062Y-12779D01*
X-363923Y-13535D01*
X-364832Y-14232D01*
X-365785Y-14869D01*
X-366777Y-15442D01*
X-367805Y-15949D01*
X-368863Y-16387D01*
X-369948Y-16755D01*
X-371055Y-17052D01*
X-372179Y-17276D01*
X-373315Y-17425D01*
X-374458Y-17500D01*
X-375604Y-17500D01*
X-376747Y-17425D01*
X-377883Y-17276D01*
X-379007Y-17052D01*
X-380114Y-16755D01*
X-381199Y-16387D01*
X-382257Y-15949D01*
X-383285Y-15442D01*
X-384277Y-14869D01*
X-385230Y-14232D01*
X-386139Y-13535D01*
X-387000Y-12779D01*
X-387810Y-11969D01*
X-388566Y-11108D01*
X-389263Y-10199D01*
X-389900Y-9246D01*
X-390473Y-8254D01*
X-390980Y-7226D01*
X-391418Y-6168D01*
X-391786Y-5083D01*
X-392083Y-3976D01*
X-392307Y-2852D01*
X-392456Y-1716D01*
X-392531Y-573D01*
X-392531Y573D01*
X-392456Y1716D01*
X-392307Y2852D01*
X-392083Y3976D01*
X-391786Y5083D01*
X-391418Y6168D01*
X-390980Y7226D01*
X-390473Y8254D01*
X-389900Y9246D01*
X-389263Y10199D01*
X-388566Y11108D01*
X-387810Y11969D01*
X-387000Y12779D01*
X-386139Y13535D01*
X-385230Y14232D01*
X-384277Y14869D01*
X-383285Y15442D01*
X-382257Y15949D01*
X-381199Y16387D01*
X-380114Y16755D01*
X-379007Y17052D01*
X-377883Y17276D01*
X-376747Y17425D01*
X-375604Y17500D01*
X-374458Y17500D01*
X-373315Y17425D01*
X-372179Y17276D01*
X-371055Y17052D01*
X-369948Y16755D01*
X-368863Y16387D01*
X-367805Y15949D01*
X-366777Y15442D01*
X-365785Y14869D01*
X-364832Y14232D01*
X-363923Y13535D01*
X-363062Y12779D01*
X-362252Y11969D01*
X-361496Y11108D01*
X-360799Y10199D01*
X-360162Y9246D01*
X-359589Y8254D01*
X-359082Y7226D01*
X-358644Y6168D01*
X-358276Y5083D01*
X-357979Y3976D01*
X-357756Y2852D01*
X-357606Y1716D01*
X-357531Y573D01*
X-357531Y-573D01*
X17500Y372172D02*
X17425Y371029D01*
X17276Y369893D01*
X17052Y368769D01*
X16755Y367662D01*
X16387Y366577D01*
X15949Y365519D01*
X15442Y364491D01*
X14869Y363499D01*
X14232Y362546D01*
X13535Y361637D01*
X12779Y360776D01*
X11969Y359966D01*
X11108Y359210D01*
X10199Y358513D01*
X9246Y357876D01*
X8254Y357303D01*
X7226Y356796D01*
X6168Y356358D01*
X5083Y355990D01*
X3976Y355693D01*
X2852Y355470D01*
X1716Y355320D01*
X573Y355245D01*
X-573Y355245D01*
X-1716Y355320D01*
X-2852Y355470D01*
X-3976Y355693D01*
X-5083Y355990D01*
X-6168Y356358D01*
X-7226Y356796D01*
X-8254Y357303D01*
X-9246Y357876D01*
X-10199Y358513D01*
X-11108Y359210D01*
X-11969Y359966D01*
X-12779Y360776D01*
X-13535Y361637D01*
X-14232Y362546D01*
X-14869Y363499D01*
X-15442Y364491D01*
X-15949Y365519D01*
X-16387Y366577D01*
X-16755Y367662D01*
X-17052Y368769D01*
X-17276Y369893D01*
X-17425Y371029D01*
X-17500Y372172D01*
X-17500Y373318D01*
X-17425Y374461D01*
X-17276Y375597D01*
X-17052Y376721D01*
X-16755Y377828D01*
X-16387Y378913D01*
X-15949Y379971D01*
X-15442Y380999D01*
X-14869Y381991D01*
X-14232Y382944D01*
X-13535Y383853D01*
X-12779Y384714D01*
X-11969Y385524D01*
X-11108Y386280D01*
X-10199Y386977D01*
X-9246Y387614D01*
X-8254Y388187D01*
X-7226Y388694D01*
X-6168Y389132D01*
X-5083Y389500D01*
X-3976Y389797D01*
X-2852Y390021D01*
X-1716Y390170D01*
X-573Y390245D01*
X573Y390245D01*
X1716Y390170D01*
X2852Y390021D01*
X3976Y389797D01*
X5083Y389500D01*
X6168Y389132D01*
X7226Y388694D01*
X8254Y388187D01*
X9246Y387614D01*
X10199Y386977D01*
X11108Y386280D01*
X11969Y385524D01*
X12779Y384714D01*
X13535Y383853D01*
X14232Y382944D01*
X14869Y381991D01*
X15442Y380999D01*
X15949Y379971D01*
X16387Y378913D01*
X16755Y377828D01*
X17052Y376721D01*
X17276Y375597D01*
X17425Y374461D01*
X17500Y373318D01*
X17500Y372172D01*
X385673Y-3621D02*
X385598Y-4764D01*
X385449Y-5900D01*
X385225Y-7024D01*
X384928Y-8131D01*
X384560Y-9216D01*
X384122Y-10274D01*
X383615Y-11302D01*
X383042Y-12294D01*
X382405Y-13247D01*
X381708Y-14156D01*
X380952Y-15017D01*
X380142Y-15827D01*
X379281Y-16583D01*
X378372Y-17280D01*
X377419Y-17917D01*
X376427Y-18490D01*
X375399Y-18997D01*
X374341Y-19435D01*
X373256Y-19803D01*
X372149Y-20100D01*
X371025Y-20324D01*
X369889Y-20473D01*
X368746Y-20548D01*
X367600Y-20548D01*
X366457Y-20473D01*
X365321Y-20324D01*
X364197Y-20100D01*
X363090Y-19803D01*
X362005Y-19435D01*
X360947Y-18997D01*
X359919Y-18490D01*
X358927Y-17917D01*
X357974Y-17280D01*
X357065Y-16583D01*
X356204Y-15827D01*
X355394Y-15017D01*
X354638Y-14156D01*
X353941Y-13247D01*
X353304Y-12294D01*
X352731Y-11302D01*
X352224Y-10274D01*
X351786Y-9216D01*
X351418Y-8131D01*
X351121Y-7024D01*
X350898Y-5900D01*
X350748Y-4764D01*
X350673Y-3621D01*
X350673Y-2475D01*
X350748Y-1332D01*
X350898Y-196D01*
X351121Y928D01*
X351418Y2035D01*
X351786Y3120D01*
X352224Y4178D01*
X352731Y5206D01*
X353304Y6198D01*
X353941Y7151D01*
X354638Y8060D01*
X355394Y8921D01*
X356204Y9731D01*
X357065Y10487D01*
X357974Y11184D01*
X358927Y11821D01*
X359919Y12394D01*
X360947Y12901D01*
X362005Y13339D01*
X363090Y13707D01*
X364197Y14004D01*
X365321Y14228D01*
X366457Y14377D01*
X367600Y14452D01*
X368746Y14452D01*
X369889Y14377D01*
X371025Y14228D01*
X372149Y14004D01*
X373256Y13707D01*
X374341Y13339D01*
X375399Y12901D01*
X376427Y12394D01*
X377419Y11821D01*
X378372Y11184D01*
X379281Y10487D01*
X380142Y9731D01*
X380952Y8921D01*
X381708Y8060D01*
X382405Y7151D01*
X383042Y6198D01*
X383615Y5206D01*
X384122Y4178D01*
X384560Y3120D01*
X384928Y2035D01*
X385225Y928D01*
X385449Y-196D01*
X385598Y-1332D01*
X385673Y-2475D01*
X385673Y-3621D01*
M02*
