G04 EAGLE Gerber RS-274X export*
G75*
%MOMM*%
%FSLAX34Y34*%
%LPD*%
%INSoldermask Top*%
%IPPOS*%
%AMOC8*
5,1,8,0,0,1.08239X$1,22.5*%
G01*
%ADD10C,3.703200*%
%ADD11C,1.854200*%
%ADD12R,0.903200X2.133200*%
%ADD13C,1.981200*%
%ADD14C,2.082800*%
%ADD15C,1.561200*%
%ADD16C,2.235200*%
%ADD17R,1.981200X1.981200*%
%ADD18R,1.711200X1.711200*%
%ADD19C,1.879600*%
%ADD20P,1.852186X8X112.500000*%
%ADD21C,1.711200*%
%ADD22P,2.144431X8X202.500000*%
%ADD23P,4.068920X8X22.500000*%


D10*
X1143Y-373888D03*
X-375031Y0D03*
X0Y372745D03*
X368173Y-3048D03*
D11*
X240538Y-122936D03*
X265938Y-122936D03*
D12*
X107950Y-224900D03*
X120650Y-224900D03*
X133350Y-224900D03*
X146050Y-224900D03*
X158750Y-224900D03*
X171450Y-224900D03*
X184150Y-224900D03*
X196850Y-224900D03*
X196850Y-130700D03*
X184150Y-130700D03*
X171450Y-130700D03*
X158750Y-130700D03*
X146050Y-130700D03*
X133350Y-130700D03*
X120650Y-130700D03*
X107950Y-130700D03*
D13*
X-32500Y-177800D03*
X32500Y-177800D03*
D14*
X267081Y-183134D03*
X292481Y-183134D03*
X317881Y-183134D03*
D15*
X-78147Y-292697D03*
X-103547Y-292697D03*
X-128947Y-292697D03*
D16*
X57912Y115951D03*
X83312Y115951D03*
X108712Y115951D03*
X134112Y115951D03*
X32512Y115951D03*
X159512Y115951D03*
X57912Y293751D03*
X83312Y293751D03*
X108712Y293751D03*
X134112Y293751D03*
D17*
X-227330Y128651D03*
D13*
X-201930Y128651D03*
X-176530Y128651D03*
X-151130Y128651D03*
X-125730Y128651D03*
X-100330Y128651D03*
X-74930Y128651D03*
D18*
X-279400Y-76200D03*
X177800Y0D03*
X-254000Y76200D03*
D19*
X-279400Y76200D03*
D20*
X-228600Y76200D03*
X177800Y-25400D03*
D21*
X177800Y-50800D03*
X177800Y25400D03*
X177800Y50800D03*
X50800Y76200D03*
X50800Y-76200D03*
X-254000Y-76200D03*
X-228600Y-76200D03*
X-203200Y-76200D03*
X-177800Y-76200D03*
X-152400Y-76200D03*
X-127000Y-76200D03*
X-101600Y-76200D03*
X-76200Y-76200D03*
X-50800Y-76200D03*
X-25400Y-76200D03*
X0Y-76200D03*
X25400Y-76200D03*
X-254000Y50800D03*
X25400Y76200D03*
X0Y76200D03*
X-25400Y76200D03*
X-50800Y76200D03*
X-76200Y76200D03*
X-101600Y76200D03*
X-127000Y76200D03*
X-152400Y76200D03*
X-177800Y76200D03*
X-203200Y76200D03*
D20*
X76200Y-76200D03*
D21*
X127000Y-76200D03*
X152400Y-76200D03*
X177800Y-76200D03*
X203200Y-76200D03*
X228600Y-76200D03*
X254000Y-76200D03*
X279400Y-76200D03*
X304800Y-76200D03*
X101600Y76200D03*
X127000Y76200D03*
X152400Y76200D03*
X177800Y76200D03*
X203200Y76200D03*
X228600Y76200D03*
X254000Y76200D03*
X279400Y76200D03*
X304800Y76200D03*
X-215900Y-46200D03*
X-190500Y-46200D03*
X-165100Y-46200D03*
X-139700Y-46200D03*
X-114300Y-46200D03*
X101600Y-76200D03*
D18*
X76200Y76200D03*
D22*
X-104521Y-125095D03*
X-129921Y-125095D03*
X-155321Y-125095D03*
X-180721Y-125095D03*
X-206121Y-125095D03*
X-231521Y-125095D03*
D23*
X77258Y-314706D03*
X172658Y-314706D03*
M02*
